<svg width="1509" height="513" viewBox="0 0 1509 513" fill="none" xmlns="http://www.w3.org/2000/svg">
<path d="M-61 214.5C-50.9 210.2 -40.6 206.3 -30.3 202.8C-19.9 199.2 -9.40005 196 1.19995 193.1C11.7999 190.2 22.5 187.6 33.2 185.3C44 183.1 54.7999 181.1 65.5999 179.5C76.4999 178 87.3999 176.8 98.3999 176.1C109.4 175.4 120.4 175.2 131.4 175.5C153.4 176.3 175.5 179.2 196.6 186.2L200.5 187.5C201.2 187.7 201.8 187.9 202.5 188.2L204.4 189C207 190 209.6 191 212.1 192.1L219.6 195.7C220.9 196.3 222.1 197 223.3 197.7L226.9 199.7C229.4 201 231.6 202.6 234 204.1L237.5 206.4C238.6 207.2 239.7 208.1 240.8 208.9L244.1 211.5L245.8 212.8L247.4 214.1L250.6 216.7L253.8 219.2C262.4 225.7 271.6 231.5 281.5 235.5C291.4 239.4 302 241.4 312.4 239.8C317.6 239.1 322.6 237.6 327.5 235.4C332.3 233.3 337 230.6 341.4 227.6C350.3 221.6 358.4 214.3 366.3 206.9C374.2 199.4 382 191.6 390 184.1C398 176.5 406.2 169.1 414.9 162.2C423.6 155.3 432.8 149 442.6 143.6C447.5 140.9 452.6 138.5 457.7 136.3C459 135.8 460.3 135.2 461.6 134.7C462.9 134.2 464.2 133.7 465.5 133.2L469.5 131.9L473.6 130.8C484.4 127.7 495.8 126.2 507.1 126.5C518.4 126.8 529.7 129.1 540.3 133C550.9 136.9 560.9 142.4 570.1 148.8C579.3 155.3 587.7 162.7 595.4 170.7L598.3 173.7C599.3 174.7 600.2 175.7 601.1 176.8L606.6 183.1L611.8 189.6C613.5 191.8 615.1 194 616.8 196.3C618.5 198.5 620.1 200.8 621.6 203.1C623.2 205.4 624.8 207.6 626.3 210L630.8 217L635.1 224.1C640.7 233.6 646.1 243.3 650.9 253.3L652.7 257L654.5 260.8L658 268.3C660.2 273.4 662.5 278.4 664.6 283.5C668.9 293.7 672.8 304 676.6 314.3L682.1 329.8L684.8 337.5L687.8 345.1C691.9 355.1 696.3 365 701.4 374.6C706.4 384.2 712 393.5 718 402.5C730.1 420.4 744.3 436.9 760.5 451.1C776.7 465.4 794.8 477.4 814.3 486.5C833.8 495.6 854.7 501.8 876 504.8C897.3 507.8 919.1 507.4 940.3 503.8C961.5 500.2 982.1 493.1 1001 482.7C1010.4 477.5 1019.3 471.5 1027.6 464.7C1035.9 457.9 1043.5 450.2 1050.3 442C1052.1 440 1053.6 437.8 1055.2 435.7C1056.8 433.5 1058.3 431.3 1059.8 429.1L1061.9 425.7C1062.6 424.6 1063.3 423.4 1064 422.3C1065.3 420 1066.7 417.7 1067.9 415.2C1072.9 405.6 1077.6 395.8 1081.7 385.7C1090 365.6 1096.6 344.8 1102.4 323.7C1108.3 302.7 1113.5 281.3 1119.5 260.2C1122.5 249.6 1125.8 239.1 1129.6 228.7C1133.4 218.3 1137.9 208.1 1143.3 198.3C1148.7 188.6 1155.1 179.3 1162.9 171.1C1170.6 162.9 1179.7 156 1189.5 150.5C1194.4 147.8 1199.5 145.5 1204.8 143.5L1208.7 142.1C1209.4 141.9 1210 141.6 1210.7 141.4L1212.7 140.8C1214 140.4 1215.4 140 1216.7 139.6L1220.7 138.6C1222 138.2 1223.4 137.9 1224.8 137.7C1226.2 137.4 1227.5 137.1 1228.9 136.8L1233 136.1L1235.1 135.7L1237.2 135.4L1241.3 134.8C1242.7 134.6 1244.1 134.5 1245.4 134.3C1246.8 134.2 1248.2 134 1249.5 133.9L1253.6 133.6C1259.1 133.2 1264.7 133.1 1270.2 133.1H1278.4C1278.4 133 1282.5 132.9 1282.5 132.9H1284.5L1286.5 132.8L1294.7 132.3H1296.7C1296.7 132.2 1298.7 132 1298.7 132L1302.8 131.6L1306.9 131.2L1308.9 131L1310.9 130.7L1319 129.6C1329.8 127.9 1340.5 125.9 1351 123.2L1355 122.2C1356.3 121.8 1357.6 121.5 1358.9 121.1L1366.8 118.8C1372 117.1 1377.2 115.5 1382.3 113.6C1387.5 111.8 1392.5 109.7 1397.6 107.7C1402.6 105.5 1407.6 103.4 1412.6 101C1417.6 98.7 1422.4 96.2 1427.3 93.7L1434.5 89.8C1436.9 88.5 1439.2 87.1 1441.6 85.7C1451 80.2 1460.2 74.3 1469.2 68C1478.1 61.7 1486.8 55 1495.1 47.9001C1503.5 40.8001 1511.5 33.4001 1519.2 25.6C1526.9 17.8 1534.1 9.50005 1540.7 0.800049C1534.3 9.70005 1527.2 18.1 1519.6 26C1512.1 34 1504.1 41.6 1495.8 48.8C1487.5 56 1478.9 62.9 1470.1 69.4C1461.2 75.9 1452 82 1442.6 87.7C1405 110.5 1363.1 126.6 1319.5 133.6L1311.3 134.8L1309.3 135.1L1307.2 135.3L1303.1 135.7L1299 136.1L1296.9 136.3H1294.8C1294.8 136.4 1286.5 137 1286.5 137H1284.4C1284.4 137.1 1282.3 137.2 1282.3 137.2H1278.2C1278.2 137.3 1269.9 137.5 1269.9 137.5C1264.5 137.5 1259 137.8 1253.6 138.2L1249.5 138.5C1248.1 138.6 1246.8 138.8 1245.5 138.9C1244.2 139.1 1242.8 139.2 1241.5 139.4L1237.5 140L1235.5 140.3L1233.5 140.7L1229.5 141.4C1228.2 141.7 1226.9 142 1225.5 142.3C1224.2 142.6 1222.9 142.9 1221.6 143.3L1217.7 144.4C1216.4 144.8 1215.1 145.2 1213.8 145.6L1211.9 146.2C1211.3 146.4 1210.6 146.7 1210 146.9L1206.2 148.3C1201.2 150.3 1196.4 152.6 1191.7 155.2C1182.4 160.5 1173.9 167.1 1166.6 175C1159.3 182.8 1153.2 191.7 1148 201.2C1142.9 210.7 1138.6 220.7 1134.9 230.9C1131.2 241.1 1128.1 251.5 1125.1 262.1C1119.3 283.1 1114.2 304.5 1108.4 325.7C1102.6 346.9 1096 368 1087.7 388.5C1083.5 398.8 1078.9 408.8 1073.8 418.7C1072.6 421.2 1071.1 423.6 1069.8 426C1069.1 427.2 1068.4 428.4 1067.6 429.6L1065.4 433.2C1063.8 435.5 1062.3 437.9 1060.6 440.1C1058.9 442.3 1057.3 444.6 1055.5 446.8C1048.4 455.5 1040.5 463.5 1031.9 470.7C1023.3 477.8 1014 484.2 1004.2 489.6C994.4 495.1 984.2 499.6 973.6 503.3C963 507 952.2 509.8 941.2 511.7C919.2 515.5 896.6 515.9 874.5 512.9C852.4 509.9 830.7 503.5 810.5 494.1C790.3 484.7 771.4 472.3 754.7 457.5C738 442.7 723.3 425.7 710.9 407.3C704.7 398.1 699.1 388.5 693.9 378.7C688.7 368.9 684.2 358.7 680 348.5L677 340.8L674.2 333L668.8 317.5C665 307.3 661.2 297.1 657 287C655 281.9 652.7 277 650.5 272L647.1 264.6L645.4 260.9L643.6 257.2C638.9 247.4 633.7 237.9 628.2 228.5L624 221.5L619.6 214.6C618.2 212.3 616.6 210.1 615.1 207.9C613.6 205.7 612.1 203.4 610.4 201.3C608.8 199.1 607.2 196.9 605.5 194.8L600.4 188.5L595.1 182.4C594.2 181.4 593.3 180.4 592.4 179.4L589.6 176.5C582.1 168.7 574.1 161.5 565.4 155.3C556.7 149.1 547.3 143.9 537.3 140.2C527.4 136.5 516.9 134.4 506.3 134C495.7 133.6 485.1 135 474.8 137.9L470.9 139L467.1 140.3C465.8 140.7 464.6 141.2 463.3 141.7C462 142.1 460.8 142.7 459.6 143.2C454.6 145.2 449.8 147.5 445 150.1C435.5 155.2 426.6 161.2 418 167.9C409.5 174.6 401.3 181.8 393.4 189.3C385.4 196.8 377.6 204.5 369.6 212C361.5 219.5 353.2 226.9 343.8 233.1C339.1 236.2 334.2 239 329 241.2C323.8 243.4 318.2 245 312.5 245.8C309.7 246.2 306.8 246.3 303.9 246.3C301 246.3 298.2 246 295.4 245.5C289.8 244.6 284.3 243 279.1 240.8C268.7 236.5 259.2 230.4 250.4 223.6L247.1 221L243.9 218.3L242.3 217L240.7 215.7L237.5 213.2C236.4 212.4 235.4 211.5 234.3 210.7L230.9 208.4C228.7 206.9 226.5 205.3 224.1 204L220.6 202C219.4 201.3 218.3 200.6 217 200L209.7 196.4C204.7 194.3 199.7 192.1 194.6 190.5C174.1 183.4 152.3 180.3 130.5 179.2C119.6 178.8 108.7 178.8 97.8 179.4C86.9 180 75.9999 181 65.0999 182.3C54.2999 183.7 43.3999 185.5 32.7 187.6C22 189.7 11.2999 192.2 0.699951 194.9C-9.90005 197.6 -20.4 200.7 -30.9 204C-41.3 207.4 -51.7 211.1 -61.8 215.2L-61 214.5Z" fill="url(#paint0_linear_5_7880)"/>
<defs>
<linearGradient id="paint0_linear_5_7880" x1="-61" y1="257.4" x2="1545.8" y2="257.4" gradientUnits="userSpaceOnUse">
<stop stop-color="#FF5E54"/>
<stop offset="1" stop-color="#F4B800"/>
</linearGradient>
</defs>
</svg>
