<svg width="301" height="75" viewBox="0 0 301 75" fill="none" xmlns="http://www.w3.org/2000/svg">
<g filter="url(#filter0_d_5_7912)">
<rect x="2.68164" y="36.109" width="33.5298" height="32.8972" rx="16.4486" fill="#FF5E54" shape-rendering="crispEdges"/>
<g filter="url(#filter1_d_5_7912)">
<rect x="2.68164" y="36.109" width="33.5298" height="32.8972" rx="16.4486" fill="#FF5E54" shape-rendering="crispEdges"/>
<path d="M13.0522 59.4926C12.3071 59.4942 11.569 59.3487 10.8803 59.0645C10.1916 58.7802 9.56602 58.3629 9.0394 57.8365L8.85792 57.6553C8.32923 57.1303 7.91005 56.5058 7.62467 55.818C7.33929 55.1301 7.19336 54.3926 7.19534 53.6481C7.19315 52.9033 7.33897 52.1655 7.62436 51.4774C7.90975 50.7893 8.32903 50.1645 8.85792 49.6394L9.0394 49.4581C9.56511 48.9302 10.1905 48.5116 10.8793 48.2267C11.5681 47.9417 12.3066 47.796 13.0522 47.7979C13.7978 47.796 14.5364 47.9417 15.2252 48.2267C15.914 48.5116 16.5393 48.9302 17.0651 49.4581L23.5795 55.9593C24.1953 56.5722 25.0293 56.9164 25.8988 56.9164C26.7683 56.9164 27.6023 56.5722 28.2181 55.9593C28.832 55.3443 29.1767 54.5115 29.1767 53.6432C29.1767 52.775 28.832 51.9422 28.2181 51.3272L26.0705 49.1827L22.8389 52.4105L21.0551 50.6292L26.0714 45.6225L30.0004 49.5475C31.0874 50.6352 31.6979 52.109 31.6979 53.6457C31.6979 55.1823 31.0874 56.6562 30.0004 57.7438C29.4627 58.2835 28.8233 58.7113 28.119 59.0026C27.4146 59.2939 26.6595 59.4427 25.8972 59.4406C25.1347 59.4429 24.3794 59.294 23.675 59.0028C22.9705 58.7115 22.3309 58.2836 21.7932 57.7438L15.2788 51.2386C14.9868 50.9453 14.6395 50.7127 14.2568 50.5544C13.8742 50.3961 13.4639 50.3152 13.0498 50.3163C12.6356 50.3152 12.2254 50.3961 11.8427 50.5544C11.4601 50.7127 11.1128 50.9453 10.8208 51.2386L10.6393 51.4199C10.3456 51.7114 10.1127 52.0583 9.95414 52.4403C9.79558 52.8224 9.71453 53.2321 9.71566 53.6457C9.71453 54.0593 9.79558 54.4689 9.95414 54.851C10.1127 55.2331 10.3456 55.5799 10.6393 55.8715L10.8208 56.0527C11.4123 56.6423 12.214 56.9735 13.0498 56.9735C13.8856 56.9735 14.6872 56.6423 15.2788 56.0527L16.2797 55.0532L18.0636 56.8345L17.0626 57.834C16.5364 58.3606 15.9113 58.7781 15.2231 59.0627C14.5349 59.3474 13.7971 59.4935 13.0522 59.4926Z" fill="white"/>
</g>
</g>
<path d="M52.9766 25.7922C52.9766 11.5475 64.5241 0 78.7687 0H274.789C289.034 0 300.581 11.5476 300.581 25.7922V43.8467C300.581 58.0913 289.034 69.6389 274.789 69.6389H52.9766V25.7922Z" fill="white"/>
<path d="M52.9766 25.7922C52.9766 11.5475 64.5241 0 78.7687 0H274.789C289.034 0 300.581 11.5476 300.581 25.7922V43.8467C300.581 58.0913 289.034 69.6389 274.789 69.6389H52.9766V25.7922Z" fill="#283047" fill-opacity="0.05"/>
<path d="M75.013 29.8195V17.0984H76.5998V22.5994H83.5818V17.0984H85.1687V29.8195H83.5818V24.0276H76.5998V29.8195H75.013ZM91.1986 29.9958C88.6509 29.9958 86.9494 28.1533 86.9494 25.2353V25.2177C86.9494 22.2997 88.6597 20.4748 91.1898 20.4748C93.7199 20.4748 95.4389 22.2909 95.4389 25.2177V25.2353C95.4389 28.1621 93.7287 29.9958 91.1986 29.9958ZM91.2074 28.6382C92.8207 28.6382 93.8698 27.3863 93.8698 25.2353V25.2177C93.8698 23.0666 92.8119 21.8324 91.1898 21.8324C89.5941 21.8324 88.5186 23.0755 88.5186 25.2177V25.2353C88.5186 27.3951 89.5853 28.6382 91.2074 28.6382ZM98.8065 29.8195L96.2412 20.6511H97.7663L99.5999 28.1092H99.6352L101.707 20.6511H103.188L105.268 28.1092H105.304L107.137 20.6511H108.654L106.097 29.8195H104.537L102.465 22.7228H102.43L100.367 29.8195H98.8065ZM117.416 29.9958C114.816 29.9958 113.167 28.1445 113.167 25.2265V25.2177C113.167 22.3261 114.851 20.4748 117.399 20.4748C119.682 20.4748 121.031 21.9911 121.225 23.5603L121.234 23.6308H119.735L119.717 23.5603C119.488 22.6435 118.748 21.8324 117.399 21.8324C115.803 21.8324 114.736 23.1548 114.736 25.2353V25.2441C114.736 27.3775 115.83 28.6382 117.416 28.6382C118.668 28.6382 119.47 27.9329 119.726 26.9103L119.744 26.8398H121.251L121.242 26.9015C120.996 28.647 119.488 29.9958 117.416 29.9958ZM125.342 29.9958C123.517 29.9958 122.292 28.8938 122.292 27.2276V27.21C122.292 25.6496 123.508 24.6711 125.615 24.5477L128.242 24.3978V23.6308C128.242 22.5113 127.51 21.8324 126.232 21.8324C125.051 21.8324 124.31 22.3967 124.134 23.2165L124.116 23.2959H122.635L122.644 23.1989C122.776 21.6914 124.09 20.4748 126.25 20.4748C128.418 20.4748 129.776 21.6473 129.776 23.481V29.8195H128.242V28.3296H128.207C127.669 29.3346 126.567 29.9958 125.342 29.9958ZM123.861 27.2276C123.861 28.1092 124.584 28.6646 125.686 28.6646C127.131 28.6646 128.242 27.6684 128.242 26.3373V25.5879L125.791 25.7378C124.566 25.8083 123.861 26.3549 123.861 27.21V27.2276ZM131.724 29.8195V20.6511H133.258V21.9559H133.293C133.787 21.1007 134.722 20.4748 136.115 20.4748C138.124 20.4748 139.288 21.7796 139.288 23.8689V29.8195H137.754V24.1422C137.754 22.6523 137.058 21.8324 135.647 21.8324C134.202 21.8324 133.258 22.8639 133.258 24.4243V29.8195H131.724ZM145.186 29.8195V17.0984H146.773V29.8195H145.186ZM152.785 29.8195V17.0984H154.319V22.1145H154.354C154.848 21.0831 155.844 20.4748 157.21 20.4748C159.159 20.4748 160.49 21.9823 160.49 24.2039V29.8195H158.956V24.4683C158.956 22.811 158.11 21.8324 156.682 21.8324C155.262 21.8324 154.319 22.908 154.319 24.4683V29.8195H152.785ZM166.211 29.9958C163.575 29.9958 161.989 28.1533 161.989 25.2706V25.2617C161.989 22.4231 163.611 20.4748 166.114 20.4748C168.618 20.4748 170.143 22.3349 170.143 25.0854V25.6496H163.54C163.575 27.5362 164.616 28.6382 166.247 28.6382C167.41 28.6382 168.23 28.0563 168.495 27.2717L168.521 27.1924H170.028L170.011 27.2805C169.711 28.7968 168.212 29.9958 166.211 29.9958ZM166.105 21.8324C164.774 21.8324 163.734 22.7405 163.567 24.4507H168.583C168.433 22.6699 167.445 21.8324 166.105 21.8324ZM171.774 29.8195V17.0984H173.308V29.8195H171.774ZM175.38 32.9049V20.6511H176.914V22.2027H176.949C177.522 21.136 178.544 20.4748 179.858 20.4748C182.203 20.4748 183.754 22.3438 183.754 25.2353V25.2441C183.754 28.1357 182.185 29.9958 179.884 29.9958C178.588 29.9958 177.522 29.3434 176.949 28.2855H176.914V32.9049H175.38ZM179.558 28.6382C181.18 28.6382 182.185 27.3334 182.185 25.2441V25.2353C182.185 23.1284 181.18 21.8324 179.558 21.8324C178.007 21.8324 176.905 23.1812 176.905 25.2353V25.2441C176.905 27.2894 178.015 28.6382 179.558 28.6382ZM189.89 32.9049C189.59 32.9049 189.264 32.8697 189.07 32.8344V31.5826C189.203 31.609 189.379 31.6355 189.564 31.6355C190.534 31.6355 191.071 31.3886 191.442 30.3484L191.627 29.8283L188.224 20.6511H189.864L192.394 28.2855H192.429L194.968 20.6511H196.581L193.002 30.3925C192.35 32.1468 191.548 32.9049 189.89 32.9049ZM201.236 29.9958C198.688 29.9958 196.987 28.1533 196.987 25.2353V25.2177C196.987 22.2997 198.697 20.4748 201.227 20.4748C203.757 20.4748 205.476 22.2909 205.476 25.2177V25.2353C205.476 28.1621 203.766 29.9958 201.236 29.9958ZM201.245 28.6382C202.858 28.6382 203.907 27.3863 203.907 25.2353V25.2177C203.907 23.0666 202.849 21.8324 201.227 21.8324C199.632 21.8324 198.556 23.0755 198.556 25.2177V25.2353C198.556 27.3951 199.623 28.6382 201.245 28.6382ZM210.157 29.9958C208.147 29.9958 206.984 28.6911 206.984 26.6017V20.6511H208.518V26.3284C208.518 27.8183 209.214 28.6382 210.625 28.6382C212.07 28.6382 213.014 27.6067 213.014 26.0463V20.6511H214.548V29.8195H213.014V28.5147H212.978C212.485 29.3699 211.55 29.9958 210.157 29.9958ZM223.231 29.9958C221.547 29.9958 220.719 29.2376 220.719 27.4833V21.9206H219.379V20.6511H220.719V18.1739H222.305V20.6511H224.051V21.9206H222.305V27.4745C222.305 28.453 222.737 28.7263 223.557 28.7263C223.742 28.7263 223.919 28.6999 224.051 28.6911V29.9341C223.857 29.9605 223.531 29.9958 223.231 29.9958ZM229.235 29.9958C226.687 29.9958 224.985 28.1533 224.985 25.2353V25.2177C224.985 22.2997 226.696 20.4748 229.226 20.4748C231.756 20.4748 233.475 22.2909 233.475 25.2177V25.2353C233.475 28.1621 231.765 29.9958 229.235 29.9958ZM229.243 28.6382C230.857 28.6382 231.906 27.3863 231.906 25.2353V25.2177C231.906 23.0666 230.848 21.8324 229.226 21.8324C227.63 21.8324 226.555 23.0755 226.555 25.2177V25.2353C226.555 27.3951 227.621 28.6382 229.243 28.6382ZM238.729 29.8195V20.6511H240.263V21.9911H240.298C240.713 21.0831 241.629 20.4748 242.811 20.4748C244.063 20.4748 244.988 21.1184 245.385 22.238H245.42C245.931 21.136 247.007 20.4748 248.294 20.4748C250.11 20.4748 251.283 21.6649 251.283 23.4898V29.8195H249.749V23.8424C249.749 22.5818 249.052 21.8324 247.845 21.8324C246.628 21.8324 245.773 22.7405 245.773 23.9923V29.8195H244.239V23.6749C244.239 22.5641 243.498 21.8324 242.361 21.8324C241.145 21.8324 240.263 22.7934 240.263 24.0716V29.8195H238.729ZM255.92 29.9958C254.095 29.9958 252.869 28.8938 252.869 27.2276V27.21C252.869 25.6496 254.086 24.6711 256.193 24.5477L258.82 24.3978V23.6308C258.82 22.5113 258.088 21.8324 256.81 21.8324C255.629 21.8324 254.888 22.3967 254.712 23.2165L254.694 23.2959H253.213L253.222 23.1989C253.354 21.6914 254.668 20.4748 256.828 20.4748C258.996 20.4748 260.354 21.6473 260.354 23.481V29.8195H258.82V28.3296H258.785C258.247 29.3346 257.145 29.9958 255.92 29.9958ZM254.439 27.2276C254.439 28.1092 255.162 28.6646 256.263 28.6646C257.709 28.6646 258.82 27.6684 258.82 26.3373V25.5879L256.369 25.7378C255.144 25.8083 254.439 26.3549 254.439 27.21V27.2276ZM262.426 29.8195V17.0984H263.96V24.6975H263.995L268.015 20.6511H269.875L265.899 24.6094L269.998 29.8195H268.218L264.815 25.5439L263.96 26.3637V29.8195H262.426ZM274.397 29.9958C271.761 29.9958 270.175 28.1533 270.175 25.2706V25.2617C270.175 22.4231 271.797 20.4748 274.3 20.4748C276.804 20.4748 278.329 22.3349 278.329 25.0854V25.6496H271.726C271.761 27.5362 272.802 28.6382 274.433 28.6382C275.596 28.6382 276.416 28.0563 276.681 27.2717L276.707 27.1924H278.215L278.197 27.2805C277.897 28.7968 276.398 29.9958 274.397 29.9958ZM274.292 21.8324C272.96 21.8324 271.92 22.7405 271.753 24.4507H276.769C276.619 22.6699 275.632 21.8324 274.292 21.8324ZM77.7547 51.9958C76.0709 51.9958 75.2422 51.2376 75.2422 49.4833V43.9206H73.9022V42.6511H75.2422V40.1739H76.829V42.6511H78.5745V43.9206H76.829V49.4745C76.829 50.453 77.261 50.7263 78.0809 50.7263C78.266 50.7263 78.4423 50.6999 78.5745 50.6911V51.9341C78.3806 51.9605 78.0544 51.9958 77.7547 51.9958ZM80.3024 51.8195V39.0984H81.8363V44.1145H81.8716C82.3653 43.0831 83.3615 42.4748 84.7279 42.4748C86.6762 42.4748 88.0073 43.9823 88.0073 46.2039V51.8195H86.4734V46.4683C86.4734 44.811 85.6271 43.8324 84.1989 43.8324C82.7796 43.8324 81.8363 44.908 81.8363 46.4683V51.8195H80.3024ZM90.8195 41.0996C90.2906 41.0996 89.8586 40.6676 89.8586 40.1387C89.8586 39.6009 90.2906 39.1778 90.8195 39.1778C91.3573 39.1778 91.7804 39.6009 91.7804 40.1387C91.7804 40.6676 91.3573 41.0996 90.8195 41.0996ZM90.0526 51.8195V42.6511H91.5865V51.8195H90.0526ZM96.9288 51.9958C94.769 51.9958 93.4642 50.8938 93.2791 49.2541L93.2703 49.1748H94.8042L94.8218 49.2629C95.007 50.1797 95.6858 50.7175 96.9376 50.7175C98.1806 50.7175 98.9211 50.1974 98.9211 49.3687V49.3599C98.9211 48.6987 98.5773 48.3284 97.5371 48.0728L96.0825 47.7202C94.3546 47.3058 93.5171 46.5036 93.5171 45.1812V45.1724C93.5171 43.5944 94.9012 42.4748 96.8847 42.4748C98.8947 42.4748 100.173 43.6473 100.288 45.1812L100.296 45.2959H98.833L98.8242 45.2341C98.7007 44.3438 98.0219 43.7531 96.8847 43.7531C95.7739 43.7531 95.0863 44.2909 95.0863 45.1019V45.1107C95.0863 45.7366 95.5007 46.1686 96.5145 46.4154L97.969 46.7681C99.8203 47.2177 100.49 47.9494 100.49 49.2541V49.2629C100.49 50.8674 98.974 51.9958 96.9288 51.9958ZM109.235 51.9958C106.891 51.9958 105.339 50.1268 105.339 47.2353V47.2265C105.339 44.3349 106.908 42.4748 109.209 42.4748C110.505 42.4748 111.572 43.1272 112.145 44.1851H112.18V39.0984H113.714V51.8195H112.18V50.2679H112.145C111.572 51.3346 110.549 51.9958 109.235 51.9958ZM109.535 50.6382C111.087 50.6382 112.189 49.2894 112.189 47.2353V47.2265C112.189 45.1812 111.078 43.8324 109.535 43.8324C107.913 43.8324 106.908 45.1372 106.908 47.2265V47.2353C106.908 49.3423 107.913 50.6382 109.535 50.6382ZM118.466 51.9958C116.641 51.9958 115.415 50.8938 115.415 49.2276V49.21C115.415 47.6496 116.632 46.6711 118.739 46.5477L121.366 46.3978V45.6308C121.366 44.5113 120.634 43.8324 119.356 43.8324C118.175 43.8324 117.434 44.3967 117.258 45.2165L117.24 45.2959H115.759L115.768 45.1989C115.9 43.6914 117.214 42.4748 119.374 42.4748C121.542 42.4748 122.9 43.6473 122.9 45.481V51.8195H121.366V50.3296H121.331C120.793 51.3346 119.691 51.9958 118.466 51.9958ZM116.984 49.2276C116.984 50.1092 117.707 50.6646 118.809 50.6646C120.255 50.6646 121.366 49.6684 121.366 48.3373V47.5879L118.915 47.7378C117.69 47.8083 116.984 48.3549 116.984 49.21V49.2276ZM125.73 54.9049C125.43 54.9049 125.104 54.8697 124.91 54.8344V53.5826C125.042 53.609 125.218 53.6355 125.403 53.6355C126.373 53.6355 126.911 53.3886 127.281 52.3484L127.466 51.8283L124.063 42.6511H125.703L128.233 50.2855H128.269L130.807 42.6511H132.421L128.842 52.3925C128.189 54.1468 127.387 54.9049 125.73 54.9049ZM140.011 51.9958C138.186 51.9958 136.961 50.8938 136.961 49.2276V49.21C136.961 47.6496 138.177 46.6711 140.284 46.5477L142.911 46.3978V45.6308C142.911 44.5113 142.18 43.8324 140.901 43.8324C139.72 43.8324 138.98 44.3967 138.803 45.2165L138.786 45.2959H137.305L137.313 45.1989C137.446 43.6914 138.759 42.4748 140.919 42.4748C143.088 42.4748 144.445 43.6473 144.445 45.481V51.8195H142.911V50.3296H142.876C142.338 51.3346 141.236 51.9958 140.011 51.9958ZM138.53 49.2276C138.53 50.1092 139.253 50.6646 140.355 50.6646C141.801 50.6646 142.911 49.6684 142.911 48.3373V47.5879L140.461 47.7378C139.235 47.8083 138.53 48.3549 138.53 49.21V49.2276ZM148.21 51.8195L145.644 42.6511H147.169L149.003 50.1092H149.038L151.11 42.6511H152.591L154.672 50.1092H154.707L156.54 42.6511H158.057L155.5 51.8195H153.94L151.868 44.7228H151.833L149.77 51.8195H148.21ZM163.091 51.9958C160.455 51.9958 158.868 50.1533 158.868 47.2706V47.2617C158.868 44.4231 160.49 42.4748 162.994 42.4748C165.497 42.4748 167.022 44.3349 167.022 47.0854V47.6496H160.419C160.455 49.5362 161.495 50.6382 163.126 50.6382C164.289 50.6382 165.109 50.0563 165.374 49.2717L165.4 49.1924H166.908L166.89 49.2805C166.59 50.7968 165.092 51.9958 163.091 51.9958ZM162.985 43.8324C161.654 43.8324 160.613 44.7405 160.446 46.4507H165.462C165.312 44.6699 164.325 43.8324 162.985 43.8324ZM171.827 51.9958C169.667 51.9958 168.362 50.8938 168.177 49.2541L168.168 49.1748H169.702L169.72 49.2629C169.905 50.1797 170.584 50.7175 171.836 50.7175C173.079 50.7175 173.819 50.1974 173.819 49.3687V49.3599C173.819 48.6987 173.475 48.3284 172.435 48.0728L170.981 47.7202C169.253 47.3058 168.415 46.5036 168.415 45.1812V45.1724C168.415 43.5944 169.799 42.4748 171.783 42.4748C173.793 42.4748 175.071 43.6473 175.186 45.1812L175.194 45.2959H173.731L173.722 45.2341C173.599 44.3438 172.92 43.7531 171.783 43.7531C170.672 43.7531 169.984 44.2909 169.984 45.1019V45.1107C169.984 45.7366 170.399 46.1686 171.413 46.4154L172.867 46.7681C174.718 47.2177 175.388 47.9494 175.388 49.2541V49.2629C175.388 50.8674 173.872 51.9958 171.827 51.9958ZM180.784 51.9958C178.236 51.9958 176.534 50.1533 176.534 47.2353V47.2177C176.534 44.2997 178.245 42.4748 180.775 42.4748C183.305 42.4748 185.024 44.2909 185.024 47.2177V47.2353C185.024 50.1621 183.314 51.9958 180.784 51.9958ZM180.792 50.6382C182.406 50.6382 183.455 49.3863 183.455 47.2353V47.2177C183.455 45.0666 182.397 43.8324 180.775 43.8324C179.179 43.8324 178.104 45.0755 178.104 47.2177V47.2353C178.104 49.3951 179.17 50.6382 180.792 50.6382ZM186.575 51.8195V42.6511H188.109V43.9911H188.145C188.559 43.0831 189.476 42.4748 190.657 42.4748C191.909 42.4748 192.835 43.1184 193.231 44.238H193.267C193.778 43.136 194.853 42.4748 196.141 42.4748C197.957 42.4748 199.129 43.6649 199.129 45.4898V51.8195H197.595V45.8424C197.595 44.5818 196.899 43.8324 195.691 43.8324C194.474 43.8324 193.619 44.7405 193.619 45.9923V51.8195H192.085V45.6749C192.085 44.5641 191.345 43.8324 190.208 43.8324C188.991 43.8324 188.109 44.7934 188.109 46.0716V51.8195H186.575ZM204.859 51.9958C202.223 51.9958 200.637 50.1533 200.637 47.2706V47.2617C200.637 44.4231 202.259 42.4748 204.762 42.4748C207.266 42.4748 208.791 44.3349 208.791 47.0854V47.6496H202.188C202.223 49.5362 203.264 50.6382 204.894 50.6382C206.058 50.6382 206.878 50.0563 207.142 49.2717L207.169 49.1924H208.676L208.659 49.2805C208.359 50.7968 206.86 51.9958 204.859 51.9958ZM204.753 43.8324C203.422 43.8324 202.382 44.7405 202.215 46.4507H207.231C207.081 44.6699 206.093 43.8324 204.753 43.8324ZM212.599 47.8877V47.0766C212.599 45.9129 213.155 45.1195 214.363 44.3967C215.385 43.7707 215.782 43.2154 215.782 42.2809V42.2721C215.782 41.1701 214.927 40.3767 213.622 40.3767C212.291 40.3767 211.471 41.1613 211.356 42.3338L211.348 42.4219H209.84L209.849 42.3073C209.99 40.5089 211.207 39.0015 213.684 39.0015C215.896 39.0015 217.422 40.3679 217.422 42.1927V42.2015C217.422 43.5768 216.708 44.5553 215.579 45.2341C214.46 45.8953 214.142 46.389 214.142 47.3146V47.8877H212.599ZM213.375 51.9076C212.811 51.9076 212.37 51.4668 212.37 50.9026C212.37 50.3296 212.811 49.8976 213.375 49.8976C213.948 49.8976 214.38 50.3296 214.38 50.9026C214.38 51.4668 213.948 51.9076 213.375 51.9076Z" fill="#1D1D1B"/>
<defs>
<filter id="filter0_d_5_7912" x="0.151088" y="36.109" width="38.5909" height="37.9583" filterUnits="userSpaceOnUse" color-interpolation-filters="sRGB">
<feFlood flood-opacity="0" result="BackgroundImageFix"/>
<feColorMatrix in="SourceAlpha" type="matrix" values="0 0 0 0 0 0 0 0 0 0 0 0 0 0 0 0 0 0 127 0" result="hardAlpha"/>
<feOffset dy="2.53055"/>
<feGaussianBlur stdDeviation="1.26528"/>
<feComposite in2="hardAlpha" operator="out"/>
<feColorMatrix type="matrix" values="0 0 0 0 0 0 0 0 0 0 0 0 0 0 0 0 0 0 0.05 0"/>
<feBlend mode="normal" in2="BackgroundImageFix" result="effect1_dropShadow_5_7912"/>
<feBlend mode="normal" in="SourceGraphic" in2="effect1_dropShadow_5_7912" result="shape"/>
</filter>
<filter id="filter1_d_5_7912" x="0.151088" y="36.109" width="38.5909" height="37.9583" filterUnits="userSpaceOnUse" color-interpolation-filters="sRGB">
<feFlood flood-opacity="0" result="BackgroundImageFix"/>
<feColorMatrix in="SourceAlpha" type="matrix" values="0 0 0 0 0 0 0 0 0 0 0 0 0 0 0 0 0 0 127 0" result="hardAlpha"/>
<feOffset dy="2.53055"/>
<feGaussianBlur stdDeviation="1.26528"/>
<feComposite in2="hardAlpha" operator="out"/>
<feColorMatrix type="matrix" values="0 0 0 0 0 0 0 0 0 0 0 0 0 0 0 0 0 0 0.05 0"/>
<feBlend mode="normal" in2="BackgroundImageFix" result="effect1_dropShadow_5_7912"/>
<feBlend mode="normal" in="SourceGraphic" in2="effect1_dropShadow_5_7912" result="shape"/>
</filter>
</defs>
</svg>
