<svg width="282" height="90" viewBox="0 0 282 90" fill="none" xmlns="http://www.w3.org/2000/svg">
<path d="M281.384 26.2232C281.384 11.9786 269.837 0.43103 255.592 0.43103H26.0418C11.7971 0.43103 0.249603 11.9786 0.249603 26.2232V63.7255C0.249603 77.9701 11.7971 89.5177 26.0418 89.5177H281.384V26.2232Z" fill="#283047"/>
<path d="M22.1175 28.9744V16.2533H23.7043V28.9744H22.1175ZM26.6752 20.7405L26.4989 16.2533H27.9623L27.786 20.7405H26.6752ZM30.5188 28.9744V19.8061H32.0528V21.146H32.088C32.5024 20.238 33.4192 19.6297 34.6005 19.6297C35.8523 19.6297 36.778 20.2733 37.1747 21.3929H37.2099C37.7213 20.2909 38.7968 19.6297 40.0839 19.6297C41.8999 19.6297 43.0724 20.8199 43.0724 22.6447V28.9744H41.5384V22.9973C41.5384 21.7367 40.842 20.9874 39.6343 20.9874C38.4177 20.9874 37.5626 21.8954 37.5626 23.1472V28.9744H36.0286V22.8298C36.0286 21.7191 35.2881 20.9874 34.1509 20.9874C32.9343 20.9874 32.0528 21.9483 32.0528 23.2265V28.9744H30.5188ZM50.5481 28.9744L47.9827 19.8061H49.5078L51.3415 27.2641H51.3768L53.4484 19.8061H54.9295L57.01 27.2641H57.0452L58.8789 19.8061H60.3952L57.8387 28.9744H56.2783L54.2066 21.8777H54.1713L52.1085 28.9744H50.5481ZM62.5198 18.2545C61.9908 18.2545 61.5589 17.8225 61.5589 17.2936C61.5589 16.7558 61.9908 16.3327 62.5198 16.3327C63.0575 16.3327 63.4807 16.7558 63.4807 17.2936C63.4807 17.8225 63.0575 18.2545 62.5198 18.2545ZM61.7528 28.9744V19.8061H63.2867V28.9744H61.7528ZM68.3558 29.1507C66.672 29.1507 65.8433 28.3925 65.8433 26.6382V21.0755H64.5033V19.8061H65.8433V17.3288H67.4301V19.8061H69.1756V21.0755H67.4301V26.6294C67.4301 27.6079 67.8621 27.8812 68.6819 27.8812C68.8671 27.8812 69.0434 27.8548 69.1756 27.846V29.089C68.9817 29.1154 68.6555 29.1507 68.3558 29.1507ZM70.9035 28.9744V16.2533H72.4374V21.2695H72.4727C72.9664 20.238 73.9625 19.6297 75.329 19.6297C77.2772 19.6297 78.6084 21.1372 78.6084 23.3588V28.9744H77.0745V23.6232C77.0745 21.9659 76.2282 20.9874 74.8 20.9874C73.3807 20.9874 72.4374 22.0629 72.4374 23.6232V28.9744H70.9035ZM84.2593 28.9744V19.8061H85.7932V21.146H85.8284C86.2428 20.238 87.1596 19.6297 88.3409 19.6297C89.5927 19.6297 90.5184 20.2733 90.9151 21.3929H90.9504C91.4617 20.2909 92.5372 19.6297 93.8243 19.6297C95.6403 19.6297 96.8128 20.8199 96.8128 22.6447V28.9744H95.2789V22.9973C95.2789 21.7367 94.5824 20.9874 93.3747 20.9874C92.1581 20.9874 91.303 21.8954 91.303 23.1472V28.9744H89.7691V22.8298C89.7691 21.7191 89.0285 20.9874 87.8913 20.9874C86.6748 20.9874 85.7932 21.9483 85.7932 23.2265V28.9744H84.2593ZM99.6514 32.0599C99.3517 32.0599 99.0255 32.0246 98.8316 31.9893V30.7375C98.9638 30.7639 99.1401 30.7904 99.3253 30.7904C100.295 30.7904 100.833 30.5436 101.203 29.5033L101.388 28.9832L97.9853 19.8061H99.625L102.155 27.4404H102.19L104.729 19.8061H106.343L102.763 29.5474C102.111 31.3017 101.309 32.0599 99.6514 32.0599ZM115.132 32.2362C112.866 32.2362 111.438 31.1695 111.138 29.8119L111.121 29.7325H112.663L112.699 29.8119C112.99 30.473 113.862 30.8786 115.114 30.8786C116.727 30.8786 117.644 29.9882 117.644 28.5688V27.3964H117.609C117.062 28.4102 116.005 29.0625 114.691 29.0625C112.381 29.0625 110.803 27.2024 110.803 24.3373V24.3285C110.803 21.481 112.399 19.6297 114.726 19.6297C116.022 19.6297 117.045 20.335 117.609 21.3576H117.644V19.8061H119.178V28.7187C119.178 30.8433 117.618 32.2362 115.132 32.2362ZM115.026 27.7049C116.586 27.7049 117.644 26.3737 117.644 24.3373V24.3285C117.644 22.3097 116.578 20.9874 115.026 20.9874C113.395 20.9874 112.372 22.2921 112.372 24.3285V24.3373C112.372 26.4178 113.395 27.7049 115.026 27.7049ZM122.026 18.2545C121.497 18.2545 121.065 17.8225 121.065 17.2936C121.065 16.7558 121.497 16.3327 122.026 16.3327C122.563 16.3327 122.987 16.7558 122.987 17.2936C122.987 17.8225 122.563 18.2545 122.026 18.2545ZM121.259 28.9744V19.8061H122.793V28.9744H121.259ZM124.882 28.9744V19.8061H126.416V21.3576H126.451C126.76 20.2997 127.553 19.6297 128.585 19.6297C128.849 19.6297 129.078 19.6738 129.202 19.6914V21.1813C129.078 21.1372 128.752 21.0931 128.382 21.0931C127.192 21.0931 126.416 21.9218 126.416 23.3147V28.9744H124.882ZM130.533 28.9744V16.2533H132.067V28.9744H130.533ZM134.632 28.9744V21.0755H133.354V19.8061H134.632V18.6776C134.632 16.9145 135.452 16.077 137.145 16.077C137.488 16.077 137.85 16.1035 138.079 16.1387V17.3817C137.894 17.3553 137.656 17.3465 137.418 17.3465C136.572 17.3465 136.148 17.7784 136.148 18.6865V19.8061H138.035V21.0755H136.166V28.9744H134.632ZM139.622 28.9744V19.8061H141.156V21.3576H141.191C141.499 20.2997 142.293 19.6297 143.324 19.6297C143.589 19.6297 143.818 19.6738 143.941 19.6914V21.1813C143.818 21.1372 143.492 21.0931 143.122 21.0931C141.931 21.0931 141.156 21.9218 141.156 23.3147V28.9744H139.622ZM146.057 18.2545C145.528 18.2545 145.096 17.8225 145.096 17.2936C145.096 16.7558 145.528 16.3327 146.057 16.3327C146.595 16.3327 147.018 16.7558 147.018 17.2936C147.018 17.8225 146.595 18.2545 146.057 18.2545ZM145.29 28.9744V19.8061H146.824V28.9744H145.29ZM152.687 29.1507C150.051 29.1507 148.464 27.3082 148.464 24.4255V24.4167C148.464 21.578 150.086 19.6297 152.59 19.6297C155.093 19.6297 156.618 21.4898 156.618 24.2403V24.8045H150.015C150.051 26.6911 151.091 27.7931 152.722 27.7931C153.886 27.7931 154.705 27.2112 154.97 26.4266L154.996 26.3473H156.504L156.486 26.4354C156.186 27.9517 154.688 29.1507 152.687 29.1507ZM152.581 20.9874C151.25 20.9874 150.209 21.8954 150.042 23.6056H155.058C154.908 21.8248 153.921 20.9874 152.581 20.9874ZM158.17 28.9744V19.8061H159.704V21.1108H159.739C160.233 20.2557 161.167 19.6297 162.56 19.6297C164.57 19.6297 165.734 20.9345 165.734 23.0238V28.9744H164.2V23.2971C164.2 21.8072 163.503 20.9874 162.093 20.9874C160.647 20.9874 159.704 22.0188 159.704 23.5792V28.9744H158.17ZM171.138 29.1507C168.793 29.1507 167.241 27.2818 167.241 24.3902V24.3814C167.241 21.4898 168.81 19.6297 171.111 19.6297C172.407 19.6297 173.474 20.2821 174.047 21.34H174.082V16.2533H175.616V28.9744H174.082V27.4228H174.047C173.474 28.4895 172.451 29.1507 171.138 29.1507ZM171.438 27.7931C172.989 27.7931 174.091 26.4443 174.091 24.3902V24.3814C174.091 22.3362 172.98 20.9874 171.438 20.9874C169.815 20.9874 168.81 22.2921 168.81 24.3814V24.3902C168.81 26.4972 169.815 27.7931 171.438 27.7931ZM177.071 31.4692L177.847 27.1583H179.451L178.164 31.4692H177.071ZM187.068 29.1507C185.243 29.1507 184.018 28.0487 184.018 26.3826V26.3649C184.018 24.8045 185.234 23.826 187.341 23.7026L189.968 23.5527V22.7858C189.968 21.6662 189.236 20.9874 187.958 20.9874C186.777 20.9874 186.036 21.5516 185.86 22.3714L185.842 22.4508H184.361L184.37 22.3538C184.502 20.8463 185.816 19.6297 187.976 19.6297C190.144 19.6297 191.502 20.8022 191.502 22.6359V28.9744H189.968V27.4845H189.933C189.395 28.4895 188.293 29.1507 187.068 29.1507ZM185.587 26.3826C185.587 27.2641 186.31 27.8195 187.412 27.8195C188.857 27.8195 189.968 26.8233 189.968 25.4922V24.7428L187.517 24.8927C186.292 24.9632 185.587 25.5098 185.587 26.3649V26.3826ZM193.45 28.9744V19.8061H194.984V21.1108H195.02C195.513 20.2557 196.448 19.6297 197.841 19.6297C199.851 19.6297 201.014 20.9345 201.014 23.0238V28.9744H199.48V23.2971C199.48 21.8072 198.784 20.9874 197.373 20.9874C195.928 20.9874 194.984 22.0188 194.984 23.5792V28.9744H193.45ZM206.418 29.1507C204.073 29.1507 202.522 27.2818 202.522 24.3902V24.3814C202.522 21.4898 204.091 19.6297 206.392 19.6297C207.688 19.6297 208.754 20.2821 209.327 21.34H209.363V16.2533H210.897V28.9744H209.363V27.4228H209.327C208.754 28.4895 207.732 29.1507 206.418 29.1507ZM206.718 27.7931C208.269 27.7931 209.371 26.4443 209.371 24.3902V24.3814C209.371 22.3362 208.261 20.9874 206.718 20.9874C205.096 20.9874 204.091 22.2921 204.091 24.3814V24.3902C204.091 26.4972 205.096 27.7931 206.718 27.7931ZM23.6955 50.9744L21.1301 41.8061H22.6553L24.4889 49.2641H24.5242L26.5959 41.8061H28.0769L30.1574 49.2641H30.1927L32.0263 41.8061H33.5426L30.9861 50.9744H29.4257L27.354 43.8777H27.3188L25.2559 50.9744H23.6955ZM38.5764 51.1507C35.9405 51.1507 34.3537 49.3082 34.3537 46.4255V46.4167C34.3537 43.578 35.9758 41.6297 38.4794 41.6297C40.9831 41.6297 42.5082 43.4898 42.5082 46.2403V46.8045H35.9052C35.9405 48.6911 36.9807 49.7931 38.6116 49.7931C39.7753 49.7931 40.5952 49.2112 40.8596 48.4266L40.8861 48.3473H42.3936L42.3759 48.4354C42.0762 49.9517 40.5775 51.1507 38.5764 51.1507ZM38.4706 42.9874C37.1394 42.9874 36.0992 43.8954 35.9317 45.6056H40.9478C40.7979 43.8248 39.8106 42.9874 38.4706 42.9874ZM49.5784 50.9744L47.013 41.8061H48.5381L50.3718 49.2641H50.407L52.4787 41.8061H53.9597L56.0402 49.2641H56.0755L57.9092 41.8061H59.4255L56.8689 50.9744H55.3085L53.2369 43.8777H53.2016L51.1387 50.9744H49.5784ZM63.1898 51.1507C61.3649 51.1507 60.1395 50.0487 60.1395 48.3826V48.3649C60.1395 46.8045 61.3561 45.826 63.4631 45.7026L66.0901 45.5527V44.7858C66.0901 43.6662 65.3584 42.9874 64.0802 42.9874C62.8989 42.9874 62.1583 43.5516 61.982 44.3714L61.9644 44.4508H60.4834L60.4922 44.3538C60.6244 42.8463 61.9379 41.6297 64.0978 41.6297C66.2664 41.6297 67.6241 42.8022 67.6241 44.6359V50.9744H66.0901V49.4845H66.0549C65.5171 50.4895 64.4152 51.1507 63.1898 51.1507ZM61.7087 48.3826C61.7087 49.2641 62.4316 49.8195 63.5336 49.8195C64.9794 49.8195 66.0901 48.8233 66.0901 47.4922V46.7428L63.6394 46.8927C62.414 46.9632 61.7087 47.5098 61.7087 48.3649V48.3826ZM69.5723 50.9744V41.8061H71.1063V43.1108H71.1415C71.6352 42.2557 72.5697 41.6297 73.9625 41.6297C75.9725 41.6297 77.1362 42.9345 77.1362 45.0238V50.9744H75.6023V45.2971C75.6023 43.8072 74.9058 42.9874 73.4953 42.9874C72.0495 42.9874 71.1063 44.0188 71.1063 45.5792V50.9744H69.5723ZM82.073 51.1507C80.3892 51.1507 79.5605 50.3925 79.5605 48.6382V43.0755H78.2205V41.8061H79.5605V39.3288H81.1473V41.8061H82.8928V43.0755H81.1473V48.6294C81.1473 49.6079 81.5793 49.8812 82.3991 49.8812C82.5843 49.8812 82.7606 49.8548 82.8928 49.846V51.089C82.6989 51.1154 82.3727 51.1507 82.073 51.1507ZM91.2236 51.1507C89.5399 51.1507 88.7112 50.3925 88.7112 48.6382V43.0755H87.3712V41.8061H88.7112V39.3288H90.298V41.8061H92.0435V43.0755H90.298V48.6294C90.298 49.6079 90.73 49.8812 91.5498 49.8812C91.735 49.8812 91.9113 49.8548 92.0435 49.846V51.089C91.8496 51.1154 91.5234 51.1507 91.2236 51.1507ZM97.2271 51.1507C94.6794 51.1507 92.978 49.3082 92.978 46.3902V46.3726C92.978 43.4546 94.6882 41.6297 97.2183 41.6297C99.7484 41.6297 101.467 43.4458 101.467 46.3726V46.3902C101.467 49.317 99.7572 51.1507 97.2271 51.1507ZM97.2359 49.7931C98.8492 49.7931 99.8983 48.5412 99.8983 46.3902V46.3726C99.8983 44.2216 98.8404 42.9874 97.2183 42.9874C95.6227 42.9874 94.5472 44.2304 94.5472 46.3726V46.3902C94.5472 48.5501 95.6139 49.7931 97.2359 49.7931ZM110.601 54.2362C108.335 54.2362 106.907 53.1695 106.607 51.8119L106.589 51.7325H108.132L108.167 51.8119C108.458 52.473 109.331 52.8786 110.583 52.8786C112.196 52.8786 113.113 51.9882 113.113 50.5688V49.3964H113.078C112.531 50.4102 111.473 51.0625 110.16 51.0625C107.85 51.0625 106.272 49.2024 106.272 46.3373V46.3285C106.272 43.481 107.868 41.6297 110.195 41.6297C111.491 41.6297 112.514 42.335 113.078 43.3576H113.113V41.8061H114.647V50.7187C114.647 52.8433 113.087 54.2362 110.601 54.2362ZM110.495 49.7049C112.055 49.7049 113.113 48.3737 113.113 46.3373V46.3285C113.113 44.3097 112.046 42.9874 110.495 42.9874C108.864 42.9874 107.841 44.2921 107.841 46.3285V46.3373C107.841 48.4178 108.864 49.7049 110.495 49.7049ZM120.43 51.1507C117.882 51.1507 116.181 49.3082 116.181 46.3902V46.3726C116.181 43.4546 117.891 41.6297 120.421 41.6297C122.951 41.6297 124.67 43.4458 124.67 46.3726V46.3902C124.67 49.317 122.96 51.1507 120.43 51.1507ZM120.439 49.7931C122.052 49.7931 123.101 48.5412 123.101 46.3902V46.3726C123.101 44.2216 122.043 42.9874 120.421 42.9874C118.826 42.9874 117.75 44.2304 117.75 46.3726V46.3902C117.75 48.5501 118.817 49.7931 120.439 49.7931ZM132.904 51.1507C131.22 51.1507 130.392 50.3925 130.392 48.6382V43.0755H129.052V41.8061H130.392V39.3288H131.979V41.8061H133.724V43.0755H131.979V48.6294C131.979 49.6079 132.411 49.8812 133.23 49.8812C133.416 49.8812 133.592 49.8548 133.724 49.846V51.089C133.53 51.1154 133.204 51.1507 132.904 51.1507ZM138.908 51.1507C136.36 51.1507 134.659 49.3082 134.659 46.3902V46.3726C134.659 43.4546 136.369 41.6297 138.899 41.6297C141.429 41.6297 143.148 43.4458 143.148 46.3726V46.3902C143.148 49.317 141.438 51.1507 138.908 51.1507ZM138.917 49.7931C140.53 49.7931 141.579 48.5412 141.579 46.3902V46.3726C141.579 44.2216 140.521 42.9874 138.899 42.9874C137.303 42.9874 136.228 44.2304 136.228 46.3726V46.3902C136.228 48.5501 137.294 49.7931 138.917 49.7931ZM151.082 51.1507C149.257 51.1507 148.032 50.0487 148.032 48.3826V48.3649C148.032 46.8045 149.248 45.826 151.355 45.7026L153.983 45.5527V44.7858C153.983 43.6662 153.251 42.9874 151.973 42.9874C150.791 42.9874 150.051 43.5516 149.874 44.3714L149.857 44.4508H148.376L148.385 44.3538C148.517 42.8463 149.83 41.6297 151.99 41.6297C154.159 41.6297 155.516 42.8022 155.516 44.6359V50.9744H153.983V49.4845H153.947C153.409 50.4895 152.308 51.1507 151.082 51.1507ZM149.601 48.3826C149.601 49.2641 150.324 49.8195 151.426 49.8195C152.872 49.8195 153.983 48.8233 153.983 47.4922V46.7428L151.532 46.8927C150.306 46.9632 149.601 47.5098 149.601 48.3649V48.3826ZM157.465 50.9744V41.8061H158.999V43.1108H159.034C159.528 42.2557 160.462 41.6297 161.855 41.6297C163.865 41.6297 165.029 42.9345 165.029 45.0238V50.9744H163.495V45.2971C163.495 43.8072 162.798 42.9874 161.388 42.9874C159.942 42.9874 158.999 44.0188 158.999 45.5792V50.9744H157.465ZM21.8795 72.9744V63.8061H23.4134V65.3576H23.4487C23.7572 64.2997 24.5506 63.6297 25.5821 63.6297C25.8465 63.6297 26.0757 63.6738 26.1992 63.6914V65.1813C26.0757 65.1372 25.7496 65.0931 25.3793 65.0931C24.1892 65.0931 23.4134 65.9218 23.4134 67.3147V72.9744H21.8795ZM30.8098 73.1507C28.262 73.1507 26.5606 71.3082 26.5606 68.3902V68.3726C26.5606 65.4546 28.2708 63.6297 30.8009 63.6297C33.331 63.6297 35.0501 65.4458 35.0501 68.3726V68.3902C35.0501 71.317 33.3399 73.1507 30.8098 73.1507ZM30.8186 71.7931C32.4318 71.7931 33.4809 70.5412 33.4809 68.3902V68.3726C33.4809 66.2216 32.423 64.9874 30.8009 64.9874C29.2053 64.9874 28.1298 66.2304 28.1298 68.3726V68.3902C28.1298 70.5501 29.1965 71.7931 30.8186 71.7931ZM36.6017 72.9744V63.8061H38.1356V65.146H38.1709C38.5852 64.238 39.502 63.6297 40.6833 63.6297C41.9352 63.6297 42.8608 64.2733 43.2575 65.3929H43.2928C43.8041 64.2909 44.8796 63.6297 46.1667 63.6297C47.9827 63.6297 49.1552 64.8199 49.1552 66.6447V72.9744H47.6213V66.9973C47.6213 65.7367 46.9248 64.9874 45.7171 64.9874C44.5005 64.9874 43.6454 65.8954 43.6454 67.1472V72.9744H42.1115V66.8298C42.1115 65.7191 41.371 64.9874 40.2337 64.9874C39.0172 64.9874 38.1356 65.9483 38.1356 67.2265V72.9744H36.6017ZM53.7923 73.1507C51.9674 73.1507 50.742 72.0487 50.742 70.3826V70.3649C50.742 68.8045 51.9586 67.826 54.0655 67.7026L56.6926 67.5527V66.7858C56.6926 65.6662 55.9609 64.9874 54.6826 64.9874C53.5013 64.9874 52.7608 65.5516 52.5845 66.3714L52.5669 66.4508H51.0858L51.0947 66.3538C51.2269 64.8463 52.5404 63.6297 54.7003 63.6297C56.8689 63.6297 58.2265 64.8022 58.2265 66.6359V72.9744H56.6926V71.4845H56.6573C56.1196 72.4895 55.0176 73.1507 53.7923 73.1507ZM52.3112 70.3826C52.3112 71.2641 53.0341 71.8195 54.1361 71.8195C55.5818 71.8195 56.6926 70.8233 56.6926 69.4922V68.7428L54.2419 68.8927C53.0165 68.9632 52.3112 69.5098 52.3112 70.3649V70.3826ZM60.1748 72.9744V63.8061H61.7087V65.1108H61.744C62.2377 64.2557 63.1721 63.6297 64.565 63.6297C66.575 63.6297 67.7387 64.9345 67.7387 67.0238V72.9744H66.2047V67.2971C66.2047 65.8072 65.5083 64.9874 64.0978 64.9874C62.652 64.9874 61.7087 66.0188 61.7087 67.5792V72.9744H60.1748ZM72.6754 73.1507C70.9917 73.1507 70.163 72.3925 70.163 70.6382V65.0755H68.823V63.8061H70.163V61.3288H71.7498V63.8061H73.4953V65.0755H71.7498V70.6294C71.7498 71.6079 72.1818 71.8812 73.0016 71.8812C73.1868 71.8812 73.3631 71.8548 73.4953 71.846V73.089C73.3014 73.1154 72.9752 73.1507 72.6754 73.1507ZM76.0078 62.2545C75.4788 62.2545 75.0469 61.8225 75.0469 61.2936C75.0469 60.7558 75.4788 60.3327 76.0078 60.3327C76.5455 60.3327 76.9687 60.7558 76.9687 61.2936C76.9687 61.8225 76.5455 62.2545 76.0078 62.2545ZM75.2408 72.9744V63.8061H76.7747V72.9744H75.2408ZM82.6636 73.1507C80.063 73.1507 78.4145 71.2994 78.4145 68.3814V68.3726C78.4145 65.481 80.0983 63.6297 82.646 63.6297C84.9292 63.6297 86.278 65.146 86.472 66.7152L86.4808 66.7858H84.9821L84.9645 66.7152C84.7353 65.7984 83.9948 64.9874 82.646 64.9874C81.0503 64.9874 79.9836 66.3097 79.9836 68.3902V68.399C79.9836 70.5324 81.0768 71.7931 82.6636 71.7931C83.9154 71.7931 84.7177 71.0878 84.9733 70.0652L84.991 69.9947H86.4984L86.4896 70.0564C86.2428 71.8019 84.7353 73.1507 82.6636 73.1507ZM91.8496 72.9744V60.2533H93.4364V72.9744H91.8496ZM98.6465 73.1507C96.9627 73.1507 96.134 72.3925 96.134 70.6382V65.0755H94.794V63.8061H96.134V61.3288H97.7208V63.8061H99.4663V65.0755H97.7208V70.6294C97.7208 71.6079 98.1528 71.8812 98.9726 71.8812C99.1578 71.8812 99.3341 71.8548 99.4663 71.846V73.089C99.2724 73.1154 98.9462 73.1507 98.6465 73.1507ZM103.619 73.1507C101.794 73.1507 100.568 72.0487 100.568 70.3826V70.3649C100.568 68.8045 101.785 67.826 103.892 67.7026L106.519 67.5527V66.7858C106.519 65.6662 105.787 64.9874 104.509 64.9874C103.328 64.9874 102.587 65.5516 102.411 66.3714L102.393 66.4508H100.912L100.921 66.3538C101.053 64.8463 102.367 63.6297 104.527 63.6297C106.695 63.6297 108.053 64.8022 108.053 66.6359V72.9744H106.519V71.4845H106.484C105.946 72.4895 104.844 73.1507 103.619 73.1507ZM102.137 70.3826C102.137 71.2641 102.86 71.8195 103.962 71.8195C105.408 71.8195 106.519 70.8233 106.519 69.4922V68.7428L104.068 68.8927C102.843 68.9632 102.137 69.5098 102.137 70.3649V70.3826ZM110.08 72.9744V60.2533H111.614V72.9744H110.08ZM114.55 62.2545C114.021 62.2545 113.589 61.8225 113.589 61.2936C113.589 60.7558 114.021 60.3327 114.55 60.3327C115.088 60.3327 115.511 60.7558 115.511 61.2936C115.511 61.8225 115.088 62.2545 114.55 62.2545ZM113.783 72.9744V63.8061H115.317V72.9744H113.783ZM120.086 73.1507C118.261 73.1507 117.036 72.0487 117.036 70.3826V70.3649C117.036 68.8045 118.253 67.826 120.359 67.7026L122.987 67.5527V66.7858C122.987 65.6662 122.255 64.9874 120.977 64.9874C119.795 64.9874 119.055 65.5516 118.878 66.3714L118.861 66.4508H117.38L117.389 66.3538C117.521 64.8463 118.834 63.6297 120.994 63.6297C123.163 63.6297 124.52 64.8022 124.52 66.6359V72.9744H122.987V71.4845H122.951C122.414 72.4895 121.312 73.1507 120.086 73.1507ZM118.605 70.3826C118.605 71.2641 119.328 71.8195 120.43 71.8195C121.876 71.8195 122.987 70.8233 122.987 69.4922V68.7428L120.536 68.8927C119.31 68.9632 118.605 69.5098 118.605 70.3649V70.3826ZM126.469 72.9744V63.8061H128.003V65.1108H128.038C128.532 64.2557 129.466 63.6297 130.859 63.6297C132.869 63.6297 134.033 64.9345 134.033 67.0238V72.9744H132.499V67.2971C132.499 65.8072 131.802 64.9874 130.392 64.9874C128.946 64.9874 128.003 66.0188 128.003 67.5792V72.9744H126.469ZM139.692 72.9744V63.8061H141.226V65.3576H141.261C141.57 64.2997 142.363 63.6297 143.395 63.6297C143.659 63.6297 143.889 63.6738 144.012 63.6914V65.1813C143.889 65.1372 143.562 65.0931 143.192 65.0931C142.002 65.0931 141.226 65.9218 141.226 67.3147V72.9744H139.692ZM148.596 73.1507C145.96 73.1507 144.373 71.3082 144.373 68.4255V68.4167C144.373 65.578 145.995 63.6297 148.499 63.6297C151.003 63.6297 152.528 65.4898 152.528 68.2403V68.8045H145.925C145.96 70.6911 147 71.7931 148.631 71.7931C149.795 71.7931 150.615 71.2112 150.879 70.4266L150.906 70.3473H152.413L152.396 70.4354C152.096 71.9517 150.597 73.1507 148.596 73.1507ZM148.49 64.9874C147.159 64.9874 146.119 65.8954 145.951 67.6056H150.968C150.818 65.8248 149.83 64.9874 148.49 64.9874ZM157.332 73.1507C155.173 73.1507 153.868 72.0487 153.683 70.409L153.674 70.3297H155.208L155.226 70.4178C155.411 71.3346 156.089 71.8724 157.341 71.8724C158.584 71.8724 159.325 71.3523 159.325 70.5236V70.5148C159.325 69.8536 158.981 69.4834 157.941 69.2277L156.486 68.8751C154.758 68.4607 153.921 67.6585 153.921 66.3362V66.3273C153.921 64.7493 155.305 63.6297 157.288 63.6297C159.298 63.6297 160.577 64.8022 160.691 66.3362L160.7 66.4508H159.237L159.228 66.389C159.104 65.4987 158.426 64.908 157.288 64.908C156.178 64.908 155.49 65.4458 155.49 66.2568V66.2656C155.49 66.8915 155.904 67.3235 156.918 67.5704L158.373 67.923C160.224 68.3726 160.894 69.1043 160.894 70.409V70.4178C160.894 72.0223 159.378 73.1507 157.332 73.1507ZM165.469 73.1507C163.786 73.1507 162.957 72.3925 162.957 70.6382V65.0755H161.617V63.8061H162.957V61.3288H164.544V63.8061H166.289V65.0755H164.544V70.6294C164.544 71.6079 164.976 71.8812 165.796 71.8812C165.981 71.8812 166.157 71.8548 166.289 71.846V73.089C166.095 73.1154 165.769 73.1507 165.469 73.1507ZM170.441 73.1507C168.617 73.1507 167.391 72.0487 167.391 70.3826V70.3649C167.391 68.8045 168.608 67.826 170.715 67.7026L173.342 67.5527V66.7858C173.342 65.6662 172.61 64.9874 171.332 64.9874C170.15 64.9874 169.41 65.5516 169.234 66.3714L169.216 66.4508H167.735L167.744 66.3538C167.876 64.8463 169.19 63.6297 171.349 63.6297C173.518 63.6297 174.876 64.8022 174.876 66.6359V72.9744H173.342V71.4845H173.306C172.769 72.4895 171.667 73.1507 170.441 73.1507ZM168.96 70.3826C168.96 71.2641 169.683 71.8195 170.785 71.8195C172.231 71.8195 173.342 70.8233 173.342 69.4922V68.7428L170.891 68.8927C169.666 68.9632 168.96 69.5098 168.96 70.3649V70.3826ZM179.954 73.1507C177.944 73.1507 176.78 71.846 176.78 69.7566V63.8061H178.314V69.4834C178.314 70.9732 179.01 71.7931 180.421 71.7931C181.867 71.7931 182.81 70.7616 182.81 69.2013V63.8061H184.344V72.9744H182.81V71.6696H182.775C182.281 72.5248 181.346 73.1507 179.954 73.1507ZM186.345 72.9744V63.8061H187.879V65.3576H187.914C188.223 64.2997 189.016 63.6297 190.047 63.6297C190.312 63.6297 190.541 63.6738 190.665 63.6914V65.1813C190.541 65.1372 190.215 65.0931 189.845 65.0931C188.655 65.0931 187.879 65.9218 187.879 67.3147V72.9744H186.345ZM194.42 73.1507C192.595 73.1507 191.37 72.0487 191.37 70.3826V70.3649C191.37 68.8045 192.586 67.826 194.693 67.7026L197.32 67.5527V66.7858C197.32 65.6662 196.589 64.9874 195.31 64.9874C194.129 64.9874 193.389 65.5516 193.212 66.3714L193.195 66.4508H191.714L191.722 66.3538C191.855 64.8463 193.168 63.6297 195.328 63.6297C197.497 63.6297 198.854 64.8022 198.854 66.6359V72.9744H197.32V71.4845H197.285C196.747 72.4895 195.645 73.1507 194.42 73.1507ZM192.939 70.3826C192.939 71.2641 193.662 71.8195 194.764 71.8195C196.21 71.8195 197.32 70.8233 197.32 69.4922V68.7428L194.87 68.8927C193.644 68.9632 192.939 69.5098 192.939 70.3649V70.3826ZM200.803 72.9744V63.8061H202.337V65.1108H202.372C202.865 64.2557 203.8 63.6297 205.193 63.6297C207.203 63.6297 208.366 64.9345 208.366 67.0238V72.9744H206.833V67.2971C206.833 65.8072 206.136 64.9874 204.726 64.9874C203.28 64.9874 202.337 66.0188 202.337 67.5792V72.9744H200.803ZM213.303 73.1507C211.619 73.1507 210.791 72.3925 210.791 70.6382V65.0755H209.451V63.8061H210.791V61.3288H212.378V63.8061H214.123V65.0755H212.378V70.6294C212.378 71.6079 212.81 71.8812 213.629 71.8812C213.815 71.8812 213.991 71.8548 214.123 71.846V73.089C213.929 73.1154 213.603 73.1507 213.303 73.1507ZM216.715 73.0978C216.151 73.0978 215.71 72.657 215.71 72.0928C215.71 71.5286 216.151 71.0878 216.715 71.0878C217.279 71.0878 217.72 71.5286 217.72 72.0928C217.72 72.657 217.279 73.0978 216.715 73.0978Z" fill="white"/>
</svg>
