<svg width="335" height="97" viewBox="0 0 335 97" fill="none" xmlns="http://www.w3.org/2000/svg">
<g filter="url(#filter0_d_5_7904)">
<rect x="2.68164" y="58.8178" width="33.5298" height="32.8972" rx="16.4486" fill="#FF5E54" shape-rendering="crispEdges"/>
<g filter="url(#filter1_d_5_7904)">
<rect x="2.68164" y="58.8178" width="33.5298" height="32.8972" rx="16.4486" fill="#FF5E54" shape-rendering="crispEdges"/>
<g filter="url(#filter2_d_5_7904)">
<rect x="2.68164" y="58.8178" width="33.5298" height="32.8972" rx="16.4486" fill="#FF5E54" shape-rendering="crispEdges"/>
<path d="M13.0522 82.2015C12.3071 82.203 11.569 82.0575 10.8803 81.7733C10.1916 81.4891 9.56602 81.0718 9.0394 80.5453L8.85792 80.3641C8.32923 79.8391 7.91005 79.2147 7.62467 78.5268C7.33929 77.839 7.19336 77.1015 7.19534 76.357C7.19315 75.6122 7.33897 74.8744 7.62436 74.1862C7.90975 73.4981 8.32903 72.8734 8.85792 72.3482L9.0394 72.167C9.56511 71.6391 10.1905 71.2205 10.8793 70.9355C11.5681 70.6505 12.3066 70.5048 13.0522 70.5068C13.7978 70.5048 14.5364 70.6505 15.2252 70.9355C15.914 71.2205 16.5393 71.6391 17.0651 72.167L23.5795 78.6681C24.1953 79.2811 25.0293 79.6253 25.8988 79.6253C26.7683 79.6253 27.6023 79.2811 28.2181 78.6681C28.832 78.0532 29.1767 77.2204 29.1767 76.3521C29.1767 75.4839 28.832 74.651 28.2181 74.0361L26.0705 71.8915L22.8389 75.1193L21.0551 73.338L26.0714 68.3314L30.0004 72.2564C31.0874 73.344 31.6979 74.8179 31.6979 76.3546C31.6979 77.8912 31.0874 79.365 30.0004 80.4527C29.4627 80.9924 28.8233 81.4202 28.119 81.7115C27.4146 82.0027 26.6595 82.1516 25.8972 82.1495C25.1347 82.1517 24.3794 82.0029 23.675 81.7116C22.9705 81.4204 22.3309 80.9925 21.7932 80.4527L15.2788 73.9475C14.9868 73.6542 14.6395 73.4216 14.2568 73.2633C13.8742 73.105 13.4639 73.024 13.0498 73.0252C12.6356 73.024 12.2254 73.105 11.8427 73.2633C11.4601 73.4216 11.1128 73.6542 10.8208 73.9475L10.6393 74.1287C10.3456 74.4203 10.1127 74.7671 9.95414 75.1492C9.79558 75.5313 9.71453 75.941 9.71566 76.3546C9.71453 76.7681 9.79558 77.1778 9.95414 77.5599C10.1127 77.9419 10.3456 78.2888 10.6393 78.5804L10.8208 78.7616C11.4123 79.3512 12.214 79.6824 13.0498 79.6824C13.8856 79.6824 14.6872 79.3512 15.2788 78.7616L16.2797 77.762L18.0636 79.5433L17.0626 80.5429C16.5364 81.0694 15.9113 81.487 15.2231 81.7716C14.5349 82.0562 13.7971 82.2023 13.0522 82.2015Z" fill="white"/>
</g>
</g>
</g>
<path d="M52.9766 26.5776C52.9766 12.3329 64.5241 0.7854 78.7687 0.7854H308.319C322.564 0.7854 334.111 12.333 334.111 26.5776V66.5554C334.111 80.8001 322.564 92.3476 308.319 92.3476H52.9766V26.5776Z" fill="white"/>
<path d="M52.9766 26.5776C52.9766 12.3329 64.5241 0.7854 78.7687 0.7854H308.319C322.564 0.7854 334.111 12.333 334.111 26.5776V66.5554C334.111 80.8001 322.564 92.3476 308.319 92.3476H52.9766V26.5776Z" fill="#283047" fill-opacity="0.05"/>
<path d="M64.7781 30.5665V17.8455H66.365V30.5665H64.7781ZM71.575 30.7428C69.8912 30.7428 69.0626 29.9847 69.0626 28.2304V22.6677H67.7226V21.3982H69.0626V18.921H70.6494V21.3982H72.3949V22.6677H70.6494V28.2216C70.6494 29.2001 71.0814 29.4734 71.9012 29.4734C72.0863 29.4734 72.2627 29.4469 72.3949 29.4381V30.6811C72.2009 30.7076 71.8748 30.7428 71.575 30.7428ZM76.5471 30.7428C74.7222 30.7428 73.4969 29.6409 73.4969 27.9747V27.9571C73.4969 26.3967 74.7134 25.4182 76.8204 25.2947L79.4474 25.1449V24.3779C79.4474 23.2583 78.7157 22.5795 77.4375 22.5795C76.2562 22.5795 75.5156 23.1437 75.3393 23.9636L75.3217 24.0429H73.8407L73.8495 23.9459C73.9817 22.4385 75.2953 21.2219 77.4551 21.2219C79.6238 21.2219 80.9814 22.3944 80.9814 24.2281V30.5665H79.4474V29.0767H79.4122C78.8744 30.0817 77.7725 30.7428 76.5471 30.7428ZM75.066 27.9747C75.066 28.8563 75.7889 29.4117 76.8909 29.4117C78.3367 29.4117 79.4474 28.4155 79.4474 27.0843V26.335L76.9967 26.4849C75.7713 26.5554 75.066 27.102 75.066 27.9571V27.9747ZM83.009 30.5665V17.8455H84.5429V30.5665H83.009ZM87.4785 19.8467C86.9496 19.8467 86.5176 19.4147 86.5176 18.8857C86.5176 18.348 86.9496 17.9248 87.4785 17.9248C88.0163 17.9248 88.4394 18.348 88.4394 18.8857C88.4394 19.4147 88.0163 19.8467 87.4785 19.8467ZM86.7116 30.5665V21.3982H88.2455V30.5665H86.7116ZM93.0148 30.7428C91.1899 30.7428 89.9646 29.6409 89.9646 27.9747V27.9571C89.9646 26.3967 91.1811 25.4182 93.2881 25.2947L95.9151 25.1449V24.3779C95.9151 23.2583 95.1834 22.5795 93.9052 22.5795C92.7239 22.5795 91.9833 23.1437 91.807 23.9636L91.7894 24.0429H90.3084L90.3172 23.9459C90.4494 22.4385 91.763 21.2219 93.9228 21.2219C96.0915 21.2219 97.4491 22.3944 97.4491 24.2281V30.5665H95.9151V29.0767H95.8799C95.3421 30.0817 94.2402 30.7428 93.0148 30.7428ZM91.5337 27.9747C91.5337 28.8563 92.2566 29.4117 93.3586 29.4117C94.8044 29.4117 95.9151 28.4155 95.9151 27.0843V26.335L93.4644 26.4849C92.239 26.5554 91.5337 27.102 91.5337 27.9571V27.9747ZM99.3973 30.5665V21.3982H100.931V22.7029H100.967C101.46 21.8478 102.395 21.2219 103.788 21.2219C105.798 21.2219 106.961 22.5266 106.961 24.6159V30.5665H105.427V24.8892C105.427 23.3994 104.731 22.5795 103.32 22.5795C101.875 22.5795 100.931 23.611 100.931 25.1713V30.5665H99.3973ZM113.115 30.5665V22.6677H111.836V21.3982H113.115V20.2698C113.115 18.5067 113.934 17.6692 115.627 17.6692C115.971 17.6692 116.332 17.6956 116.561 17.7309V18.9739C116.376 18.9475 116.138 18.9386 115.9 18.9386C115.054 18.9386 114.631 19.3706 114.631 20.2786V21.3982H116.517V22.6677H114.648V30.5665H113.115ZM121.022 30.7428C118.474 30.7428 116.773 28.9004 116.773 25.9824V25.9647C116.773 23.0467 118.483 21.2219 121.013 21.2219C123.543 21.2219 125.263 23.0379 125.263 25.9647V25.9824C125.263 28.9092 123.552 30.7428 121.022 30.7428ZM121.031 29.3852C122.644 29.3852 123.693 28.1334 123.693 25.9824V25.9647C123.693 23.8137 122.635 22.5795 121.013 22.5795C119.418 22.5795 118.342 23.8225 118.342 25.9647V25.9824C118.342 28.1422 119.409 29.3852 121.031 29.3852ZM130.614 30.7428C128.066 30.7428 126.365 28.9004 126.365 25.9824V25.9647C126.365 23.0467 128.075 21.2219 130.605 21.2219C133.135 21.2219 134.854 23.0379 134.854 25.9647V25.9824C134.854 28.9092 133.144 30.7428 130.614 30.7428ZM130.622 29.3852C132.236 29.3852 133.285 28.1334 133.285 25.9824V25.9647C133.285 23.8137 132.227 22.5795 130.605 22.5795C129.009 22.5795 127.934 23.8225 127.934 25.9647V25.9824C127.934 28.1422 129 29.3852 130.622 29.3852ZM139.853 30.7428C137.508 30.7428 135.956 28.8739 135.956 25.9824V25.9736C135.956 23.082 137.525 21.2219 139.826 21.2219C141.122 21.2219 142.189 21.8743 142.762 22.9321H142.797V17.8455H144.331V30.5665H142.797V29.015H142.762C142.189 30.0817 141.166 30.7428 139.853 30.7428ZM140.152 29.3852C141.704 29.3852 142.806 28.0364 142.806 25.9824V25.9736C142.806 23.9283 141.695 22.5795 140.152 22.5795C138.53 22.5795 137.525 23.8842 137.525 25.9736V25.9824C137.525 28.0893 138.53 29.3852 140.152 29.3852ZM150.969 19.8467C150.44 19.8467 150.008 19.4147 150.008 18.8857C150.008 18.348 150.44 17.9248 150.969 17.9248C151.507 17.9248 151.93 18.348 151.93 18.8857C151.93 19.4147 151.507 19.8467 150.969 19.8467ZM150.202 30.5665V21.3982H151.736V30.5665H150.202ZM157.078 30.7428C154.919 30.7428 153.614 29.6409 153.429 28.0012L153.42 27.9218H154.954L154.971 28.01C155.157 28.9268 155.835 29.4646 157.087 29.4646C158.33 29.4646 159.071 28.9444 159.071 28.1158V28.107C159.071 27.4458 158.727 27.0755 157.687 26.8199L156.232 26.4672C154.504 26.0529 153.667 25.2507 153.667 23.9283V23.9195C153.667 22.3415 155.051 21.2219 157.034 21.2219C159.044 21.2219 160.323 22.3944 160.437 23.9283L160.446 24.0429H158.983L158.974 23.9812C158.85 23.0908 158.172 22.5002 157.034 22.5002C155.924 22.5002 155.236 23.0379 155.236 23.849V23.8578C155.236 24.4837 155.65 24.9157 156.664 25.1625L158.119 25.5151C159.97 25.9647 160.64 26.6964 160.64 28.0012V28.01C160.64 29.6144 159.124 30.7428 157.078 30.7428ZM168.618 30.7428C166.793 30.7428 165.568 29.6409 165.568 27.9747V27.9571C165.568 26.3967 166.784 25.4182 168.891 25.2947L171.518 25.1449V24.3779C171.518 23.2583 170.787 22.5795 169.508 22.5795C168.327 22.5795 167.587 23.1437 167.41 23.9636L167.393 24.0429H165.912L165.92 23.9459C166.053 22.4385 167.366 21.2219 169.526 21.2219C171.695 21.2219 173.052 22.3944 173.052 24.2281V30.5665H171.518V29.0767H171.483C170.945 30.0817 169.843 30.7428 168.618 30.7428ZM167.137 27.9747C167.137 28.8563 167.86 29.4117 168.962 29.4117C170.408 29.4117 171.518 28.4155 171.518 27.0843V26.335L169.068 26.4849C167.842 26.5554 167.137 27.102 167.137 27.9571V27.9747ZM182.582 33.8283C180.317 33.8283 178.888 32.7616 178.589 31.404L178.571 31.3247H180.114L180.149 31.404C180.44 32.0652 181.313 32.4707 182.565 32.4707C184.178 32.4707 185.095 31.5803 185.095 30.161V28.9885H185.059C184.513 30.0023 183.455 30.6547 182.141 30.6547C179.832 30.6547 178.254 28.7946 178.254 25.9295V25.9207C178.254 23.0732 179.849 21.2219 182.177 21.2219C183.473 21.2219 184.495 21.9272 185.059 22.9498H185.095V21.3982H186.629V30.3109C186.629 32.4355 185.068 33.8283 182.582 33.8283ZM182.476 29.2971C184.037 29.2971 185.095 27.9659 185.095 25.9295V25.9207C185.095 23.9019 184.028 22.5795 182.476 22.5795C180.845 22.5795 179.823 23.8842 179.823 25.9207V25.9295C179.823 28.01 180.845 29.2971 182.476 29.2971ZM188.612 30.5665V21.3982H190.146V22.9498H190.181C190.49 21.8919 191.283 21.2219 192.315 21.2219C192.579 21.2219 192.808 21.266 192.932 21.2836V22.7735C192.808 22.7294 192.482 22.6853 192.112 22.6853C190.922 22.6853 190.146 23.514 190.146 24.9069V30.5665H188.612ZM197.516 30.7428C194.88 30.7428 193.293 28.9004 193.293 26.0176V26.0088C193.293 23.1702 194.915 21.2219 197.419 21.2219C199.923 21.2219 201.448 23.082 201.448 25.8325V26.3967H194.845C194.88 28.2833 195.92 29.3852 197.551 29.3852C198.715 29.3852 199.535 28.8034 199.799 28.0188L199.826 27.9395H201.333L201.315 28.0276C201.016 29.5439 199.517 30.7428 197.516 30.7428ZM197.41 22.5795C196.079 22.5795 195.039 23.4875 194.871 25.1978H199.887C199.737 23.417 198.75 22.5795 197.41 22.5795ZM205.679 30.7428C203.854 30.7428 202.629 29.6409 202.629 27.9747V27.9571C202.629 26.3967 203.846 25.4182 205.953 25.2947L208.58 25.1449V24.3779C208.58 23.2583 207.848 22.5795 206.57 22.5795C205.388 22.5795 204.648 23.1437 204.471 23.9636L204.454 24.0429H202.973L202.982 23.9459C203.114 22.4385 204.427 21.2219 206.587 21.2219C208.756 21.2219 210.114 22.3944 210.114 24.2281V30.5665H208.58V29.0767H208.544C208.007 30.0817 206.905 30.7428 205.679 30.7428ZM204.198 27.9747C204.198 28.8563 204.921 29.4117 206.023 29.4117C207.469 29.4117 208.58 28.4155 208.58 27.0843V26.335L206.129 26.4849C204.903 26.5554 204.198 27.102 204.198 27.9571V27.9747ZM215.041 30.7428C213.358 30.7428 212.529 29.9847 212.529 28.2304V22.6677H211.189V21.3982H212.529V18.921H214.116V21.3982H215.861V22.6677H214.116V28.2216C214.116 29.2001 214.548 29.4734 215.368 29.4734C215.553 29.4734 215.729 29.4469 215.861 29.4381V30.6811C215.667 30.7076 215.341 30.7428 215.041 30.7428ZM225.012 30.7428C222.411 30.7428 220.763 28.8915 220.763 25.9736V25.9647C220.763 23.0732 222.447 21.2219 224.994 21.2219C227.278 21.2219 228.626 22.7382 228.82 24.3074L228.829 24.3779H227.331L227.313 24.3074C227.084 23.3906 226.343 22.5795 224.994 22.5795C223.399 22.5795 222.332 23.9019 222.332 25.9824V25.9912C222.332 28.1246 223.425 29.3852 225.012 29.3852C226.264 29.3852 227.066 28.68 227.322 27.6574L227.339 27.5868H228.847L228.838 27.6485C228.591 29.394 227.084 30.7428 225.012 30.7428ZM230.337 30.5665V17.8455H231.871V22.8616H231.906C232.4 21.8302 233.396 21.2219 234.762 21.2219C236.71 21.2219 238.042 22.7294 238.042 24.9509V30.5665H236.508V25.2154C236.508 23.5581 235.661 22.5795 234.233 22.5795C232.814 22.5795 231.871 23.655 231.871 25.2154V30.5665H230.337ZM243.789 30.7428C241.242 30.7428 239.54 28.9004 239.54 25.9824V25.9647C239.54 23.0467 241.251 21.2219 243.781 21.2219C246.311 21.2219 248.03 23.0379 248.03 25.9647V25.9824C248.03 28.9092 246.32 30.7428 243.789 30.7428ZM243.798 29.3852C245.412 29.3852 246.461 28.1334 246.461 25.9824V25.9647C246.461 23.8137 245.403 22.5795 243.781 22.5795C242.185 22.5795 241.109 23.8225 241.109 25.9647V25.9824C241.109 28.1422 242.176 29.3852 243.798 29.3852ZM250.445 19.8467C249.916 19.8467 249.484 19.4147 249.484 18.8857C249.484 18.348 249.916 17.9248 250.445 17.9248C250.983 17.9248 251.406 18.348 251.406 18.8857C251.406 19.4147 250.983 19.8467 250.445 19.8467ZM249.678 30.5665V21.3982H251.212V30.5665H249.678ZM257.101 30.7428C254.5 30.7428 252.852 28.8915 252.852 25.9736V25.9647C252.852 23.0732 254.536 21.2219 257.083 21.2219C259.367 21.2219 260.716 22.7382 260.909 24.3074L260.918 24.3779H259.42L259.402 24.3074C259.173 23.3906 258.432 22.5795 257.083 22.5795C255.488 22.5795 254.421 23.9019 254.421 25.9824V25.9912C254.421 28.1246 255.514 29.3852 257.101 29.3852C258.353 29.3852 259.155 28.68 259.411 27.6574L259.428 27.5868H260.936L260.927 27.6485C260.68 29.394 259.173 30.7428 257.101 30.7428ZM266.12 30.7428C263.484 30.7428 261.897 28.9004 261.897 26.0176V26.0088C261.897 23.1702 263.519 21.2219 266.023 21.2219C268.526 21.2219 270.051 23.082 270.051 25.8325V26.3967H263.448C263.484 28.2833 264.524 29.3852 266.155 29.3852C267.318 29.3852 268.138 28.8034 268.403 28.0188L268.429 27.9395H269.937L269.919 28.0276C269.619 29.5439 268.121 30.7428 266.12 30.7428ZM266.014 22.5795C264.683 22.5795 263.642 23.4875 263.475 25.1978H268.491C268.341 23.417 267.354 22.5795 266.014 22.5795ZM272.326 26.3438L272.22 17.8455H273.807L273.701 26.3438H272.326ZM273.013 30.6547C272.449 30.6547 272.008 30.2139 272.008 29.6497C272.008 29.0767 272.449 28.6447 273.013 28.6447C273.586 28.6447 274.018 29.0767 274.018 29.6497C274.018 30.2139 273.586 30.6547 273.013 30.6547ZM64.7781 52.5665V39.8455H66.365V52.5665H64.7781ZM69.3359 44.3327L69.1595 39.8455H70.6229L70.4466 44.3327H69.3359ZM73.2588 52.5665V39.8455H74.7928V52.5665H73.2588ZM76.9438 52.5665V39.8455H78.4777V52.5665H76.9438ZM87.505 52.7428C85.3451 52.7428 84.0404 51.6409 83.8553 50.0012L83.8465 49.9218H85.3804L85.398 50.01C85.5832 50.9268 86.262 51.4646 87.5138 51.4646C88.7568 51.4646 89.4973 50.9444 89.4973 50.1158V50.107C89.4973 49.4458 89.1535 49.0755 88.1133 48.8199L86.6587 48.4672C84.9308 48.0529 84.0933 47.2507 84.0933 45.9283V45.9195C84.0933 44.3415 85.4774 43.2219 87.4609 43.2219C89.4709 43.2219 90.7491 44.3944 90.8638 45.9283L90.8726 46.0429H89.4092L89.4003 45.9812C89.2769 45.0908 88.5981 44.5002 87.4609 44.5002C86.3501 44.5002 85.6625 45.0379 85.6625 45.849V45.8578C85.6625 46.4837 86.0768 46.9157 87.0906 47.1625L88.5452 47.5151C90.3965 47.9647 91.0665 48.6964 91.0665 50.0012V50.01C91.0665 51.6144 89.5502 52.7428 87.505 52.7428ZM95.7917 52.7428C93.7817 52.7428 92.6181 51.4381 92.6181 49.3488V43.3982H94.152V49.0755C94.152 50.5654 94.8484 51.3852 96.259 51.3852C97.7047 51.3852 98.648 50.3538 98.648 48.7934V43.3982H100.182V52.5665H98.648V51.2618H98.6127C98.1191 52.1169 97.1846 52.7428 95.7917 52.7428ZM106.062 55.8283C103.796 55.8283 102.368 54.7616 102.068 53.404L102.051 53.3247H103.594L103.629 53.404C103.92 54.0652 104.793 54.4707 106.044 54.4707C107.658 54.4707 108.574 53.5803 108.574 52.161V50.9885H108.539C107.993 52.0023 106.935 52.6547 105.621 52.6547C103.311 52.6547 101.733 50.7946 101.733 47.9295V47.9207C101.733 45.0732 103.329 43.2219 105.656 43.2219C106.952 43.2219 107.975 43.9272 108.539 44.9498H108.574V43.3982H110.108V52.3109C110.108 54.4355 108.548 55.8283 106.062 55.8283ZM105.956 51.2971C107.517 51.2971 108.574 49.9659 108.574 47.9295V47.9207C108.574 45.9019 107.508 44.5795 105.956 44.5795C104.325 44.5795 103.303 45.8842 103.303 47.9207V47.9295C103.303 50.01 104.325 51.2971 105.956 51.2971ZM115.971 55.8283C113.705 55.8283 112.277 54.7616 111.977 53.404L111.96 53.3247H113.502L113.538 53.404C113.829 54.0652 114.701 54.4707 115.953 54.4707C117.566 54.4707 118.483 53.5803 118.483 52.161V50.9885H118.448C117.901 52.0023 116.844 52.6547 115.53 52.6547C113.22 52.6547 111.642 50.7946 111.642 47.9295V47.9207C111.642 45.0732 113.238 43.2219 115.565 43.2219C116.861 43.2219 117.884 43.9272 118.448 44.9498H118.483V43.3982H120.017V52.3109C120.017 54.4355 118.457 55.8283 115.971 55.8283ZM115.865 51.2971C117.425 51.2971 118.483 49.9659 118.483 47.9295V47.9207C118.483 45.9019 117.417 44.5795 115.865 44.5795C114.234 44.5795 113.212 45.8842 113.212 47.9207V47.9295C113.212 50.01 114.234 51.2971 115.865 51.2971ZM125.774 52.7428C123.138 52.7428 121.551 50.9004 121.551 48.0176V48.0088C121.551 45.1702 123.173 43.2219 125.677 43.2219C128.181 43.2219 129.706 45.082 129.706 47.8325V48.3967H123.103C123.138 50.2833 124.178 51.3852 125.809 51.3852C126.973 51.3852 127.793 50.8034 128.057 50.0188L128.084 49.9395H129.591L129.573 50.0276C129.274 51.5439 127.775 52.7428 125.774 52.7428ZM125.668 44.5795C124.337 44.5795 123.297 45.4875 123.129 47.1978H128.145C127.995 45.417 127.008 44.5795 125.668 44.5795ZM134.51 52.7428C132.35 52.7428 131.046 51.6409 130.861 50.0012L130.852 49.9218H132.386L132.403 50.01C132.588 50.9268 133.267 51.4646 134.519 51.4646C135.762 51.4646 136.503 50.9444 136.503 50.1158V50.107C136.503 49.4458 136.159 49.0755 135.118 48.8199L133.664 48.4672C131.936 48.0529 131.099 47.2507 131.099 45.9283V45.9195C131.099 44.3415 132.483 43.2219 134.466 43.2219C136.476 43.2219 137.754 44.3944 137.869 45.9283L137.878 46.0429H136.414L136.406 45.9812C136.282 45.0908 135.603 44.5002 134.466 44.5002C133.355 44.5002 132.668 45.0379 132.668 45.849V45.8578C132.668 46.4837 133.082 46.9157 134.096 47.1625L135.55 47.5151C137.402 47.9647 138.072 48.6964 138.072 50.0012V50.01C138.072 51.6144 136.555 52.7428 134.51 52.7428ZM142.647 52.7428C140.963 52.7428 140.135 51.9847 140.135 50.2304V44.6677H138.795V43.3982H140.135V40.921H141.721V43.3982H143.467V44.6677H141.721V50.2216C141.721 51.2001 142.153 51.4734 142.973 51.4734C143.158 51.4734 143.335 51.4469 143.467 51.4381V52.6811C143.273 52.7076 142.947 52.7428 142.647 52.7428ZM148.818 55.652V43.3982H150.352V44.9498H150.387C150.96 43.8831 151.983 43.2219 153.296 43.2219C155.641 43.2219 157.193 45.0908 157.193 47.9824V47.9912C157.193 50.8827 155.624 52.7428 153.323 52.7428C152.027 52.7428 150.96 52.0905 150.387 51.0326H150.352V55.652H148.818ZM152.997 51.3852C154.619 51.3852 155.624 50.0805 155.624 47.9912V47.9824C155.624 45.8754 154.619 44.5795 152.997 44.5795C151.445 44.5795 150.343 45.9283 150.343 47.9824V47.9912C150.343 50.0364 151.454 51.3852 152.997 51.3852ZM158.824 52.5665V39.8455H160.358V52.5665H158.824ZM165.109 52.7428C163.285 52.7428 162.059 51.6409 162.059 49.9747V49.9571C162.059 48.3967 163.276 47.4182 165.383 47.2947L168.01 47.1449V46.3779C168.01 45.2583 167.278 44.5795 166 44.5795C164.819 44.5795 164.078 45.1437 163.902 45.9636L163.884 46.0429H162.403L162.412 45.9459C162.544 44.4385 163.858 43.2219 166.017 43.2219C168.186 43.2219 169.544 44.3944 169.544 46.2281V52.5665H168.01V51.0767H167.975C167.437 52.0817 166.335 52.7428 165.109 52.7428ZM163.628 49.9747C163.628 50.8563 164.351 51.4117 165.453 51.4117C166.899 51.4117 168.01 50.4155 168.01 49.0843V48.335L165.559 48.4849C164.334 48.5554 163.628 49.102 163.628 49.9571V49.9747ZM175.292 52.7428C172.691 52.7428 171.042 50.8915 171.042 47.9736V47.9647C171.042 45.0732 172.726 43.2219 175.274 43.2219C177.557 43.2219 178.906 44.7382 179.1 46.3074L179.109 46.3779H177.61L177.592 46.3074C177.363 45.3906 176.623 44.5795 175.274 44.5795C173.678 44.5795 172.612 45.9019 172.612 47.9824V47.9912C172.612 50.1246 173.705 51.3852 175.292 51.3852C176.543 51.3852 177.346 50.68 177.601 49.6574L177.619 49.5868H179.126L179.118 49.6485C178.871 51.394 177.363 52.7428 175.292 52.7428ZM184.31 52.7428C181.674 52.7428 180.087 50.9004 180.087 48.0176V48.0088C180.087 45.1702 181.709 43.2219 184.213 43.2219C186.717 43.2219 188.242 45.082 188.242 47.8325V48.3967H181.639C181.674 50.2833 182.714 51.3852 184.345 51.3852C185.509 51.3852 186.329 50.8034 186.593 50.0188L186.62 49.9395H188.127L188.11 50.0276C187.81 51.5439 186.311 52.7428 184.31 52.7428ZM184.204 44.5795C182.873 44.5795 181.833 45.4875 181.665 47.1978H186.681C186.532 45.417 185.544 44.5795 184.204 44.5795ZM193.046 52.7428C190.887 52.7428 189.582 51.6409 189.397 50.0012L189.388 49.9218H190.922L190.939 50.01C191.125 50.9268 191.803 51.4646 193.055 51.4646C194.298 51.4646 195.039 50.9444 195.039 50.1158V50.107C195.039 49.4458 194.695 49.0755 193.655 48.8199L192.2 48.4672C190.472 48.0529 189.635 47.2507 189.635 45.9283V45.9195C189.635 44.3415 191.019 43.2219 193.002 43.2219C195.012 43.2219 196.291 44.3944 196.405 45.9283L196.414 46.0429H194.951L194.942 45.9812C194.818 45.0908 194.139 44.5002 193.002 44.5002C191.891 44.5002 191.204 45.0379 191.204 45.849V45.8578C191.204 46.4837 191.618 46.9157 192.632 47.1625L194.087 47.5151C195.938 47.9647 196.608 48.6964 196.608 50.0012V50.01C196.608 51.6144 195.092 52.7428 193.046 52.7428ZM202.788 55.652C202.488 55.652 202.162 55.6168 201.968 55.5815V54.3297C202.1 54.3561 202.276 54.3826 202.462 54.3826C203.431 54.3826 203.969 54.1357 204.339 53.0955L204.524 52.5753L201.122 43.3982H202.761L205.291 51.0326H205.327L207.866 43.3982H209.479L205.9 53.1395C205.247 54.8939 204.445 55.652 202.788 55.652ZM214.133 52.7428C211.586 52.7428 209.884 50.9004 209.884 47.9824V47.9647C209.884 45.0467 211.595 43.2219 214.125 43.2219C216.655 43.2219 218.374 45.0379 218.374 47.9647V47.9824C218.374 50.9092 216.664 52.7428 214.133 52.7428ZM214.142 51.3852C215.756 51.3852 216.805 50.1334 216.805 47.9824V47.9647C216.805 45.8137 215.747 44.5795 214.125 44.5795C212.529 44.5795 211.454 45.8225 211.454 47.9647V47.9824C211.454 50.1422 212.52 51.3852 214.142 51.3852ZM223.055 52.7428C221.045 52.7428 219.881 51.4381 219.881 49.3488V43.3982H221.415V49.0755C221.415 50.5654 222.112 51.3852 223.522 51.3852C224.968 51.3852 225.911 50.3538 225.911 48.7934V43.3982H227.445V52.5665H225.911V51.2618H225.876C225.382 52.1169 224.448 52.7428 223.055 52.7428ZM237.707 52.7428C236.393 52.7428 235.37 52.0817 234.797 51.015H234.762V52.5665H233.228V39.8455H234.762V44.9321H234.797C235.37 43.8743 236.437 43.2219 237.733 43.2219C240.034 43.2219 241.603 45.082 241.603 47.9736V47.9824C241.603 50.8739 240.052 52.7428 237.707 52.7428ZM237.407 51.3852C239.029 51.3852 240.034 50.0893 240.034 47.9824V47.9736C240.034 45.8842 239.029 44.5795 237.407 44.5795C235.864 44.5795 234.753 45.9283 234.753 47.9736V47.9824C234.753 50.0364 235.855 51.3852 237.407 51.3852ZM246.945 52.7428C244.398 52.7428 242.696 50.9004 242.696 47.9824V47.9647C242.696 45.0467 244.407 43.2219 246.937 43.2219C249.467 43.2219 251.186 45.0379 251.186 47.9647V47.9824C251.186 50.9092 249.476 52.7428 246.945 52.7428ZM246.954 51.3852C248.568 51.3852 249.617 50.1334 249.617 47.9824V47.9647C249.617 45.8137 248.559 44.5795 246.937 44.5795C245.341 44.5795 244.265 45.8225 244.265 47.9647V47.9824C244.265 50.1422 245.332 51.3852 246.954 51.3852ZM255.717 52.7428C254.033 52.7428 253.205 51.9847 253.205 50.2304V44.6677H251.865V43.3982H253.205V40.921H254.791V43.3982H256.537V44.6677H254.791V50.2216C254.791 51.2001 255.223 51.4734 256.043 51.4734C256.228 51.4734 256.405 51.4469 256.537 51.4381V52.6811C256.343 52.7076 256.017 52.7428 255.717 52.7428ZM258.265 52.5665V39.8455H259.799V44.8616H259.834C260.328 43.8302 261.324 43.2219 262.69 43.2219C264.639 43.2219 265.97 44.7294 265.97 46.9509V52.5665H264.436V47.2154C264.436 45.5581 263.589 44.5795 262.161 44.5795C260.742 44.5795 259.799 45.655 259.799 47.2154V52.5665H258.265ZM273.437 52.5665L270.871 43.3982H272.396L274.23 50.8563H274.265L276.337 43.3982H277.818L279.898 50.8563H279.934L281.767 43.3982H283.284L280.727 52.5665H279.167L277.095 45.4699H277.06L274.997 52.5665H273.437ZM285.408 41.8467C284.879 41.8467 284.447 41.4147 284.447 40.8857C284.447 40.348 284.879 39.9248 285.408 39.9248C285.946 39.9248 286.369 40.348 286.369 40.8857C286.369 41.4147 285.946 41.8467 285.408 41.8467ZM284.641 52.5665V43.3982H286.175V52.5665H284.641ZM288.344 52.5665V39.8455H289.878V52.5665H288.344ZM292.029 52.5665V39.8455H293.563V52.5665H292.029ZM64.6195 74.5665V61.8455H66.1534V74.5665H64.6195ZM72.0246 74.7428C69.4769 74.7428 67.7755 72.9004 67.7755 69.9824V69.9647C67.7755 67.0467 69.4857 65.2219 72.0158 65.2219C74.5459 65.2219 76.265 67.0379 76.265 69.9647V69.9824C76.265 72.9092 74.5547 74.7428 72.0246 74.7428ZM72.0334 73.3852C73.6467 73.3852 74.6958 72.1334 74.6958 69.9824V69.9647C74.6958 67.8137 73.6379 66.5795 72.0158 66.5795C70.4202 66.5795 69.3447 67.8225 69.3447 69.9647V69.9824C69.3447 72.1422 70.4114 73.3852 72.0334 73.3852ZM80.0469 74.5665L76.6705 65.3982H78.2838L80.8139 72.9356H80.8491L83.3881 65.3982H84.9837L81.6161 74.5665H80.0469ZM89.6119 74.7428C86.976 74.7428 85.3892 72.9004 85.3892 70.0176V70.0088C85.3892 67.1702 87.0113 65.2219 89.515 65.2219C92.0186 65.2219 93.5437 67.082 93.5437 69.8325V70.3967H86.9408C86.976 72.2833 88.0163 73.3852 89.6472 73.3852C90.8109 73.3852 91.6307 72.8034 91.8952 72.0188L91.9216 71.9395H93.4291L93.4115 72.0276C93.1117 73.5439 91.6131 74.7428 89.6119 74.7428ZM89.5061 66.5795C88.175 66.5795 87.1347 67.4875 86.9672 69.1978H91.9833C91.8335 67.417 90.8461 66.5795 89.5061 66.5795ZM96.0386 74.6899C95.4744 74.6899 95.0336 74.2492 95.0336 73.685C95.0336 73.1208 95.4744 72.68 96.0386 72.68C96.6028 72.68 97.0435 73.1208 97.0435 73.685C97.0435 74.2492 96.6028 74.6899 96.0386 74.6899Z" fill="#1D1D1B"/>
<defs>
<filter id="filter0_d_5_7904" x="0.151088" y="58.8178" width="38.5909" height="37.9583" filterUnits="userSpaceOnUse" color-interpolation-filters="sRGB">
<feFlood flood-opacity="0" result="BackgroundImageFix"/>
<feColorMatrix in="SourceAlpha" type="matrix" values="0 0 0 0 0 0 0 0 0 0 0 0 0 0 0 0 0 0 127 0" result="hardAlpha"/>
<feOffset dy="2.53055"/>
<feGaussianBlur stdDeviation="1.26528"/>
<feComposite in2="hardAlpha" operator="out"/>
<feColorMatrix type="matrix" values="0 0 0 0 0 0 0 0 0 0 0 0 0 0 0 0 0 0 0.05 0"/>
<feBlend mode="normal" in2="BackgroundImageFix" result="effect1_dropShadow_5_7904"/>
<feBlend mode="normal" in="SourceGraphic" in2="effect1_dropShadow_5_7904" result="shape"/>
</filter>
<filter id="filter1_d_5_7904" x="0.151088" y="58.8178" width="38.5909" height="37.9583" filterUnits="userSpaceOnUse" color-interpolation-filters="sRGB">
<feFlood flood-opacity="0" result="BackgroundImageFix"/>
<feColorMatrix in="SourceAlpha" type="matrix" values="0 0 0 0 0 0 0 0 0 0 0 0 0 0 0 0 0 0 127 0" result="hardAlpha"/>
<feOffset dy="2.53055"/>
<feGaussianBlur stdDeviation="1.26528"/>
<feComposite in2="hardAlpha" operator="out"/>
<feColorMatrix type="matrix" values="0 0 0 0 0 0 0 0 0 0 0 0 0 0 0 0 0 0 0.05 0"/>
<feBlend mode="normal" in2="BackgroundImageFix" result="effect1_dropShadow_5_7904"/>
<feBlend mode="normal" in="SourceGraphic" in2="effect1_dropShadow_5_7904" result="shape"/>
</filter>
<filter id="filter2_d_5_7904" x="0.151088" y="58.8178" width="38.5909" height="37.9583" filterUnits="userSpaceOnUse" color-interpolation-filters="sRGB">
<feFlood flood-opacity="0" result="BackgroundImageFix"/>
<feColorMatrix in="SourceAlpha" type="matrix" values="0 0 0 0 0 0 0 0 0 0 0 0 0 0 0 0 0 0 127 0" result="hardAlpha"/>
<feOffset dy="2.53055"/>
<feGaussianBlur stdDeviation="1.26528"/>
<feComposite in2="hardAlpha" operator="out"/>
<feColorMatrix type="matrix" values="0 0 0 0 0 0 0 0 0 0 0 0 0 0 0 0 0 0 0.05 0"/>
<feBlend mode="normal" in2="BackgroundImageFix" result="effect1_dropShadow_5_7904"/>
<feBlend mode="normal" in="SourceGraphic" in2="effect1_dropShadow_5_7904" result="shape"/>
</filter>
</defs>
</svg>
