<svg width="101" height="100" viewBox="0 0 101 100" fill="none" xmlns="http://www.w3.org/2000/svg">
<g clip-path="url(#clip0_5_7938)">
<path d="M23.6356 94.5365C25.2793 93.9645 27.0939 93.9316 28.7704 94.405C30.4469 94.9375 31.9065 95.7725 33.5501 96.2787C47.1465 101.197 62.6757 99.1387 75.1412 92.163C86.2194 85.9632 93.9709 75.2071 97.2056 63.0177C100.532 51.2097 99.4739 38.2248 93.6751 27.3307C82.0774 5.73305 56.8966 -3.07694 34.0169 4.99669C19.6382 9.57263 8.40222 21.8737 4.64154 36.4168C0.552121 50.0986 2.75462 65.2531 10.3549 77.4227C11.2819 79.2965 11.5712 81.4793 11.1044 83.5174C10.7625 84.9967 8.82957 93.8133 8.46797 95.4109L7.92227 97.9027C7.84995 98.238 7.96172 98.593 8.18526 98.8626C8.78355 99.5266 9.47388 99.2636 10.2563 98.9809L11.4726 98.5864C12.8664 98.1854 22.0117 95.0624 23.6422 94.543L23.6356 94.5365ZM23.7211 94.7863C22.1958 95.2794 13.0176 98.5273 11.6172 99.0204L10.4075 99.4543L9.80261 99.6712C9.61852 99.7436 9.34239 99.8225 9.09913 99.829C8.05376 99.8751 7.13989 98.8626 7.31083 97.8238L7.74476 95.2794C8.09321 93.2413 9.63825 84.5036 9.90123 82.6824C10.2168 80.1578 8.98736 78.0736 7.58039 76.0486C-0.624736 63.5108 -2.03171 47.2452 2.68887 33.1361C7.75133 16.8376 21.7093 4.7863 38.297 1.3149C45.0755 -0.236707 52.2352 -0.44052 59.0728 0.85468C81.8473 5.04929 98.9939 25.0296 100.348 47.9816C100.388 48.4747 100.434 50.7889 100.467 51.2294C100.453 51.6305 100.407 52.7613 100.394 53.1755C100.302 56.6272 99.7697 60.1117 98.9874 63.478C94.9571 81.4069 81.9328 94.5825 63.9512 98.5601C53.8329 100.986 43.1031 100.342 33.4187 96.6206C31.8013 96.0684 30.2563 95.2137 28.6784 94.6943C27.0676 94.2209 25.3121 94.2406 23.7145 94.7797L23.7211 94.7863Z" fill="url(#paint0_linear_5_7938)"/>
</g>
<defs>
<linearGradient id="paint0_linear_5_7938" x1="50.2326" y1="0.00274658" x2="50.2326" y2="99.9974" gradientUnits="userSpaceOnUse">
<stop stop-color="#FF5E54"/>
<stop offset="1" stop-color="#F6A723"/>
</linearGradient>
<clipPath id="clip0_5_7938">
<rect width="100.467" height="100" fill="white"/>
</clipPath>
</defs>
</svg>
