<svg width="88" height="100" viewBox="0 0 88 100" fill="none" xmlns="http://www.w3.org/2000/svg">
<g clip-path="url(#clip0_5_8184)">
<path d="M8.98382e-05 65.8031C19.5824 70.005 40.2438 79.7912 52.203 96.3799L50.5172 96.9617C50.2388 92.4416 50.3482 87.9214 50.6465 83.4212C52.4616 61.1089 58.3343 38.6425 69.4183 19.1C73.9832 11.4968 79.652 3.7643 87.9265 0C86.9568 0.566882 85.9474 1.04426 85.0573 1.73048C82.5461 3.42118 80.3034 5.64893 78.3094 7.91646C60.7261 29.2143 50.567 72.6355 52.5063 100L50.6813 97.4391C47.7922 93.3118 44.3611 89.5773 40.5371 86.2854C28.931 76.3749 14.6644 69.8061 -0.00488281 65.8031H8.98382e-05Z" fill="url(#paint0_linear_5_8184)"/>
</g>
<defs>
<linearGradient id="paint0_linear_5_8184" x1="43.9608" y1="0" x2="43.9608" y2="100" gradientUnits="userSpaceOnUse">
<stop stop-color="#FF5E54"/>
<stop offset="1" stop-color="#F6A723"/>
</linearGradient>
<clipPath id="clip0_5_8184">
<rect width="87.9363" height="100" fill="white"/>
</clipPath>
</defs>
</svg>
