<svg width="188" height="188" viewBox="0 0 188 188" fill="none" xmlns="http://www.w3.org/2000/svg">
<mask id="mask0_1_8" style="mask-type:luminance" maskUnits="userSpaceOnUse" x="0" y="0" width="188" height="188">
<path d="M187.023 40.2524L40.2588 0.92688L0.918294 147.748L147.683 187.073L187.023 40.2524Z" fill="white"/>
</mask>
<g mask="url(#mask0_1_8)">
<path d="M127.491 180.088C99.339 172.465 70.9034 165.862 42.6192 158.732C38.4084 157.673 29.8786 155.478 25.6735 154.361C24.3056 153.925 20.567 153.112 19.1986 152.566C15.4626 151.186 12.17 148.71 9.78104 145.538C5.87334 140.485 4.6657 133.575 6.344 127.497L15.9138 93.8274C22.9721 69.8288 29.6549 43.9957 36.1843 19.9252C39.4925 10.368 50.3372 4.59404 60.16 7.24596C82.7924 12.9316 105.402 18.701 127.979 24.6308C132.607 25.8808 164.446 34.0633 168.339 35.3055C178.431 38.8469 184.47 50.49 181.522 60.7818C175.4 83.2971 169.256 105.817 162.641 128.2C161.806 130.757 152.217 164.312 151.658 166.025C149.096 176.37 137.75 183.046 127.501 180.091L127.491 180.088ZM127.591 179.716C137.662 182.484 148.539 175.992 150.794 165.794C151.109 164.244 159.626 130.043 160.195 127.545C165.667 104.855 171.595 82.2874 177.552 59.718C180.078 50.5889 174.239 40.7331 165.013 38.5302C163.501 38.1848 129.495 28.7541 127.033 28.1243C104.525 21.9738 82.0574 15.6745 59.6076 9.27038C50.8327 6.65009 40.6349 11.7204 37.5186 20.4123C30.6373 44.3088 24.0542 70.1786 17.9897 94.3737L9.44265 128.317C8.11077 133.511 9.26837 139.232 12.5223 143.453C14.5324 146.104 17.2929 148.149 20.4023 149.301C21.5061 149.756 25.3077 150.705 26.5529 151.079C30.7884 152.194 39.2052 154.588 43.4139 155.766C71.4739 163.733 99.392 172.23 127.593 179.707L127.591 179.716Z" fill="#F6A723"/>
</g>
</svg>
