<svg width="188" height="188" viewBox="0 0 188 188" fill="none" xmlns="http://www.w3.org/2000/svg">
<mask id="mask0_1_34" style="mask-type:luminance" maskUnits="userSpaceOnUse" x="0" y="0" width="188" height="188">
<path d="M187.89 40.3664L40.2866 0.816284L0.920243 147.734L148.523 187.284L187.89 40.3664Z" fill="white"/>
</mask>
<g mask="url(#mask0_1_34)">
<path d="M37.7962 149.011C40.4361 148.818 43.115 149.484 45.3918 150.839C47.6453 152.282 49.4609 154.083 51.6764 155.474C69.7158 168.051 93.3411 171.141 114.401 165.8C133.118 161.053 148.74 148.302 158.291 131.667C167.827 115.628 171.384 96.1345 167.153 77.8463C158.616 41.5501 125.089 18.6939 88.2967 21.5486C65.3705 22.6111 44.0203 36.2603 32.7702 56.1462C21.3761 74.6372 18.6462 97.7689 25.0215 118.64C25.6458 121.758 25.2116 125.079 23.7234 127.889C22.6388 129.928 16.3282 142.12 15.168 144.325L13.3854 147.771C13.1471 148.235 13.1716 148.801 13.3939 149.285C14.0115 150.496 15.1292 150.381 16.39 150.274L18.3322 150.173C20.5378 150.133 35.2033 149.145 37.8032 149.024L37.7962 149.011ZM37.8234 149.412C35.3883 149.536 20.6254 150.695 18.3739 150.868L16.4258 151.029L15.4517 151.11C15.1528 151.143 14.716 151.151 14.356 151.065C12.8021 150.721 11.8581 148.873 12.5181 147.414L14.1573 143.847C15.4715 140.99 21.1812 128.761 22.2845 126.189C23.742 122.604 22.7562 119.058 21.4862 115.529C14.3672 93.8788 18.7033 69.428 31.1929 50.5575C45.0466 28.6051 70.2974 16.3944 96.0343 17.8243C106.604 18.2132 117.203 20.7323 126.739 25.3269C158.547 40.455 175.873 76.5595 168.827 110.813C168.691 111.553 167.848 114.971 167.723 115.631C167.545 116.215 167.033 117.859 166.85 118.462C165.356 123.497 163.202 128.407 160.728 133.044C147.748 157.798 123.427 172.028 95.4428 170.794C79.6221 170.375 64.1118 165.204 51.3487 155.925C49.1899 154.476 47.2565 152.612 45.1427 151.228C42.9625 149.899 40.3757 149.237 37.8163 149.4L37.8234 149.412Z" fill="#F6A723"/>
</g>
</svg>
