<svg width="98" height="165" viewBox="0 0 98 165" fill="none" xmlns="http://www.w3.org/2000/svg">
<mask id="mask0_1_21" style="mask-type:luminance" maskUnits="userSpaceOnUse" x="0" y="0" width="98" height="165">
<path d="M97.6471 14.0455L65.1636 0L0.000310772 150.705L32.4838 164.751L97.6471 14.0455Z" fill="white"/>
</mask>
<g mask="url(#mask0_1_21)">
<path d="M1.29177 150.087C4.05873 143.058 7.4882 133.766 10.3112 126.859C10.5442 126.295 11.1884 126.04 11.7443 126.291L14.2871 127.314L12.762 127.919L16.6757 118.313L20.6352 108.727C20.8059 108.333 21.1167 108.042 21.494 107.9L23.4163 107.108L22.5496 107.954L26.9745 97.3923L31.4545 86.8549C31.649 86.4051 32.0111 86.0715 32.4318 85.9047L34.7406 84.9746L33.7501 85.93L36.4608 79.6609C39.1977 73.3814 41.999 67.1297 44.8868 60.9046C45.0507 60.5506 45.3457 60.2968 45.6835 60.1705L49.5762 58.7269L48.803 59.482C50.9332 54.8577 56.6205 42.5108 58.7044 38.0189C59.8124 35.6327 60.8785 33.2175 61.959 30.8193C62.0344 30.6449 62.1753 30.5207 62.3423 30.4621C64.2854 29.7225 66.2245 28.9921 68.1572 28.2263L67.8042 28.5639C69.4418 24.8269 71.0978 21.0979 72.6856 17.3503C74.2956 13.6014 75.8965 9.84852 77.4659 6.09294L78.751 6.64857C76.0755 12.9873 73.5154 19.3869 70.8951 25.7495L63.1126 44.8821L62.3207 42.8837L68.1023 45.2855C68.9231 45.6296 69.3035 46.5893 68.9411 47.4023C65.1705 56.6013 59.5036 69.9593 55.5777 79.2656L54.5462 76.6624L58.6925 78.4116C59.7113 78.8521 60.1881 80.017 59.7568 81.0398C59.7751 81.0478 54.9379 92.4113 54.9431 92.4244L50.0588 103.746L48.9439 100.932L52.9825 102.678C54.0656 103.147 54.5697 104.4 54.1014 105.483C51.616 111.13 46.6094 122.508 44.0964 128.143L43.0752 125.566L46.6443 127.164L46.6902 127.184C47.6408 127.606 48.0613 128.724 47.6302 129.671L40.0309 146.541C38.1306 150.709 34.2534 159.197 32.3124 163.358C32.0517 163.987 31.3246 164.282 30.7084 163.994C21.9561 160.123 10.0198 154.166 1.27863 150.092L1.29177 150.087ZM1.67305 149.936C10.5047 153.221 23.1133 158.379 31.7031 161.744L30.0991 162.38C33.8957 152.843 40.1564 137.759 44.1462 128.154L45.1413 130.665L41.5326 129.159C40.5242 128.745 40.0697 127.579 40.5115 126.582C42.9091 120.886 47.7478 109.469 50.1638 103.78L51.2787 106.594L47.2401 104.848C46.157 104.379 45.6568 103.117 46.1251 102.034C48.5476 96.3811 53.5212 85.0548 56.0223 79.4469L57.0747 82.1027L52.9601 80.28C51.9505 79.8434 51.4868 78.6733 51.9286 77.6768C56.0172 68.3974 61.8515 55.2316 65.9895 46.1152L66.8283 48.2319L61.1181 45.6648C60.3392 45.3498 59.9797 44.4426 60.3183 43.6848C65.3433 32.7184 72.6067 16.9784 77.4659 6.09294C77.6024 5.72703 78.0231 5.56032 78.3811 5.7151C78.739 5.86988 78.8966 6.28663 78.7366 6.63145C77.0622 10.3526 75.4338 14.0935 73.8054 17.8345C72.1586 21.5675 70.576 25.3283 68.9791 29.0719C68.9077 29.2371 68.7799 29.3562 68.6261 29.4096C66.6934 30.1754 64.7803 30.9715 62.8581 31.7637L63.2493 31.3881C62.2514 33.822 61.2207 36.2308 60.2412 38.6725C58.4066 43.2177 53.3001 55.8593 51.3862 60.5881C51.2314 60.946 50.9548 61.2078 50.613 61.3432L46.788 62.9578L47.6166 62.1503C44.2808 70.4697 40.6119 79.0808 37.0388 87.3193C36.8443 87.7691 36.4782 88.1119 36.0483 88.2747L33.7291 89.1785L34.7065 88.2283C32.418 93.4706 27.7621 103.986 25.4185 109.205C25.2518 109.59 24.9318 109.877 24.5677 110.014L22.6246 110.753L23.4834 109.926C21.3752 114.625 17.039 124.125 14.881 128.813C14.6454 129.409 13.9446 129.694 13.3559 129.418L10.8687 128.266L12.3018 127.698C9.30432 134.126 4.77716 143.412 1.66784 149.923L1.67305 149.936Z" fill="#FF5E54"/>
</g>
</svg>
