<svg width="188" height="188" viewBox="0 0 188 188" fill="none" xmlns="http://www.w3.org/2000/svg">
<g clip-path="url(#clip0_5_12941)">
<path d="M37.7962 149.012C40.4361 148.818 43.115 149.484 45.3918 150.84C47.6453 152.282 49.4609 154.083 51.6764 155.474C69.7158 168.052 93.3411 171.142 114.401 165.8C133.118 161.053 148.74 148.302 158.291 131.667C167.827 115.628 171.384 96.1348 167.153 77.8466C158.616 41.5504 125.089 18.6942 88.2967 21.5489C65.3705 22.6113 44.0203 36.2606 32.7702 56.1464C21.3761 74.6375 18.6462 97.7691 25.0215 118.64C25.6458 121.758 25.2116 125.079 23.7234 127.89C22.6388 129.928 16.3282 142.12 15.168 144.325L13.3854 147.771C13.1471 148.235 13.1716 148.801 13.3939 149.285C14.0115 150.496 15.1292 150.382 16.39 150.274L18.3322 150.173C20.5378 150.133 35.2033 149.145 37.8032 149.024L37.7962 149.012ZM37.8234 149.412C35.3883 149.536 20.6254 150.695 18.3739 150.868L16.4258 151.029L15.4517 151.11C15.1528 151.144 14.716 151.151 14.356 151.065C12.8021 150.721 11.8581 148.874 12.5181 147.415L14.1573 143.847C15.4715 140.99 21.1812 128.761 22.2845 126.189C23.742 122.604 22.7562 119.058 21.4862 115.529C14.3672 93.8791 18.7033 69.4282 31.1929 50.5578C45.0466 28.6054 70.2974 16.3947 96.0343 17.8246C106.604 18.2134 117.203 20.7325 126.739 25.3271C158.547 40.4552 175.873 76.5597 168.827 110.813C168.691 111.553 167.848 114.971 167.723 115.632C167.545 116.216 167.033 117.859 166.85 118.462C165.356 123.497 163.202 128.407 160.728 133.044C147.748 157.799 123.427 172.029 95.4428 170.794C79.6221 170.375 64.1118 165.204 51.3487 155.925C49.1899 154.477 47.2565 152.613 45.1427 151.228C42.9625 149.899 40.3757 149.237 37.8163 149.4L37.8234 149.412Z" fill="#F6A723"/>
</g>
<defs>
<clipPath id="clip0_5_12941">
<rect width="152.81" height="152.1" fill="white" transform="translate(40.2866 0.816406) rotate(15)"/>
</clipPath>
</defs>
</svg>
