<svg width="187" height="187" viewBox="0 0 187 187" fill="none" xmlns="http://www.w3.org/2000/svg">
<g clip-path="url(#clip0_5_12943)">
<path d="M126.573 179.161C98.4206 171.538 69.985 164.935 41.7007 157.805C37.49 156.747 28.9601 154.551 24.755 153.434C23.3871 152.998 19.6486 152.185 18.2802 151.639C14.5442 150.259 11.2516 147.783 8.86259 144.611C4.95489 139.558 3.74725 132.648 5.42555 126.57L14.9954 92.9005C22.0536 68.902 28.7364 43.0688 35.2658 18.9983C38.574 9.44109 49.4188 3.66716 59.2415 6.31908C81.8739 12.0047 104.484 17.7741 127.061 23.704C131.689 24.9539 163.528 33.1364 167.42 34.3787C177.513 37.9201 183.551 49.5631 180.604 59.8549C174.481 82.3702 168.338 104.89 161.722 127.273C160.888 129.83 151.299 163.385 150.74 165.098C148.177 175.443 136.832 182.119 126.582 179.164L126.573 179.161ZM126.672 178.789C136.743 181.558 147.621 175.065 149.875 164.867C150.191 163.317 158.707 129.116 159.277 126.618C164.749 103.928 170.676 81.3605 176.634 58.7911C179.16 49.662 173.32 39.8062 164.095 37.6033C162.583 37.258 128.577 27.8272 126.115 27.1974C103.607 21.0469 81.139 14.7476 58.6891 8.3435C49.9142 5.72321 39.7164 10.7935 36.6002 19.4854C29.7188 43.3819 23.1358 69.2517 17.0713 93.4468L8.5242 127.39C7.19232 132.584 8.34992 138.306 11.6038 142.526C13.614 145.177 16.3745 147.222 19.4839 148.374C20.5876 148.829 24.3892 149.778 25.6345 150.152C29.8699 151.267 38.2867 153.662 42.4954 154.839C70.5555 162.806 98.4736 171.303 126.675 178.78L126.672 178.789Z" fill="#F6A723"/>
</g>
<defs>
<clipPath id="clip0_5_12943">
<rect width="151.942" height="152" fill="white" transform="translate(39.3403) rotate(15)"/>
</clipPath>
</defs>
</svg>
