<svg width="1168" height="964" viewBox="0 0 1168 964" fill="none" xmlns="http://www.w3.org/2000/svg">
<g clip-path="url(#clip0_5_12928)">
<path d="M-345.077 728.628C-338.48 719.854 -331.51 711.327 -324.34 703.146C-317.134 694.828 -309.64 686.807 -301.911 678.995C-294.181 671.184 -286.214 663.582 -278.098 656.24C-269.845 648.935 -261.492 641.803 -252.938 635.017C-244.249 628.268 -235.409 621.779 -226.233 615.673C-217.057 609.567 -207.63 603.894 -197.954 598.653C-178.501 588.346 -157.912 579.808 -136.139 575.32L-132.112 574.496C-131.405 574.319 -130.786 574.192 -130.03 574.102L-127.984 573.845C-125.233 573.411 -122.481 572.977 -119.766 572.679L-111.471 572.047C-110.045 571.917 -108.656 571.923 -107.266 571.929L-103.149 571.861C-100.334 571.737 -97.6283 572.023 -94.7998 572.122L-90.6187 572.364C-89.2661 572.506 -87.8635 572.736 -86.5108 572.879L-82.353 573.48L-80.2307 573.756L-78.1951 574.082L-74.1238 574.734L-70.1025 575.299C-59.4047 576.628 -48.5373 577.051 -37.9636 575.565C-27.44 573.992 -17.2601 570.424 -9.05343 563.839C-4.90009 560.633 -1.31997 556.834 1.82355 552.478C4.93046 548.26 7.6508 543.571 9.96131 538.773C14.6689 529.127 18.0337 518.755 21.1753 508.397C24.2669 497.951 27.1219 487.296 30.3001 476.801C33.4283 466.219 36.8297 455.711 40.9142 445.385C44.9986 435.06 49.816 425.004 55.6031 415.427C58.4966 410.639 61.7134 406.01 65.0301 401.555C65.9059 400.472 66.7318 399.303 67.6076 398.22C68.4834 397.137 69.3592 396.054 70.2351 394.971L73.0492 391.845L76.0499 388.842C83.853 380.757 92.9757 373.758 102.912 368.368C112.848 362.978 123.784 359.32 134.914 357.397C146.044 355.475 157.454 355.238 168.621 356.181C179.839 357.21 190.813 359.418 201.482 362.496L205.493 363.645C206.859 364.011 208.139 364.427 209.468 364.929L217.381 367.635L225.135 370.664C227.707 371.72 230.192 372.825 232.815 373.967C235.387 375.022 237.923 376.214 240.372 377.456C242.907 378.648 245.393 379.753 247.892 381.081L255.289 384.893L262.563 388.892C272.163 394.319 281.689 400.02 290.846 406.28L294.255 408.584L297.714 410.975L304.495 415.721C308.95 419.037 313.442 422.217 317.811 425.584C326.635 432.268 335.162 439.238 343.603 446.258L356.116 456.931L362.304 462.25L368.703 467.331C377.253 473.942 386.014 480.315 395.23 486.079C404.361 491.893 413.86 497.147 423.556 501.941C442.985 511.393 463.533 518.582 484.663 522.78C505.842 527.064 527.517 528.406 548.955 526.537C570.392 524.668 591.592 519.587 611.538 511.536C631.485 503.484 650.164 492.237 666.724 478.52C683.284 464.802 697.574 448.353 708.742 429.896C714.282 420.693 718.99 411.047 722.778 401.008C726.566 390.969 729.298 380.501 731.087 369.999C731.646 367.367 731.845 364.712 732.18 362.093C732.466 359.388 732.665 356.733 732.864 354.077L732.983 350.083C733.039 348.78 733.045 347.391 733.101 346.088C733.077 343.447 733.14 340.755 732.929 337.99C732.459 327.176 731.629 316.339 730.13 305.542C727.268 283.985 722.584 262.671 717.057 241.498C711.666 220.362 705.47 199.229 700.116 177.956C697.414 167.276 695.022 156.533 693.113 145.626C691.203 134.719 690.001 123.636 689.777 112.449C689.604 101.348 690.496 90.0943 693.151 79.0928C695.72 68.1414 700.15 57.6159 705.887 47.9527C708.781 43.1644 712.048 38.6226 715.638 34.2405L718.315 31.0781C718.821 30.555 719.191 29.9951 719.697 29.4719L721.129 27.9523C722.055 26.9559 723.067 25.9095 723.993 24.9131L726.957 22.047C727.883 21.0506 728.946 20.0908 730.058 19.2176C731.121 18.2577 732.096 17.348 733.159 16.3882L736.36 13.732L737.978 12.3355L739.647 11.0257L742.898 8.45609C744.01 7.58288 745.172 6.79632 746.198 5.97309C747.361 5.18647 748.473 4.31332 749.549 3.57669L752.95 1.2669C757.513 -1.8295 762.313 -4.7161 767.076 -7.4661L774.177 -11.5661C774.127 -11.6527 777.628 -13.7893 777.628 -13.7893L779.36 -14.7893L781.042 -15.8759L787.893 -20.4089L789.625 -21.4089C789.575 -21.4955 791.207 -22.6687 791.207 -22.6687L794.558 -25.0652L797.909 -27.4616L799.541 -28.6348L801.123 -29.8946L807.588 -34.8972C816.091 -41.7695 824.357 -48.8515 832.101 -56.4398L835.065 -59.3058C835.991 -60.3022 836.966 -61.212 837.892 -62.2084L843.584 -68.1503C847.237 -72.2225 850.941 -76.2082 854.407 -80.4036C858.011 -84.5625 861.291 -88.8811 864.707 -93.1632C867.937 -97.5684 871.218 -101.887 874.348 -106.466C877.528 -110.957 880.435 -115.522 883.428 -120.138L887.714 -127.115C889.142 -129.441 890.434 -131.803 891.812 -134.216C897.203 -143.679 902.221 -153.388 906.865 -163.344C911.422 -173.25 915.607 -183.403 919.245 -193.701C922.969 -204.05 926.198 -214.459 928.966 -225.064C931.734 -235.669 933.82 -246.457 935.186 -257.291C934.093 -246.384 932.144 -235.559 929.512 -224.917C927.017 -214.239 923.889 -203.657 920.301 -193.272C916.713 -182.887 912.715 -172.611 908.344 -162.582C903.887 -152.503 898.969 -142.62 893.678 -132.984C872.516 -94.4383 844.279 -59.5453 810.021 -31.6831L803.519 -26.5439L801.937 -25.2841L800.219 -24.0608L796.868 -21.6645L793.517 -19.268L791.799 -18.0449L789.98 -16.9949C790.03 -16.9083 783.142 -12.2386 783.142 -12.2386L781.323 -11.1886C781.373 -11.102 779.605 -9.96545 779.605 -9.96545L776.054 -7.9154C776.104 -7.82879 769.016 -3.50563 769.016 -3.50563C764.339 -0.805616 759.726 2.20419 755.25 5.25061L751.849 7.56041C750.687 8.34703 749.661 9.17018 748.585 9.90681C747.559 10.73 746.397 11.5166 745.371 12.3398L742.207 14.8594L740.625 16.1193L739.093 17.4657L735.979 20.0719C735.003 20.9817 734.027 21.8915 732.964 22.8513C731.989 23.7611 731.013 24.6709 730.087 25.6673L727.259 28.57C726.333 29.5664 725.408 30.5627 724.482 31.5592L723.136 33.0288C722.717 33.502 722.261 34.1118 721.841 34.585L719.25 37.6975C715.92 41.9295 712.913 46.3214 710.143 50.9231C704.739 60.163 700.678 70.1287 698.305 80.6203C695.883 91.0254 695.051 101.783 695.297 112.61C695.631 123.387 696.907 134.198 698.803 144.881C700.698 155.565 703.214 166.121 705.915 176.801C711.392 197.888 717.676 218.971 723.253 240.23C728.83 261.49 733.664 283.063 736.726 304.967C738.239 315.987 739.255 326.947 739.788 338.071C739.999 340.836 739.9 343.664 739.974 346.393C739.968 347.782 739.962 349.171 739.869 350.61L739.764 354.828C739.528 357.62 739.429 360.448 739.057 363.204C738.685 365.959 738.449 368.751 737.99 371.556C736.191 382.64 733.35 393.519 729.502 404.054C725.604 414.503 720.75 424.695 714.963 434.272C709.226 443.935 702.642 452.932 695.313 461.436C687.983 469.941 680.03 477.766 671.453 484.911C654.301 499.202 634.929 510.848 614.289 519.3C593.65 527.752 571.658 533.06 549.464 535.019C527.27 536.978 504.702 535.69 482.84 531.223C460.977 526.755 439.746 519.383 419.808 509.648C409.838 504.781 400.189 499.267 390.785 493.38C381.382 487.493 372.385 480.909 363.648 474.176L357.199 469.007L350.875 463.652L338.448 452.929C330.057 445.996 321.666 439.062 312.979 432.415C308.697 428.998 304.255 425.905 299.85 422.675L293.205 417.966L289.883 415.612L286.474 413.308C277.504 407.171 268.251 401.543 258.787 396.153L251.65 392.191L244.39 388.415C242.027 387.123 239.541 386.018 237.142 384.863C234.743 383.707 232.294 382.465 229.772 381.497C227.287 380.392 224.801 379.286 222.279 378.318L214.712 375.412L207.072 372.779C205.792 372.363 204.513 371.947 203.234 371.531L199.359 370.419C188.964 367.414 178.435 365.179 167.801 364.16C157.167 363.14 146.426 363.337 135.916 365.133C125.492 366.878 115.349 370.31 105.969 375.263C96.589 380.217 88.1091 386.729 80.6391 394.391L77.8116 397.293L75.1707 400.319C74.2449 401.316 73.4556 402.349 72.5798 403.432C71.654 404.428 70.9148 405.548 70.1255 406.581C66.7954 410.813 63.7884 415.205 60.9315 419.856C55.2543 429.023 50.5467 438.669 46.4488 448.772C42.4376 458.824 38.9362 469.159 35.8446 479.605C32.6664 490.1 29.7614 500.668 26.5832 511.163C23.3184 521.708 19.8304 532.267 14.7898 542.336C12.2694 547.371 9.42594 552.246 6.02259 556.751C2.61925 561.257 -1.43047 565.442 -5.96682 568.985C-8.19169 570.731 -10.6532 572.268 -13.1646 573.718C-15.6761 575.168 -18.251 576.308 -20.9259 577.275C-26.2256 579.296 -31.7887 580.66 -37.3921 581.355C-48.5487 582.831 -59.826 582.298 -70.847 580.809L-75.0049 580.208L-79.1262 579.469L-81.1618 579.143L-83.1974 578.818L-87.2187 578.253C-88.5714 578.11 -89.8874 577.83 -91.24 577.687L-95.3345 577.396C-97.9898 577.197 -100.695 576.911 -103.423 576.985L-107.455 577.003C-108.844 576.997 -110.146 576.941 -111.572 577.071L-119.694 577.603C-125.074 578.285 -130.504 578.879 -135.721 580.044C-157.025 584.145 -177.454 592.36 -196.883 602.308C-206.523 607.411 -215.963 612.861 -225.102 618.831C-234.242 624.8 -243.182 631.117 -251.972 637.692C-260.625 644.305 -269.164 651.314 -277.381 658.482C-285.597 665.651 -293.614 673.166 -301.444 680.804C-309.273 688.443 -316.817 696.377 -324.26 704.485C-331.567 712.63 -338.723 721.034 -345.42 729.635L-345.077 728.628Z" fill="url(#paint0_linear_5_12928)"/>
</g>
<defs>
<linearGradient id="paint0_linear_5_12928" x1="-323.627" y1="765.781" x2="1067.9" y2="-37.6191" gradientUnits="userSpaceOnUse">
<stop stop-color="#FF5E54"/>
<stop offset="1" stop-color="#F4B800"/>
</linearGradient>
<clipPath id="clip0_5_12928">
<rect width="1509" height="521.57" fill="white" transform="translate(-400 511.5) rotate(-30)"/>
</clipPath>
</defs>
</svg>
