<svg width="262" height="50" viewBox="0 0 262 50" fill="none" xmlns="http://www.w3.org/2000/svg">
<path d="M16.4042 38.8479C14.3172 38.8523 12.2499 38.4447 10.321 37.6487C8.39223 36.8526 6.63995 35.6837 5.16497 34.2093L4.6567 33.7017C3.17591 32.2314 2.00187 30.4824 1.20256 28.5558C0.40325 26.6294 -0.00546102 24.5637 6.80484e-05 22.4784C-0.00606446 20.3924 0.402356 18.3259 1.20169 16.3985C2.00101 14.4712 3.17536 12.7215 4.6567 11.2506L5.16497 10.743C6.63742 9.26435 8.38891 8.09198 10.3182 7.29382C12.2474 6.49565 14.316 6.08751 16.4042 6.09303C18.4925 6.08751 20.5611 6.49565 22.4903 7.29382C24.4195 8.09198 26.1711 9.26435 27.6435 10.743L45.8894 28.9516C47.6141 30.6683 49.9501 31.6323 52.3854 31.6323C54.8207 31.6323 57.1567 30.6683 58.8815 28.9516C60.6007 27.2292 61.5661 24.8966 61.5661 22.4648C61.5661 20.0329 60.6007 17.7003 58.8815 15.978L52.8664 9.97143L43.8152 19.012L38.819 14.0228L52.8687 0L63.8732 10.9934C66.9177 14.0397 68.6276 18.1677 68.6276 22.4716C68.6276 26.7755 66.9177 30.9035 63.8732 33.9498C62.3674 35.4614 60.5763 36.6597 58.6037 37.4754C56.631 38.2912 54.5159 38.7082 52.3808 38.7023C50.2454 38.7085 48.1299 38.2917 46.1568 37.4759C44.1838 36.6601 42.3923 35.4616 40.8863 33.9498L22.6404 15.7299C21.8227 14.9083 20.8498 14.2569 19.7782 13.8135C18.7065 13.3701 17.5574 13.1434 16.3974 13.1466C15.2374 13.1434 14.0883 13.3701 13.0167 13.8135C11.945 14.2569 10.9722 14.9083 10.1544 15.7299L9.64612 16.2374C8.82339 17.0541 8.1711 18.0256 7.72702 19.0957C7.28293 20.1658 7.0559 21.3133 7.05908 22.4716C7.0559 23.63 7.28293 24.7774 7.72702 25.8475C8.1711 26.9176 8.82339 27.8891 9.64612 28.7058L10.1544 29.2133C11.8111 30.8648 14.0565 31.7923 16.3974 31.7923C18.7384 31.7923 20.9836 30.8648 22.6404 29.2133L25.444 26.4138L30.4402 31.4029L27.6367 34.2024C26.1629 35.6772 24.4121 36.8467 22.4844 37.6439C20.5569 38.4411 18.4906 38.8502 16.4042 38.8479Z" fill="#FF5E54"/>
<path d="M94.8667 3.62564C97.2044 3.62564 99.2951 3.98781 101.139 4.71215C103.016 5.40356 104.629 6.32545 105.979 7.47781C107.329 8.59724 108.415 9.86484 109.238 11.2806C110.061 12.6634 110.621 14.0627 110.917 15.4785H103.312C103.081 14.7212 102.719 13.9969 102.225 13.3055C101.764 12.5811 101.172 11.9555 100.447 11.4288C99.7231 10.869 98.8835 10.441 97.9287 10.1447C96.9739 9.81545 95.9368 9.65083 94.8173 9.65083C93.3357 9.65083 91.9694 9.94715 90.7182 10.5398C89.4671 11.0995 88.3806 11.9062 87.4587 12.9597C86.5697 13.9804 85.8619 15.2315 85.3351 16.7131C84.8412 18.1618 84.5943 19.7587 84.5943 21.5037C84.5943 23.117 84.8412 24.648 85.3351 26.0966C85.8289 27.5453 86.5203 28.8129 87.4093 29.8994C88.3312 30.9859 89.4177 31.8584 90.6688 32.5169C91.9529 33.1425 93.3686 33.4553 94.9161 33.4553C96.1343 33.4553 97.2208 33.2742 98.1756 32.912C99.1634 32.5498 100.019 32.0724 100.744 31.4798C101.468 30.8871 102.061 30.2122 102.522 29.4549C103.016 28.6977 103.394 27.9075 103.658 27.0844H111.51C110.983 28.7964 110.242 30.4097 109.288 31.9243C108.333 33.4059 107.164 34.7064 105.781 35.8258C104.398 36.9453 102.785 37.8342 100.941 38.4927C99.0975 39.1512 97.0233 39.4805 94.7186 39.4805C92.1175 39.4805 89.7469 39.0195 87.6069 38.0976C85.4668 37.1757 83.6394 35.9246 82.1249 34.3442C80.6104 32.7309 79.4416 30.8213 78.6185 28.6154C77.7953 26.4094 77.3838 24.0224 77.3838 21.4543C77.3838 18.8862 77.8118 16.5156 78.6678 14.3426C79.5568 12.1696 80.775 10.2929 82.3225 8.71248C83.8699 7.09918 85.7137 5.84804 87.8538 4.95908C89.9939 4.07012 92.3315 3.62564 94.8667 3.62564Z" fill="white"/>
<path d="M113.287 2.83545H119.954V17.7009H120.152C120.975 16.3839 121.996 15.4455 123.214 14.8858C124.465 14.2932 125.765 13.9969 127.115 13.9969C128.432 13.9969 129.634 14.2273 130.721 14.6883C131.84 15.1163 132.795 15.7748 133.585 16.6638C134.375 17.5527 134.984 18.6886 135.412 20.0714C135.873 21.4213 136.104 23.0017 136.104 24.8126V38.3939H129.437V25.2077C129.437 23.4297 129.041 22.0963 128.251 21.2073C127.461 20.3184 126.375 19.8739 124.992 19.8739C123.51 19.8739 122.292 20.3842 121.337 21.4049C120.415 22.3926 119.954 23.8907 119.954 25.8991V38.3939H113.287V2.83545Z" fill="white"/>
<path d="M138.595 14.7377H145.262V38.3939H138.595V14.7377ZM138.446 3.42809H145.459V9.79899H138.446V3.42809Z" fill="white"/>
<path d="M148.083 2.83545H154.75V38.3939H148.083V2.83545Z" fill="white"/>
<path d="M157.571 2.83545H164.238V38.3939H157.571V2.83545Z" fill="white"/>
<path d="M178.912 4.71215C181.941 4.71215 184.608 5.15663 186.913 6.04559C189.218 6.93455 191.144 8.15276 192.691 9.70021C194.272 11.2147 195.457 12.9927 196.247 15.034C197.037 17.0753 197.432 19.2483 197.432 21.553C197.432 23.8248 197.021 25.9814 196.198 28.0227C195.375 30.064 194.156 31.8584 192.543 33.4059C190.963 34.9204 189.02 36.1386 186.715 37.0605C184.411 37.9495 181.777 38.3939 178.814 38.3939H167.356V4.71215H178.912ZM178.665 32.1712C180.641 32.1712 182.353 31.8913 183.802 31.3316C185.283 30.7719 186.485 30.0146 187.407 29.0598C188.362 28.105 189.07 26.9856 189.531 25.7015C189.991 24.3846 190.222 23.0017 190.222 21.553C190.222 19.9727 189.975 18.5405 189.481 17.2564C188.987 15.9394 188.263 14.82 187.308 13.8981C186.353 12.9433 185.152 12.2189 183.703 11.7251C182.254 11.1983 180.575 10.9349 178.665 10.9349H174.418V32.1712H178.665Z" fill="white"/>
<path d="M222.338 38.3939H215.918V35.4307H215.72C214.963 36.4514 213.975 37.3404 212.757 38.0976C211.539 38.822 209.958 39.1841 208.016 39.1841C206.863 39.1841 205.645 38.9372 204.361 38.4433C203.11 37.9824 201.958 37.2416 200.904 36.2209C199.85 35.2003 198.978 33.8997 198.287 32.3194C197.595 30.7061 197.249 28.78 197.249 26.5411C197.249 24.6315 197.546 22.9194 198.138 21.4049C198.764 19.8574 199.587 18.5404 200.608 17.4539C201.661 16.3674 202.863 15.5443 204.213 14.9846C205.563 14.392 206.995 14.0956 208.51 14.0956C209.431 14.0956 210.255 14.2109 210.979 14.4413C211.736 14.6389 212.411 14.9188 213.004 15.2809C213.596 15.6102 214.107 16.0053 214.535 16.4662C214.996 16.8942 215.391 17.3387 215.72 17.7996H215.918V14.7377H222.338V38.3939ZM204.015 26.5905C204.015 27.4465 204.131 28.2861 204.361 29.1092C204.624 29.9323 205.003 30.6731 205.497 31.3316C205.991 31.9572 206.616 32.4675 207.374 32.8626C208.131 33.2248 209.036 33.4059 210.09 33.4059C210.88 33.4059 211.621 33.2413 212.312 32.912C213.037 32.5828 213.662 32.1218 214.189 31.5292C214.749 30.9365 215.193 30.2287 215.523 29.4055C215.852 28.5495 216.016 27.6276 216.016 26.6399C216.016 25.6192 215.868 24.6809 215.572 23.8248C215.276 22.9688 214.864 22.2445 214.337 21.6518C213.81 21.0592 213.185 20.5982 212.461 20.269C211.736 19.9397 210.962 19.7751 210.139 19.7751C209.086 19.7751 208.18 19.9727 207.423 20.3678C206.666 20.7629 206.024 21.2896 205.497 21.9481C205.003 22.5737 204.624 23.298 204.361 24.1212C204.131 24.9113 204.015 25.7345 204.015 26.5905Z" fill="white"/>
<path d="M232.655 49.9998H226.333L230.679 38.1964L222.086 14.7377H229L232.408 25.0101C232.671 25.8662 232.951 26.821 233.247 27.8746C233.576 28.8952 233.823 29.883 233.988 30.8378H234.186C234.416 29.6854 234.647 28.6977 234.877 27.8746C235.107 27.0185 235.387 26.0637 235.717 25.0101L239.025 14.7377H245.594L232.655 49.9998Z" fill="white"/>
<path d="M255.576 21.1086C255.511 20.2525 255.231 19.594 254.737 19.1331C254.243 18.6721 253.617 18.4417 252.86 18.4417C252.07 18.4417 251.461 18.6557 251.033 19.0837C250.638 19.5117 250.44 19.9891 250.44 20.5159C250.44 20.8452 250.49 21.158 250.588 21.4543C250.72 21.7177 250.951 21.9975 251.28 22.2938C251.642 22.5572 252.136 22.8371 252.761 23.1334C253.387 23.4297 254.194 23.7425 255.181 24.0718C257.684 24.8949 259.445 25.932 260.466 27.1831C261.486 28.4343 261.997 29.9159 261.997 31.628C261.997 32.7145 261.783 33.7187 261.355 34.6405C260.96 35.5624 260.367 36.3691 259.577 37.0605C258.82 37.7519 257.865 38.2787 256.712 38.6409C255.593 39.036 254.309 39.2335 252.86 39.2335C249.831 39.2335 247.576 38.5256 246.094 37.1099C244.646 35.6612 243.855 33.7845 243.724 31.4798H249.699C249.765 32.4346 250.062 33.2083 250.588 33.801C251.115 34.3936 251.922 34.6899 253.008 34.6899C253.864 34.6899 254.523 34.443 254.984 33.9491C255.478 33.4553 255.725 32.8626 255.725 32.1712C255.725 31.3481 255.379 30.6567 254.688 30.097C254.029 29.5372 252.811 28.9611 251.033 28.3684C248.794 27.6441 247.098 26.7057 245.946 25.5534C244.827 24.401 244.267 22.8865 244.267 21.0098C244.267 19.9562 244.464 19.0014 244.86 18.1454C245.288 17.2564 245.88 16.5156 246.637 15.923C247.395 15.2974 248.284 14.82 249.304 14.4907C250.358 14.1286 251.527 13.9475 252.811 13.9475C255.445 13.9475 257.47 14.6224 258.885 15.9723C260.334 17.3222 261.19 19.0343 261.453 21.1086H255.576Z" fill="white"/>
</svg>
