<svg width="281" height="257" viewBox="0 0 281 257" fill="none" xmlns="http://www.w3.org/2000/svg">
<g clip-path="url(#clip0_5_8217)" filter="url(#filter0_d_5_8217)">
<rect x="8" y="4" width="265" height="241" rx="20" fill="white"/>
<path d="M68.4639 149L62.1221 125.044H67.3184L71.1035 142.21H71.2031L75.6191 125.044H80.0186L84.4346 142.21H84.5342L88.3359 125.044H93.5322L87.1738 149H82.2764L77.877 132.946H77.7773L73.3613 149H68.4639ZM101.999 149.365C96.5869 149.365 93.1836 145.896 93.1836 140.102V140.068C93.1836 134.341 96.6699 130.838 101.982 130.838C107.312 130.838 110.814 134.308 110.814 140.068V140.102C110.814 145.912 107.378 149.365 101.999 149.365ZM102.016 145.563C104.373 145.563 105.884 143.571 105.884 140.102V140.068C105.884 136.632 104.34 134.64 101.982 134.64C99.6416 134.64 98.1143 136.632 98.1143 140.068V140.102C98.1143 143.588 99.625 145.563 102.016 145.563ZM121.489 149.365C116.077 149.365 112.674 145.896 112.674 140.102V140.068C112.674 134.341 116.16 130.838 121.473 130.838C126.802 130.838 130.305 134.308 130.305 140.068V140.102C130.305 145.912 126.868 149.365 121.489 149.365ZM121.506 145.563C123.863 145.563 125.374 143.571 125.374 140.102V140.068C125.374 136.632 123.83 134.64 121.473 134.64C119.132 134.64 117.604 136.632 117.604 140.068V140.102C117.604 143.588 119.115 145.563 121.506 145.563ZM140.1 141.38V137.146H150.857V141.38H140.1ZM161.416 149V125.044H166.264V134.274H166.363C167.276 132.066 169.152 130.838 171.825 130.838C175.677 130.838 178.067 133.527 178.067 137.827V149H173.22V138.823C173.22 136.333 171.991 134.855 169.783 134.855C167.642 134.855 166.264 136.482 166.264 138.807V149H161.416ZM189.356 149.365C183.944 149.365 180.541 145.896 180.541 140.102V140.068C180.541 134.341 184.027 130.838 189.34 130.838C194.669 130.838 198.172 134.308 198.172 140.068V140.102C198.172 145.912 194.735 149.365 189.356 149.365ZM189.373 145.563C191.73 145.563 193.241 143.571 193.241 140.102V140.068C193.241 136.632 191.697 134.64 189.34 134.64C186.999 134.64 185.472 136.632 185.472 140.068V140.102C185.472 143.588 186.982 145.563 189.373 145.563ZM208.847 149.365C203.435 149.365 200.031 145.896 200.031 140.102V140.068C200.031 134.341 203.518 130.838 208.83 130.838C214.159 130.838 217.662 134.308 217.662 140.068V140.102C217.662 145.912 214.226 149.365 208.847 149.365ZM208.863 145.563C211.221 145.563 212.731 143.571 212.731 140.102V140.068C212.731 136.632 211.188 134.64 208.83 134.64C206.489 134.64 204.962 136.632 204.962 140.068V140.102C204.962 143.588 206.473 145.563 208.863 145.563Z" fill="#FF5E54"/>
<path d="M37.625 182V177.148L33.625 170.727H35.2266L38.3047 175.789H38.3516L41.4297 170.727H43.0312L39.0312 177.148V182H37.625ZM45.9922 182.156C43.7344 182.156 42.2266 180.523 42.2266 177.938V177.922C42.2266 175.336 43.7422 173.719 45.9844 173.719C48.2266 173.719 49.75 175.328 49.75 177.922V177.938C49.75 180.531 48.2344 182.156 45.9922 182.156ZM46 180.953C47.4297 180.953 48.3594 179.844 48.3594 177.938V177.922C48.3594 176.016 47.4219 174.922 45.9844 174.922C44.5703 174.922 43.6172 176.023 43.6172 177.922V177.938C43.6172 179.852 44.5625 180.953 46 180.953ZM53.8984 182.156C52.1172 182.156 51.0859 181 51.0859 179.148V173.875H52.4453V178.906C52.4453 180.227 53.0625 180.953 54.3125 180.953C55.5938 180.953 56.4297 180.039 56.4297 178.656V173.875H57.7891V182H56.4297V180.844H56.3984C55.9609 181.602 55.1328 182.156 53.8984 182.156ZM59.5625 182V173.875H60.9219V175.25H60.9531C61.2266 174.312 61.9297 173.719 62.8438 173.719C63.0781 173.719 63.2812 173.758 63.3906 173.773V175.094C63.2812 175.055 62.9922 175.016 62.6641 175.016C61.6094 175.016 60.9219 175.75 60.9219 176.984V182H59.5625ZM67.7812 182V173.875H69.1406V175.25H69.1719C69.4453 174.312 70.1484 173.719 71.0625 173.719C71.2969 173.719 71.5 173.758 71.6094 173.773V175.094C71.5 175.055 71.2109 175.016 70.8828 175.016C69.8281 175.016 69.1406 175.75 69.1406 176.984V182H67.7812ZM75.6719 182.156C73.3359 182.156 71.9297 180.523 71.9297 177.969V177.961C71.9297 175.445 73.3672 173.719 75.5859 173.719C77.8047 173.719 79.1562 175.367 79.1562 177.805V178.305H73.3047C73.3359 179.977 74.2578 180.953 75.7031 180.953C76.7344 180.953 77.4609 180.438 77.6953 179.742L77.7188 179.672H79.0547L79.0391 179.75C78.7734 181.094 77.4453 182.156 75.6719 182.156ZM75.5781 174.922C74.3984 174.922 73.4766 175.727 73.3281 177.242H77.7734C77.6406 175.664 76.7656 174.922 75.5781 174.922ZM83.4141 182.156C81.5 182.156 80.3438 181.18 80.1797 179.727L80.1719 179.656H81.5312L81.5469 179.734C81.7109 180.547 82.3125 181.023 83.4219 181.023C84.5234 181.023 85.1797 180.562 85.1797 179.828V179.82C85.1797 179.234 84.875 178.906 83.9531 178.68L82.6641 178.367C81.1328 178 80.3906 177.289 80.3906 176.117V176.109C80.3906 174.711 81.6172 173.719 83.375 173.719C85.1562 173.719 86.2891 174.758 86.3906 176.117L86.3984 176.219H85.1016L85.0938 176.164C84.9844 175.375 84.3828 174.852 83.375 174.852C82.3906 174.852 81.7812 175.328 81.7812 176.047V176.055C81.7812 176.609 82.1484 176.992 83.0469 177.211L84.3359 177.523C85.9766 177.922 86.5703 178.57 86.5703 179.727V179.734C86.5703 181.156 85.2266 182.156 83.4141 182.156ZM91.3281 182.156C88.9922 182.156 87.5859 180.523 87.5859 177.969V177.961C87.5859 175.445 89.0234 173.719 91.2422 173.719C93.4609 173.719 94.8125 175.367 94.8125 177.805V178.305H88.9609C88.9922 179.977 89.9141 180.953 91.3594 180.953C92.3906 180.953 93.1172 180.438 93.3516 179.742L93.375 179.672H94.7109L94.6953 179.75C94.4297 181.094 93.1016 182.156 91.3281 182.156ZM91.2344 174.922C90.0547 174.922 89.1328 175.727 88.9844 177.242H93.4297C93.2969 175.664 92.4219 174.922 91.2344 174.922ZM96.1875 182V173.875H97.5469V175.25H97.5781C97.8516 174.312 98.5547 173.719 99.4688 173.719C99.7031 173.719 99.9062 173.758 100.016 173.773V175.094C99.9062 175.055 99.6172 175.016 99.2891 175.016C98.2344 175.016 97.5469 175.75 97.5469 176.984V182H96.1875ZM103.648 182L100.656 173.875H102.086L104.328 180.555H104.359L106.609 173.875H108.023L105.039 182H103.648ZM111.312 182.156C109.695 182.156 108.609 181.18 108.609 179.703V179.688C108.609 178.305 109.688 177.438 111.555 177.328L113.883 177.195V176.516C113.883 175.523 113.234 174.922 112.102 174.922C111.055 174.922 110.398 175.422 110.242 176.148L110.227 176.219H108.914L108.922 176.133C109.039 174.797 110.203 173.719 112.117 173.719C114.039 173.719 115.242 174.758 115.242 176.383V182H113.883V180.68H113.852C113.375 181.57 112.398 182.156 111.312 182.156ZM110 179.703C110 180.484 110.641 180.977 111.617 180.977C112.898 180.977 113.883 180.094 113.883 178.914V178.25L111.711 178.383C110.625 178.445 110 178.93 110 179.688V179.703ZM119.609 182.156C118.117 182.156 117.383 181.484 117.383 179.93V175H116.195V173.875H117.383V171.68H118.789V173.875H120.336V175H118.789V179.922C118.789 180.789 119.172 181.031 119.898 181.031C120.062 181.031 120.219 181.008 120.336 181V182.102C120.164 182.125 119.875 182.156 119.609 182.156ZM122.562 172.5C122.094 172.5 121.711 172.117 121.711 171.648C121.711 171.172 122.094 170.797 122.562 170.797C123.039 170.797 123.414 171.172 123.414 171.648C123.414 172.117 123.039 172.5 122.562 172.5ZM121.883 182V173.875H123.242V182H121.883ZM128.461 182.156C126.203 182.156 124.695 180.523 124.695 177.938V177.922C124.695 175.336 126.211 173.719 128.453 173.719C130.695 173.719 132.219 175.328 132.219 177.922V177.938C132.219 180.531 130.703 182.156 128.461 182.156ZM128.469 180.953C129.898 180.953 130.828 179.844 130.828 177.938V177.922C130.828 176.016 129.891 174.922 128.453 174.922C127.039 174.922 126.086 176.023 126.086 177.922V177.938C126.086 179.852 127.031 180.953 128.469 180.953ZM133.594 182V173.875H134.953V175.031H134.984C135.422 174.273 136.25 173.719 137.484 173.719C139.266 173.719 140.297 174.875 140.297 176.727V182H138.938V176.969C138.938 175.648 138.32 174.922 137.07 174.922C135.789 174.922 134.953 175.836 134.953 177.219V182H133.594ZM144.914 182.156C143 182.156 141.844 181.18 141.68 179.727L141.672 179.656H143.031L143.047 179.734C143.211 180.547 143.812 181.023 144.922 181.023C146.023 181.023 146.68 180.562 146.68 179.828V179.82C146.68 179.234 146.375 178.906 145.453 178.68L144.164 178.367C142.633 178 141.891 177.289 141.891 176.117V176.109C141.891 174.711 143.117 173.719 144.875 173.719C146.656 173.719 147.789 174.758 147.891 176.117L147.898 176.219H146.602L146.594 176.164C146.484 175.375 145.883 174.852 144.875 174.852C143.891 174.852 143.281 175.328 143.281 176.047V176.055C143.281 176.609 143.648 176.992 144.547 177.211L145.836 177.523C147.477 177.922 148.07 178.57 148.07 179.727V179.734C148.07 181.156 146.727 182.156 144.914 182.156ZM155.141 182.156C153.523 182.156 152.438 181.18 152.438 179.703V179.688C152.438 178.305 153.516 177.438 155.383 177.328L157.711 177.195V176.516C157.711 175.523 157.062 174.922 155.93 174.922C154.883 174.922 154.227 175.422 154.07 176.148L154.055 176.219H152.742L152.75 176.133C152.867 174.797 154.031 173.719 155.945 173.719C157.867 173.719 159.07 174.758 159.07 176.383V182H157.711V180.68H157.68C157.203 181.57 156.227 182.156 155.141 182.156ZM153.828 179.703C153.828 180.484 154.469 180.977 155.445 180.977C156.727 180.977 157.711 180.094 157.711 178.914V178.25L155.539 178.383C154.453 178.445 153.828 178.93 153.828 179.688V179.703ZM160.797 182V173.875H162.156V175.25H162.188C162.461 174.312 163.164 173.719 164.078 173.719C164.312 173.719 164.516 173.758 164.625 173.773V175.094C164.516 175.055 164.227 175.016 163.898 175.016C162.844 175.016 162.156 175.75 162.156 176.984V182H160.797ZM168.688 182.156C166.352 182.156 164.945 180.523 164.945 177.969V177.961C164.945 175.445 166.383 173.719 168.602 173.719C170.82 173.719 172.172 175.367 172.172 177.805V178.305H166.32C166.352 179.977 167.273 180.953 168.719 180.953C169.75 180.953 170.477 180.438 170.711 179.742L170.734 179.672H172.07L172.055 179.75C171.789 181.094 170.461 182.156 168.688 182.156ZM168.594 174.922C167.414 174.922 166.492 175.727 166.344 177.242H170.789C170.656 175.664 169.781 174.922 168.594 174.922ZM180.195 182.156C177.891 182.156 176.43 180.516 176.43 177.93V177.922C176.43 175.359 177.922 173.719 180.18 173.719C182.203 173.719 183.398 175.062 183.57 176.453L183.578 176.516H182.25L182.234 176.453C182.031 175.641 181.375 174.922 180.18 174.922C178.766 174.922 177.82 176.094 177.82 177.938V177.945C177.82 179.836 178.789 180.953 180.195 180.953C181.305 180.953 182.016 180.328 182.242 179.422L182.258 179.359H183.594L183.586 179.414C183.367 180.961 182.031 182.156 180.195 182.156ZM188.211 182.156C185.953 182.156 184.445 180.523 184.445 177.938V177.922C184.445 175.336 185.961 173.719 188.203 173.719C190.445 173.719 191.969 175.328 191.969 177.922V177.938C191.969 180.531 190.453 182.156 188.211 182.156ZM188.219 180.953C189.648 180.953 190.578 179.844 190.578 177.938V177.922C190.578 176.016 189.641 174.922 188.203 174.922C186.789 174.922 185.836 176.023 185.836 177.922V177.938C185.836 179.852 186.781 180.953 188.219 180.953ZM193.344 182V173.875H194.703V175.031H194.734C195.172 174.273 196 173.719 197.234 173.719C199.016 173.719 200.047 174.875 200.047 176.727V182H198.688V176.969C198.688 175.648 198.07 174.922 196.82 174.922C195.539 174.922 194.703 175.836 194.703 177.219V182H193.344ZM202.219 182V175H201.086V173.875H202.219V172.875C202.219 171.312 202.945 170.57 204.445 170.57C204.75 170.57 205.07 170.594 205.273 170.625V171.727C205.109 171.703 204.898 171.695 204.688 171.695C203.938 171.695 203.562 172.078 203.562 172.883V173.875H205.234V175H203.578V182H202.219ZM207.406 172.5C206.938 172.5 206.555 172.117 206.555 171.648C206.555 171.172 206.938 170.797 207.406 170.797C207.883 170.797 208.258 171.172 208.258 171.648C208.258 172.117 207.883 172.5 207.406 172.5ZM206.727 182V173.875H208.086V182H206.727ZM209.938 182V173.875H211.297V175.25H211.328C211.602 174.312 212.305 173.719 213.219 173.719C213.453 173.719 213.656 173.758 213.766 173.773V175.094C213.656 175.055 213.367 175.016 213.039 175.016C211.984 175.016 211.297 175.75 211.297 176.984V182H209.938ZM214.875 182V173.875H216.234V175.062H216.266C216.633 174.258 217.445 173.719 218.492 173.719C219.602 173.719 220.422 174.289 220.773 175.281H220.805C221.258 174.305 222.211 173.719 223.352 173.719C224.961 173.719 226 174.773 226 176.391V182H224.641V176.703C224.641 175.586 224.023 174.922 222.953 174.922C221.875 174.922 221.117 175.727 221.117 176.836V182H219.758V176.555C219.758 175.57 219.102 174.922 218.094 174.922C217.016 174.922 216.234 175.773 216.234 176.906V182H214.875ZM231.078 182.156C228.742 182.156 227.336 180.523 227.336 177.969V177.961C227.336 175.445 228.773 173.719 230.992 173.719C233.211 173.719 234.562 175.367 234.562 177.805V178.305H228.711C228.742 179.977 229.664 180.953 231.109 180.953C232.141 180.953 232.867 180.438 233.102 179.742L233.125 179.672H234.461L234.445 179.75C234.18 181.094 232.852 182.156 231.078 182.156ZM230.984 174.922C229.805 174.922 228.883 175.727 228.734 177.242H233.18C233.047 175.664 232.172 174.922 230.984 174.922ZM238.992 182.156C236.914 182.156 235.539 180.5 235.539 177.938V177.93C235.539 175.367 236.93 173.719 238.969 173.719C240.117 173.719 241.062 174.297 241.57 175.234H241.602V170.727H242.961V182H241.602V180.625H241.57C241.062 181.57 240.156 182.156 238.992 182.156ZM239.258 180.953C240.633 180.953 241.609 179.758 241.609 177.938V177.93C241.609 176.117 240.625 174.922 239.258 174.922C237.82 174.922 236.93 176.078 236.93 177.93V177.938C236.93 179.805 237.82 180.953 239.258 180.953ZM245.633 182.109C245.133 182.109 244.742 181.719 244.742 181.219C244.742 180.719 245.133 180.328 245.633 180.328C246.133 180.328 246.523 180.719 246.523 181.219C246.523 181.719 246.133 182.109 245.633 182.109ZM44.4688 201.188C41.3203 201.188 39.3047 198.898 39.3047 195.305V195.297C39.3047 191.773 41.3203 189.539 44.4688 189.539C47.0625 189.539 48.6172 191.031 49.1406 193.023L49.1797 193.172H47.7031L47.6719 193.086C47.1484 191.656 46.0547 190.836 44.4688 190.836C42.1484 190.836 40.7422 192.516 40.7422 195.297V195.305C40.7422 198.141 42.1719 199.891 44.4688 199.891C46.4688 199.891 47.8438 198.594 47.8438 196.703V196.5H44.6641V195.266H49.25V196.336C49.25 199.383 47.4766 201.188 44.4688 201.188ZM54.1875 201.156C51.8516 201.156 50.4453 199.523 50.4453 196.969V196.961C50.4453 194.445 51.8828 192.719 54.1016 192.719C56.3203 192.719 57.6719 194.367 57.6719 196.805V197.305H51.8203C51.8516 198.977 52.7734 199.953 54.2188 199.953C55.25 199.953 55.9766 199.438 56.2109 198.742L56.2344 198.672H57.5703L57.5547 198.75C57.2891 200.094 55.9609 201.156 54.1875 201.156ZM54.0938 193.922C52.9141 193.922 51.9922 194.727 51.8438 196.242H56.2891C56.1562 194.664 55.2812 193.922 54.0938 193.922ZM61.6875 201.156C60.1953 201.156 59.4609 200.484 59.4609 198.93V194H58.2734V192.875H59.4609V190.68H60.8672V192.875H62.4141V194H60.8672V198.922C60.8672 199.789 61.25 200.031 61.9766 200.031C62.1406 200.031 62.2969 200.008 62.4141 200V201.102C62.2422 201.125 61.9531 201.156 61.6875 201.156ZM67.1562 201V192.875H68.5156V194.25H68.5469C68.8203 193.312 69.5234 192.719 70.4375 192.719C70.6719 192.719 70.875 192.758 70.9844 192.773V194.094C70.875 194.055 70.5859 194.016 70.2578 194.016C69.2031 194.016 68.5156 194.75 68.5156 195.984V201H67.1562ZM75.0469 201.156C72.7109 201.156 71.3047 199.523 71.3047 196.969V196.961C71.3047 194.445 72.7422 192.719 74.9609 192.719C77.1797 192.719 78.5312 194.367 78.5312 196.805V197.305H72.6797C72.7109 198.977 73.6328 199.953 75.0781 199.953C76.1094 199.953 76.8359 199.438 77.0703 198.742L77.0938 198.672H78.4297L78.4141 198.75C78.1484 200.094 76.8203 201.156 75.0469 201.156ZM74.9531 193.922C73.7734 193.922 72.8516 194.727 72.7031 196.242H77.1484C77.0156 194.664 76.1406 193.922 74.9531 193.922ZM82.2812 201.156C80.6641 201.156 79.5781 200.18 79.5781 198.703V198.688C79.5781 197.305 80.6562 196.438 82.5234 196.328L84.8516 196.195V195.516C84.8516 194.523 84.2031 193.922 83.0703 193.922C82.0234 193.922 81.3672 194.422 81.2109 195.148L81.1953 195.219H79.8828L79.8906 195.133C80.0078 193.797 81.1719 192.719 83.0859 192.719C85.0078 192.719 86.2109 193.758 86.2109 195.383V201H84.8516V199.68H84.8203C84.3438 200.57 83.3672 201.156 82.2812 201.156ZM80.9688 198.703C80.9688 199.484 81.6094 199.977 82.5859 199.977C83.8672 199.977 84.8516 199.094 84.8516 197.914V197.25L82.6797 197.383C81.5938 197.445 80.9688 197.93 80.9688 198.688V198.703ZM90.9922 201.156C88.9141 201.156 87.5391 199.5 87.5391 196.938V196.93C87.5391 194.367 88.9297 192.719 90.9688 192.719C92.1172 192.719 93.0625 193.297 93.5703 194.234H93.6016V189.727H94.9609V201H93.6016V199.625H93.5703C93.0625 200.57 92.1562 201.156 90.9922 201.156ZM91.2578 199.953C92.6328 199.953 93.6094 198.758 93.6094 196.938V196.93C93.6094 195.117 92.625 193.922 91.2578 193.922C89.8203 193.922 88.9297 195.078 88.9297 196.93V196.938C88.9297 198.805 89.8203 199.953 91.2578 199.953ZM97.5781 203.734C97.3125 203.734 97.0234 203.703 96.8516 203.672V202.562C96.9688 202.586 97.125 202.609 97.2891 202.609C98.1484 202.609 98.625 202.391 98.9531 201.469L99.1172 201.008L96.1016 192.875H97.5547L99.7969 199.641H99.8281L102.078 192.875H103.508L100.336 201.508C99.7578 203.062 99.0469 203.734 97.5781 203.734ZM110.5 201.156C109.008 201.156 108.273 200.484 108.273 198.93V194H107.086V192.875H108.273V190.68H109.68V192.875H111.227V194H109.68V198.922C109.68 199.789 110.062 200.031 110.789 200.031C110.953 200.031 111.109 200.008 111.227 200V201.102C111.055 201.125 110.766 201.156 110.5 201.156ZM115.82 201.156C113.562 201.156 112.055 199.523 112.055 196.938V196.922C112.055 194.336 113.57 192.719 115.812 192.719C118.055 192.719 119.578 194.328 119.578 196.922V196.938C119.578 199.531 118.062 201.156 115.82 201.156ZM115.828 199.953C117.258 199.953 118.188 198.844 118.188 196.938V196.922C118.188 195.016 117.25 193.922 115.812 193.922C114.398 193.922 113.445 195.023 113.445 196.922V196.938C113.445 198.852 114.391 199.953 115.828 199.953ZM124.305 201V189.727H125.664V194.172H125.695C126.133 193.258 127.016 192.719 128.227 192.719C129.953 192.719 131.133 194.055 131.133 196.023V201H129.773V196.258C129.773 194.789 129.023 193.922 127.758 193.922C126.5 193.922 125.664 194.875 125.664 196.258V201H124.305ZM135.234 201.156C133.617 201.156 132.531 200.18 132.531 198.703V198.688C132.531 197.305 133.609 196.438 135.477 196.328L137.805 196.195V195.516C137.805 194.523 137.156 193.922 136.023 193.922C134.977 193.922 134.32 194.422 134.164 195.148L134.148 195.219H132.836L132.844 195.133C132.961 193.797 134.125 192.719 136.039 192.719C137.961 192.719 139.164 193.758 139.164 195.383V201H137.805V199.68H137.773C137.297 200.57 136.32 201.156 135.234 201.156ZM133.922 198.703C133.922 199.484 134.562 199.977 135.539 199.977C136.82 199.977 137.805 199.094 137.805 197.914V197.25L135.633 197.383C134.547 197.445 133.922 197.93 133.922 198.688V198.703ZM143.18 201L140.188 192.875H141.617L143.859 199.555H143.891L146.141 192.875H147.555L144.57 201H143.18ZM151.656 201.156C149.32 201.156 147.914 199.523 147.914 196.969V196.961C147.914 194.445 149.352 192.719 151.57 192.719C153.789 192.719 155.141 194.367 155.141 196.805V197.305H149.289C149.32 198.977 150.242 199.953 151.688 199.953C152.719 199.953 153.445 199.438 153.68 198.742L153.703 198.672H155.039L155.023 198.75C154.758 200.094 153.43 201.156 151.656 201.156ZM151.562 193.922C150.383 193.922 149.461 194.727 149.312 196.242H153.758C153.625 194.664 152.75 193.922 151.562 193.922ZM162.172 201.156C160.555 201.156 159.469 200.18 159.469 198.703V198.688C159.469 197.305 160.547 196.438 162.414 196.328L164.742 196.195V195.516C164.742 194.523 164.094 193.922 162.961 193.922C161.914 193.922 161.258 194.422 161.102 195.148L161.086 195.219H159.773L159.781 195.133C159.898 193.797 161.062 192.719 162.977 192.719C164.898 192.719 166.102 193.758 166.102 195.383V201H164.742V199.68H164.711C164.234 200.57 163.258 201.156 162.172 201.156ZM160.859 198.703C160.859 199.484 161.5 199.977 162.477 199.977C163.758 199.977 164.742 199.094 164.742 197.914V197.25L162.57 197.383C161.484 197.445 160.859 197.93 160.859 198.688V198.703ZM174.547 203.891C172.539 203.891 171.273 202.945 171.008 201.742L170.992 201.672H172.359L172.391 201.742C172.648 202.328 173.422 202.688 174.531 202.688C175.961 202.688 176.773 201.898 176.773 200.641V199.602H176.742C176.258 200.5 175.32 201.078 174.156 201.078C172.109 201.078 170.711 199.43 170.711 196.891V196.883C170.711 194.359 172.125 192.719 174.188 192.719C175.336 192.719 176.242 193.344 176.742 194.25H176.773V192.875H178.133V200.773C178.133 202.656 176.75 203.891 174.547 203.891ZM174.453 199.875C175.836 199.875 176.773 198.695 176.773 196.891V196.883C176.773 195.094 175.828 193.922 174.453 193.922C173.008 193.922 172.102 195.078 172.102 196.883V196.891C172.102 198.734 173.008 199.875 174.453 199.875ZM179.891 201V192.875H181.25V194.25H181.281C181.555 193.312 182.258 192.719 183.172 192.719C183.406 192.719 183.609 192.758 183.719 192.773V194.094C183.609 194.055 183.32 194.016 182.992 194.016C181.938 194.016 181.25 194.75 181.25 195.984V201H179.891ZM187.781 201.156C185.445 201.156 184.039 199.523 184.039 196.969V196.961C184.039 194.445 185.477 192.719 187.695 192.719C189.914 192.719 191.266 194.367 191.266 196.805V197.305H185.414C185.445 198.977 186.367 199.953 187.812 199.953C188.844 199.953 189.57 199.438 189.805 198.742L189.828 198.672H191.164L191.148 198.75C190.883 200.094 189.555 201.156 187.781 201.156ZM187.688 193.922C186.508 193.922 185.586 194.727 185.438 196.242H189.883C189.75 194.664 188.875 193.922 187.688 193.922ZM195.016 201.156C193.398 201.156 192.312 200.18 192.312 198.703V198.688C192.312 197.305 193.391 196.438 195.258 196.328L197.586 196.195V195.516C197.586 194.523 196.938 193.922 195.805 193.922C194.758 193.922 194.102 194.422 193.945 195.148L193.93 195.219H192.617L192.625 195.133C192.742 193.797 193.906 192.719 195.82 192.719C197.742 192.719 198.945 193.758 198.945 195.383V201H197.586V199.68H197.555C197.078 200.57 196.102 201.156 195.016 201.156ZM193.703 198.703C193.703 199.484 194.344 199.977 195.32 199.977C196.602 199.977 197.586 199.094 197.586 197.914V197.25L195.414 197.383C194.328 197.445 193.703 197.93 193.703 198.688V198.703ZM203.312 201.156C201.82 201.156 201.086 200.484 201.086 198.93V194H199.898V192.875H201.086V190.68H202.492V192.875H204.039V194H202.492V198.922C202.492 199.789 202.875 200.031 203.602 200.031C203.766 200.031 203.922 200.008 204.039 200V201.102C203.867 201.125 203.578 201.156 203.312 201.156ZM211.422 201.156C209.93 201.156 209.195 200.484 209.195 198.93V194H208.008V192.875H209.195V190.68H210.602V192.875H212.148V194H210.602V198.922C210.602 199.789 210.984 200.031 211.711 200.031C211.875 200.031 212.031 200.008 212.148 200V201.102C211.977 201.125 211.688 201.156 211.422 201.156ZM214.375 191.5C213.906 191.5 213.523 191.117 213.523 190.648C213.523 190.172 213.906 189.797 214.375 189.797C214.852 189.797 215.227 190.172 215.227 190.648C215.227 191.117 214.852 191.5 214.375 191.5ZM213.695 201V192.875H215.055V201H213.695ZM216.906 201V192.875H218.266V194.062H218.297C218.664 193.258 219.477 192.719 220.523 192.719C221.633 192.719 222.453 193.289 222.805 194.281H222.836C223.289 193.305 224.242 192.719 225.383 192.719C226.992 192.719 228.031 193.773 228.031 195.391V201H226.672V195.703C226.672 194.586 226.055 193.922 224.984 193.922C223.906 193.922 223.148 194.727 223.148 195.836V201H221.789V195.555C221.789 194.57 221.133 193.922 220.125 193.922C219.047 193.922 218.266 194.773 218.266 195.906V201H216.906ZM233.109 201.156C230.773 201.156 229.367 199.523 229.367 196.969V196.961C229.367 194.445 230.805 192.719 233.023 192.719C235.242 192.719 236.594 194.367 236.594 196.805V197.305H230.742C230.773 198.977 231.695 199.953 233.141 199.953C234.172 199.953 234.898 199.438 235.133 198.742L235.156 198.672H236.492L236.477 198.75C236.211 200.094 234.883 201.156 233.109 201.156ZM233.016 193.922C231.836 193.922 230.914 194.727 230.766 196.242H235.211C235.078 194.664 234.203 193.922 233.016 193.922ZM238.609 197.258L238.516 189.727H239.922L239.828 197.258H238.609ZM239.219 201.078C238.719 201.078 238.328 200.688 238.328 200.188C238.328 199.68 238.719 199.297 239.219 199.297C239.727 199.297 240.109 199.68 240.109 200.188C240.109 200.688 239.727 201.078 239.219 201.078Z" fill="black"/>
</g>
<defs>
<filter id="filter0_d_5_8217" x="0" y="0" width="281" height="257" filterUnits="userSpaceOnUse" color-interpolation-filters="sRGB">
<feFlood flood-opacity="0" result="BackgroundImageFix"/>
<feColorMatrix in="SourceAlpha" type="matrix" values="0 0 0 0 0 0 0 0 0 0 0 0 0 0 0 0 0 0 127 0" result="hardAlpha"/>
<feOffset dy="4"/>
<feGaussianBlur stdDeviation="4"/>
<feComposite in2="hardAlpha" operator="out"/>
<feColorMatrix type="matrix" values="0 0 0 0 0 0 0 0 0 0 0 0 0 0 0 0 0 0 0.25 0"/>
<feBlend mode="normal" in2="BackgroundImageFix" result="effect1_dropShadow_5_8217"/>
<feBlend mode="normal" in="SourceGraphic" in2="effect1_dropShadow_5_8217" result="shape"/>
</filter>
<clipPath id="clip0_5_8217">
<rect width="265" height="241" fill="white" transform="translate(8 4)"/>
</clipPath>
</defs>
</svg>
