<svg width="281" height="257" viewBox="0 0 281 257" fill="none" xmlns="http://www.w3.org/2000/svg">
<g clip-path="url(#clip0_5_8186)" filter="url(#filter0_d_5_8186)">
<rect x="8" y="4" width="265" height="241" rx="20" fill="white"/>
<path d="M39.604 36.014C40.2787 36.366 40.8067 36.85 41.188 37.466C41.5693 38.082 41.76 38.7933 41.76 39.6C41.76 40.8613 41.3127 41.91 40.418 42.746C39.5233 43.582 38.4307 44 37.14 44H30.54V28.6H36.656C37.9173 28.6 38.9807 29.0107 39.846 29.832C40.726 30.6387 41.166 31.6507 41.166 32.868C41.166 34.2027 40.6453 35.2513 39.604 36.014ZM36.656 30.976H33.07V35.024H36.656C37.2133 35.024 37.6827 34.8333 38.064 34.452C38.4453 34.056 38.636 33.572 38.636 33C38.636 32.428 38.4453 31.9513 38.064 31.57C37.6827 31.174 37.2133 30.976 36.656 30.976ZM37.14 41.624C37.7267 41.624 38.218 41.4187 38.614 41.008C39.0247 40.5827 39.23 40.0693 39.23 39.468C39.23 38.8667 39.0247 38.3607 38.614 37.95C38.218 37.5247 37.7267 37.312 37.14 37.312H33.07V41.624H37.14ZM49.1132 44.286C47.4998 44.286 46.1285 43.7287 44.9992 42.614C43.8698 41.4993 43.3052 40.128 43.3052 38.5C43.3052 36.872 43.8698 35.5007 44.9992 34.386C46.1285 33.2713 47.4998 32.714 49.1132 32.714C50.7412 32.714 52.1125 33.2713 53.2272 34.386C54.3565 35.5007 54.9212 36.872 54.9212 38.5C54.9212 40.128 54.3565 41.4993 53.2272 42.614C52.1125 43.7287 50.7412 44.286 49.1132 44.286ZM46.6712 40.986C47.3312 41.646 48.1452 41.976 49.1132 41.976C50.0812 41.976 50.8952 41.646 51.5552 40.986C52.2152 40.326 52.5452 39.4973 52.5452 38.5C52.5452 37.5027 52.2152 36.674 51.5552 36.014C50.8952 35.354 50.0812 35.024 49.1132 35.024C48.1452 35.024 47.3312 35.354 46.6712 36.014C46.0112 36.674 45.6812 37.5027 45.6812 38.5C45.6812 39.4973 46.0112 40.326 46.6712 40.986ZM62.2616 44.286C60.6483 44.286 59.2769 43.7287 58.1476 42.614C57.0183 41.4993 56.4536 40.128 56.4536 38.5C56.4536 36.872 57.0183 35.5007 58.1476 34.386C59.2769 33.2713 60.6483 32.714 62.2616 32.714C63.8896 32.714 65.2609 33.2713 66.3756 34.386C67.5049 35.5007 68.0696 36.872 68.0696 38.5C68.0696 40.128 67.5049 41.4993 66.3756 42.614C65.2609 43.7287 63.8896 44.286 62.2616 44.286ZM59.8196 40.986C60.4796 41.646 61.2936 41.976 62.2616 41.976C63.2296 41.976 64.0436 41.646 64.7036 40.986C65.3636 40.326 65.6936 39.4973 65.6936 38.5C65.6936 37.5027 65.3636 36.674 64.7036 36.014C64.0436 35.354 63.2296 35.024 62.2616 35.024C61.2936 35.024 60.4796 35.354 59.8196 36.014C59.1596 36.674 58.8296 37.5027 58.8296 38.5C58.8296 39.4973 59.1596 40.326 59.8196 40.986ZM79.942 44H77.104L72.594 38.918V44H70.218V28.6H72.594V37.862L76.862 33H79.766L74.926 38.39L79.942 44ZM83.7843 30.91C83.491 31.2033 83.139 31.35 82.7283 31.35C82.3176 31.35 81.9583 31.2033 81.6503 30.91C81.357 30.602 81.2103 30.2427 81.2103 29.832C81.2103 29.4213 81.357 29.0693 81.6503 28.776C81.9436 28.468 82.303 28.314 82.7283 28.314C83.1536 28.314 83.513 28.468 83.8063 28.776C84.0996 29.0693 84.2463 29.4213 84.2463 29.832C84.2463 30.2427 84.0923 30.602 83.7843 30.91ZM81.5403 44V33H83.9163V44H81.5403ZM92.4611 32.714C93.7224 32.714 94.7417 33.1173 95.5191 33.924C96.2964 34.7307 96.6851 35.838 96.6851 37.246V44H94.3091V37.488C94.3091 36.6667 94.0891 36.036 93.6491 35.596C93.2091 35.156 92.6077 34.936 91.8451 34.936C91.0091 34.936 90.3344 35.2 89.8211 35.728C89.3077 36.2413 89.0511 37.0333 89.0511 38.104V44H86.6751V33H89.0511V34.408C89.7697 33.2787 90.9064 32.714 92.4611 32.714ZM107.999 33H110.331V43.494C110.331 45.166 109.781 46.4493 108.681 47.344C107.581 48.2387 106.247 48.686 104.677 48.686C102.14 48.686 100.402 47.7987 99.4634 46.024L101.509 44.836C102.081 45.9653 103.152 46.53 104.721 46.53C105.748 46.53 106.547 46.2587 107.119 45.716C107.706 45.188 107.999 44.4473 107.999 43.494V42.152C107.105 43.428 105.829 44.066 104.171 44.066C102.617 44.066 101.304 43.516 100.233 42.416C99.1628 41.3013 98.6274 39.9593 98.6274 38.39C98.6274 36.8207 99.1628 35.486 100.233 34.386C101.304 33.2713 102.617 32.714 104.171 32.714C105.829 32.714 107.105 33.352 107.999 34.628V33ZM101.993 40.854C102.668 41.514 103.504 41.844 104.501 41.844C105.499 41.844 106.327 41.514 106.987 40.854C107.662 40.194 107.999 39.3727 107.999 38.39C107.999 37.4073 107.662 36.586 106.987 35.926C106.327 35.266 105.499 34.936 104.501 34.936C103.504 34.936 102.668 35.266 101.993 35.926C101.333 36.586 101.003 37.4073 101.003 38.39C101.003 39.3727 101.333 40.194 101.993 40.854Z" fill="#292929"/>
<rect x="29" y="187" width="99" height="38" rx="19" fill="#FF5E54"/>
<path d="M50.5234 211.5L55.4688 201.914V201.875H49.6094V200.227H57.4531V201.906L52.6328 211.5H50.5234ZM59.7578 204.125C59.125 204.125 58.625 203.625 58.625 202.992C58.625 202.359 59.125 201.867 59.7578 201.867C60.3906 201.867 60.8828 202.359 60.8828 202.992C60.8828 203.625 60.3906 204.125 59.7578 204.125ZM59.7578 209.859C59.125 209.859 58.625 209.359 58.625 208.727C58.625 208.094 59.125 207.602 59.7578 207.602C60.3906 207.602 60.8828 208.094 60.8828 208.727C60.8828 209.359 60.3906 209.859 59.7578 209.859ZM66.7109 211.695C63.9453 211.695 62.2812 209.453 62.2812 205.867V205.852C62.2812 202.266 63.9453 200.031 66.7109 200.031C69.4688 200.031 71.1406 202.266 71.1406 205.852V205.867C71.1406 209.453 69.4688 211.695 66.7109 211.695ZM66.7109 210.047C68.2266 210.047 69.1094 208.469 69.1094 205.867V205.852C69.1094 203.25 68.2266 201.688 66.7109 201.688C65.1875 201.688 64.3125 203.25 64.3125 205.852V205.867C64.3125 208.469 65.1875 210.047 66.7109 210.047ZM76.9141 211.695C74.1484 211.695 72.4844 209.453 72.4844 205.867V205.852C72.4844 202.266 74.1484 200.031 76.9141 200.031C79.6719 200.031 81.3438 202.266 81.3438 205.852V205.867C81.3438 209.453 79.6719 211.695 76.9141 211.695ZM76.9141 210.047C78.4297 210.047 79.3125 208.469 79.3125 205.867V205.852C79.3125 203.25 78.4297 201.688 76.9141 201.688C75.3906 201.688 74.5156 203.25 74.5156 205.852V205.867C74.5156 208.469 75.3906 210.047 76.9141 210.047ZM86.0156 214.234V203.219H87.9609V204.648H88C88.4766 203.656 89.3828 203.047 90.5703 203.047C92.6719 203.047 94 204.688 94 207.359V207.367C94 210.023 92.6719 211.664 90.5938 211.664C89.4141 211.664 88.4688 211.07 88 210.102H87.9609V214.234H86.0156ZM89.9922 210.023C91.2344 210.023 92.0156 209 92.0156 207.367V207.359C92.0156 205.703 91.2344 204.688 89.9922 204.688C88.7891 204.688 87.9453 205.734 87.9453 207.359V207.367C87.9453 208.984 88.7891 210.023 89.9922 210.023ZM95.25 211.5V203.219H97.1953V204.547H97.2344C97.5859 203.641 98.4375 203.047 99.5312 203.047C100.688 203.047 101.523 203.656 101.828 204.719H101.875C102.273 203.688 103.258 203.047 104.453 203.047C106.086 203.047 107.156 204.156 107.156 205.812V211.5H105.211V206.297C105.211 205.273 104.68 204.688 103.727 204.688C102.789 204.688 102.148 205.383 102.148 206.383V211.5H100.258V206.195C100.258 205.266 99.6953 204.688 98.7891 204.688C97.8516 204.688 97.1953 205.422 97.1953 206.43V211.5H95.25Z" fill="white"/>
<rect x="138" y="187" width="97" height="38" rx="19" fill="white"/>
<rect x="138" y="187" width="97" height="38" rx="19" fill="#283047" fill-opacity="0.05"/>
<path d="M160.031 211.5L165.133 201.508V201.477H159.062V200.227H166.523V201.531L161.508 211.5H160.031ZM168.703 203.727C168.203 203.727 167.812 203.336 167.812 202.836C167.812 202.336 168.203 201.945 168.703 201.945C169.203 201.945 169.594 202.336 169.594 202.836C169.594 203.336 169.203 203.727 168.703 203.727ZM168.703 209.773C168.203 209.773 167.812 209.383 167.812 208.883C167.812 208.383 168.203 207.992 168.703 207.992C169.203 207.992 169.594 208.383 169.594 208.883C169.594 209.383 169.203 209.773 168.703 209.773ZM175.133 211.688C172.805 211.688 171.297 210.391 171.148 208.609L171.141 208.516H172.492L172.5 208.594C172.617 209.703 173.633 210.469 175.133 210.469C176.609 210.469 177.617 209.641 177.617 208.445V208.43C177.617 207.047 176.625 206.273 175.047 206.273H173.633V205.086H174.984C176.328 205.086 177.266 204.258 177.266 203.133V203.117C177.266 201.938 176.492 201.258 175.117 201.258C173.789 201.258 172.844 201.961 172.727 203.102L172.719 203.18H171.367L171.375 203.102C171.555 201.266 173.008 200.039 175.117 200.039C177.266 200.039 178.68 201.234 178.68 202.945V202.961C178.68 204.352 177.695 205.305 176.289 205.602V205.633C177.93 205.773 179.047 206.797 179.047 208.398V208.414C179.047 210.297 177.391 211.688 175.133 211.688ZM184.734 211.688C182.141 211.688 180.602 209.445 180.602 205.867V205.852C180.602 202.273 182.141 200.039 184.734 200.039C187.328 200.039 188.883 202.273 188.883 205.852V205.867C188.883 209.445 187.328 211.688 184.734 211.688ZM184.734 210.461C186.453 210.461 187.469 208.695 187.469 205.867V205.852C187.469 203.023 186.453 201.273 184.734 201.273C183.016 201.273 182.016 203.023 182.016 205.852V205.867C182.016 208.695 183.016 210.461 184.734 210.461ZM193.758 214.234V203.375H195.117V204.75H195.148C195.656 203.805 196.562 203.219 197.727 203.219C199.805 203.219 201.18 204.875 201.18 207.438V207.445C201.18 210.008 199.789 211.656 197.75 211.656C196.602 211.656 195.656 211.078 195.148 210.141H195.117V214.234H193.758ZM197.461 210.453C198.898 210.453 199.789 209.297 199.789 207.445V207.438C199.789 205.57 198.898 204.422 197.461 204.422C196.086 204.422 195.109 205.617 195.109 207.438V207.445C195.109 209.258 196.094 210.453 197.461 210.453ZM202.555 211.5V203.375H203.914V204.562H203.945C204.312 203.758 205.125 203.219 206.172 203.219C207.281 203.219 208.102 203.789 208.453 204.781H208.484C208.938 203.805 209.891 203.219 211.031 203.219C212.641 203.219 213.68 204.273 213.68 205.891V211.5H212.32V206.203C212.32 205.086 211.703 204.422 210.633 204.422C209.555 204.422 208.797 205.227 208.797 206.336V211.5H207.438V206.055C207.438 205.07 206.781 204.422 205.773 204.422C204.695 204.422 203.914 205.273 203.914 206.406V211.5H202.555Z" fill="#292929"/>
<rect x="245" y="187" width="98" height="38" rx="19" fill="white"/>
<rect x="245" y="187" width="98" height="38" rx="19" fill="#283047" fill-opacity="0.05"/>
<path d="M270.109 211.688C267.719 211.688 266.016 210.344 266.016 208.453V208.438C266.016 207.047 266.992 205.891 268.438 205.555V205.523C267.203 205.141 266.422 204.203 266.422 203.016V203C266.422 201.297 267.977 200.039 270.109 200.039C272.242 200.039 273.797 201.297 273.797 203V203.016C273.797 204.203 273.016 205.141 271.781 205.523V205.555C273.227 205.891 274.203 207.047 274.203 208.438V208.453C274.203 210.344 272.5 211.688 270.109 211.688ZM270.109 205C271.469 205 272.398 204.227 272.398 203.133V203.117C272.398 202.023 271.469 201.25 270.109 201.25C268.75 201.25 267.82 202.023 267.82 203.117V203.133C267.82 204.227 268.75 205 270.109 205ZM270.109 210.461C271.664 210.461 272.773 209.586 272.773 208.367V208.352C272.773 207.117 271.672 206.234 270.109 206.234C268.547 206.234 267.445 207.117 267.445 208.352V208.367C267.445 209.586 268.555 210.461 270.109 210.461ZM276.625 203.727C276.125 203.727 275.734 203.336 275.734 202.836C275.734 202.336 276.125 201.945 276.625 201.945C277.125 201.945 277.516 202.336 277.516 202.836C277.516 203.336 277.125 203.727 276.625 203.727ZM276.625 209.773C276.125 209.773 275.734 209.383 275.734 208.883C275.734 208.383 276.125 207.992 276.625 207.992C277.125 207.992 277.516 208.383 277.516 208.883C277.516 209.383 277.125 209.773 276.625 209.773ZM283.188 211.688C280.594 211.688 279.055 209.445 279.055 205.867V205.852C279.055 202.273 280.594 200.039 283.188 200.039C285.781 200.039 287.336 202.273 287.336 205.852V205.867C287.336 209.445 285.781 211.688 283.188 211.688ZM283.188 210.461C284.906 210.461 285.922 208.695 285.922 205.867V205.852C285.922 203.023 284.906 201.273 283.188 201.273C281.469 201.273 280.469 203.023 280.469 205.852V205.867C280.469 208.695 281.469 210.461 283.188 210.461ZM292.891 211.688C290.297 211.688 288.758 209.445 288.758 205.867V205.852C288.758 202.273 290.297 200.039 292.891 200.039C295.484 200.039 297.039 202.273 297.039 205.852V205.867C297.039 209.445 295.484 211.688 292.891 211.688ZM292.891 210.461C294.609 210.461 295.625 208.695 295.625 205.867V205.852C295.625 203.023 294.609 201.273 292.891 201.273C291.172 201.273 290.172 203.023 290.172 205.852V205.867C290.172 208.695 291.172 210.461 292.891 210.461ZM301.914 214.234V203.375H303.273V204.75H303.305C303.812 203.805 304.719 203.219 305.883 203.219C307.961 203.219 309.336 204.875 309.336 207.438V207.445C309.336 210.008 307.945 211.656 305.906 211.656C304.758 211.656 303.812 211.078 303.305 210.141H303.273V214.234H301.914ZM305.617 210.453C307.055 210.453 307.945 209.297 307.945 207.445V207.438C307.945 205.57 307.055 204.422 305.617 204.422C304.242 204.422 303.266 205.617 303.266 207.438V207.445C303.266 209.258 304.25 210.453 305.617 210.453ZM310.711 211.5V203.375H312.07V204.562H312.102C312.469 203.758 313.281 203.219 314.328 203.219C315.438 203.219 316.258 203.789 316.609 204.781H316.641C317.094 203.805 318.047 203.219 319.188 203.219C320.797 203.219 321.836 204.273 321.836 205.891V211.5H320.477V206.203C320.477 205.086 319.859 204.422 318.789 204.422C317.711 204.422 316.953 205.227 316.953 206.336V211.5H315.594V206.055C315.594 205.07 314.938 204.422 313.93 204.422C312.852 204.422 312.07 205.273 312.07 206.406V211.5H310.711Z" fill="#292929"/>
<rect x="28" y="71" width="83" height="38" rx="19" fill="#FF5E54"/>
<path d="M51.9688 95.5V85.9219H48.5938V84.2266H57.3438V85.9219H53.9766V95.5H51.9688ZM60.2578 95.6641C57.8203 95.6641 56.25 94.0391 56.25 91.3594V91.3438C56.25 88.6875 57.8438 87.0469 60.25 87.0469C62.6641 87.0469 64.2656 88.6719 64.2656 91.3438V91.3594C64.2656 94.0469 62.6875 95.6641 60.2578 95.6641ZM60.2656 94.0938C61.4922 94.0938 62.2812 93.0938 62.2812 91.3594V91.3438C62.2812 89.6172 61.4844 88.625 60.25 88.625C59.0391 88.625 58.2344 89.625 58.2344 91.3438V91.3594C58.2344 93.1016 59.0234 94.0938 60.2656 94.0938ZM68.5938 95.6641C66.5 95.6641 65.1719 94.0234 65.1719 91.3594V91.3516C65.1719 88.6797 66.5078 87.0469 68.5859 87.0469C69.7578 87.0469 70.7031 87.6484 71.1719 88.6406H71.2188V84.2266H73.1641V95.5H71.2188V94.0938H71.1719C70.7031 95.0703 69.7891 95.6641 68.5938 95.6641ZM69.1797 94.0234C70.3828 94.0234 71.2188 92.9844 71.2188 91.3594V91.3516C71.2188 89.7344 70.375 88.6875 69.1797 88.6875C67.9375 88.6875 67.1562 89.7031 67.1562 91.3516V91.3594C67.1562 93.0078 67.9297 94.0234 69.1797 94.0234ZM77.2422 95.6406C75.5859 95.6406 74.4688 94.6172 74.4688 93.1406V93.125C74.4688 91.6562 75.6094 90.7734 77.6172 90.6484L79.7812 90.5156V89.9453C79.7812 89.1094 79.2344 88.6016 78.25 88.6016C77.3281 88.6016 76.7656 89.0312 76.6406 89.6406L76.625 89.7109H74.8203L74.8281 89.6172C74.9453 88.1484 76.2188 87.0469 78.3203 87.0469C80.3906 87.0469 81.7266 88.1406 81.7266 89.8047V95.5H79.7812V94.2266H79.7344C79.2578 95.0938 78.3359 95.6406 77.2422 95.6406ZM76.4062 93.0625C76.4062 93.7422 76.9688 94.1562 77.8203 94.1562C78.9375 94.1562 79.7812 93.4141 79.7812 92.4297V91.8047L77.8906 91.9219C76.9297 91.9844 76.4062 92.3984 76.4062 93.0547V93.0625ZM84.375 98.25C84 98.25 83.6094 98.2031 83.375 98.1641V96.6797C83.5234 96.7109 83.75 96.75 84.0234 96.75C84.7656 96.75 85.1797 96.5391 85.4297 95.8438L85.5469 95.5078L82.5703 87.2188H84.6953L86.6328 93.8438H86.6875L88.6328 87.2188H90.6797L87.7031 95.7812C87.0703 97.6016 86.1016 98.25 84.375 98.25Z" fill="white"/>
<rect x="121" y="71" width="107" height="38" rx="19" fill="white"/>
<rect x="121" y="71" width="107" height="38" rx="19" fill="#283047" fill-opacity="0.05"/>
<path d="M145.203 95.5V85.4922H141.648V84.2266H150.164V85.4922H146.609V95.5H145.203ZM152.695 95.6562C150.438 95.6562 148.93 94.0234 148.93 91.4375V91.4219C148.93 88.8359 150.445 87.2188 152.688 87.2188C154.93 87.2188 156.453 88.8281 156.453 91.4219V91.4375C156.453 94.0312 154.938 95.6562 152.695 95.6562ZM152.703 94.4531C154.133 94.4531 155.062 93.3438 155.062 91.4375V91.4219C155.062 89.5156 154.125 88.4219 152.688 88.4219C151.273 88.4219 150.32 89.5234 150.32 91.4219V91.4375C150.32 93.3516 151.266 94.4531 152.703 94.4531ZM157.828 95.5V87.375H159.188V88.5625H159.219C159.586 87.7578 160.398 87.2188 161.445 87.2188C162.555 87.2188 163.375 87.7891 163.727 88.7812H163.758C164.211 87.8047 165.164 87.2188 166.305 87.2188C167.914 87.2188 168.953 88.2734 168.953 89.8906V95.5H167.594V90.2031C167.594 89.0859 166.977 88.4219 165.906 88.4219C164.828 88.4219 164.07 89.2266 164.07 90.3359V95.5H162.711V90.0547C162.711 89.0703 162.055 88.4219 161.047 88.4219C159.969 88.4219 159.188 89.2734 159.188 90.4062V95.5H157.828ZM174.055 95.6562C171.797 95.6562 170.289 94.0234 170.289 91.4375V91.4219C170.289 88.8359 171.805 87.2188 174.047 87.2188C176.289 87.2188 177.812 88.8281 177.812 91.4219V91.4375C177.812 94.0312 176.297 95.6562 174.055 95.6562ZM174.062 94.4531C175.492 94.4531 176.422 93.3438 176.422 91.4375V91.4219C176.422 89.5156 175.484 88.4219 174.047 88.4219C172.633 88.4219 171.68 89.5234 171.68 91.4219V91.4375C171.68 93.3516 172.625 94.4531 174.062 94.4531ZM179.188 95.5V87.375H180.547V88.75H180.578C180.852 87.8125 181.555 87.2188 182.469 87.2188C182.703 87.2188 182.906 87.2578 183.016 87.2734V88.5938C182.906 88.5547 182.617 88.5156 182.289 88.5156C181.234 88.5156 180.547 89.25 180.547 90.4844V95.5H179.188ZM184.125 95.5V87.375H185.484V88.75H185.516C185.789 87.8125 186.492 87.2188 187.406 87.2188C187.641 87.2188 187.844 87.2578 187.953 87.2734V88.5938C187.844 88.5547 187.555 88.5156 187.227 88.5156C186.172 88.5156 185.484 89.25 185.484 90.4844V95.5H184.125ZM192.039 95.6562C189.781 95.6562 188.273 94.0234 188.273 91.4375V91.4219C188.273 88.8359 189.789 87.2188 192.031 87.2188C194.273 87.2188 195.797 88.8281 195.797 91.4219V91.4375C195.797 94.0312 194.281 95.6562 192.039 95.6562ZM192.047 94.4531C193.477 94.4531 194.406 93.3438 194.406 91.4375V91.4219C194.406 89.5156 193.469 88.4219 192.031 88.4219C190.617 88.4219 189.664 89.5234 189.664 91.4219V91.4375C189.664 93.3516 190.609 94.4531 192.047 94.4531ZM198.781 95.5L196.508 87.375H197.859L199.484 93.9844H199.516L201.352 87.375H202.664L204.508 93.9844H204.539L206.164 87.375H207.508L205.242 95.5H203.859L202.023 89.2109H201.992L200.164 95.5H198.781Z" fill="#292929"/>
<rect x="238" y="71" width="96" height="38" rx="19" fill="white"/>
<rect x="238" y="71" width="96" height="38" rx="19" fill="#283047" fill-opacity="0.05"/>
<path d="M259.375 95.5V84.2266H261L264.906 93.7266H264.953L268.859 84.2266H270.484V95.5H269.172V86.7891H269.125L265.523 95.5H264.336L260.734 86.7891H260.688V95.5H259.375ZM274.602 95.6562C272.984 95.6562 271.898 94.6797 271.898 93.2031V93.1875C271.898 91.8047 272.977 90.9375 274.844 90.8281L277.172 90.6953V90.0156C277.172 89.0234 276.523 88.4219 275.391 88.4219C274.344 88.4219 273.688 88.9219 273.531 89.6484L273.516 89.7188H272.203L272.211 89.6328C272.328 88.2969 273.492 87.2188 275.406 87.2188C277.328 87.2188 278.531 88.2578 278.531 89.8828V95.5H277.172V94.1797H277.141C276.664 95.0703 275.688 95.6562 274.602 95.6562ZM273.289 93.2031C273.289 93.9844 273.93 94.4766 274.906 94.4766C276.188 94.4766 277.172 93.5938 277.172 92.4141V91.75L275 91.8828C273.914 91.9453 273.289 92.4297 273.289 93.1875V93.2031ZM280.258 95.5V87.375H281.617V88.75H281.648C281.922 87.8125 282.625 87.2188 283.539 87.2188C283.773 87.2188 283.977 87.2578 284.086 87.2734V88.5938C283.977 88.5547 283.688 88.5156 283.359 88.5156C282.305 88.5156 281.617 89.25 281.617 90.4844V95.5H280.258ZM288.172 95.6562C285.867 95.6562 284.406 94.0156 284.406 91.4297V91.4219C284.406 88.8594 285.898 87.2188 288.156 87.2188C290.18 87.2188 291.375 88.5625 291.547 89.9531L291.555 90.0156H290.227L290.211 89.9531C290.008 89.1406 289.352 88.4219 288.156 88.4219C286.742 88.4219 285.797 89.5938 285.797 91.4375V91.4453C285.797 93.3359 286.766 94.4531 288.172 94.4531C289.281 94.4531 289.992 93.8281 290.219 92.9219L290.234 92.8594H291.57L291.562 92.9141C291.344 94.4609 290.008 95.6562 288.172 95.6562ZM292.891 95.5V84.2266H294.25V88.6719H294.281C294.719 87.7578 295.602 87.2188 296.812 87.2188C298.539 87.2188 299.719 88.5547 299.719 90.5234V95.5H298.359V90.7578C298.359 89.2891 297.609 88.4219 296.344 88.4219C295.086 88.4219 294.25 89.375 294.25 90.7578V95.5H292.891ZM308.727 84.0391C310.805 84.0391 313.008 85.4766 313.008 89.6562V89.6719C313.008 93.4688 311.391 95.6875 308.633 95.6875C306.719 95.6875 305.289 94.5938 304.914 92.9531L304.891 92.8516H306.32L306.352 92.9375C306.688 93.8672 307.492 94.4453 308.648 94.4453C310.75 94.4453 311.578 92.4062 311.641 90.0391C311.648 89.9609 311.648 89.8828 311.648 89.7969H311.617C311.164 90.7969 310.008 91.6094 308.477 91.6094C306.328 91.6094 304.734 90.0234 304.734 87.8828V87.8672C304.734 85.6484 306.422 84.0391 308.727 84.0391ZM308.719 90.375C310.195 90.375 311.312 89.3281 311.312 87.8906V87.8828C311.312 86.4375 310.188 85.2891 308.742 85.2891C307.305 85.2891 306.164 86.4141 306.164 87.8359V87.8516C306.164 89.3203 307.234 90.375 308.719 90.375Z" fill="#292929"/>
<rect x="29" y="129" width="48" height="38" rx="19" fill="white"/>
<rect x="29" y="129" width="48" height="38" rx="19" fill="#283047" fill-opacity="0.05"/>
<path d="M53.2422 153.5V143.719H53.2109L50.2266 145.797V144.383L53.2266 142.227H54.6016V153.5H53.2422Z" fill="#292929"/>
<rect x="85" y="129" width="50" height="38" rx="19" fill="#FF5E54"/>
<path d="M106.117 153.5V152.125L110.102 148.242C111.578 146.797 111.898 146.227 111.898 145.391V145.375C111.891 144.367 111.133 143.648 110.047 143.648C108.797 143.648 107.922 144.484 107.898 145.57V145.625H106.008V145.57C106.008 143.508 107.742 142.031 110.031 142.031C112.289 142.031 113.867 143.398 113.867 145.258V145.273C113.867 146.602 113.25 147.5 111.266 149.406L108.781 151.766V151.852H114.039V153.5H106.117Z" fill="white"/>
<rect x="143" y="129" width="50" height="38" rx="19" fill="white"/>
<rect x="143" y="129" width="50" height="38" rx="19" fill="#283047" fill-opacity="0.05"/>
<path d="M167.977 153.688C165.648 153.688 164.141 152.391 163.992 150.609L163.984 150.516H165.336L165.344 150.594C165.461 151.703 166.477 152.469 167.977 152.469C169.453 152.469 170.461 151.641 170.461 150.445V150.43C170.461 149.047 169.469 148.273 167.891 148.273H166.477V147.086H167.828C169.172 147.086 170.109 146.258 170.109 145.133V145.117C170.109 143.938 169.336 143.258 167.961 143.258C166.633 143.258 165.688 143.961 165.57 145.102L165.562 145.18H164.211L164.219 145.102C164.398 143.266 165.852 142.039 167.961 142.039C170.109 142.039 171.523 143.234 171.523 144.945V144.961C171.523 146.352 170.539 147.305 169.133 147.602V147.633C170.773 147.773 171.891 148.797 171.891 150.398V150.414C171.891 152.297 170.234 153.688 167.977 153.688Z" fill="#292929"/>
<rect x="201" y="129" width="50" height="38" rx="19" fill="white"/>
<rect x="201" y="129" width="50" height="38" rx="19" fill="#283047" fill-opacity="0.05"/>
<path d="M227.438 153.5V151.156H221.773V149.883L226.719 142.227H228.797V149.922H230.391V151.156H228.797V153.5H227.438ZM223.164 149.922H227.438V143.43H227.391L223.164 149.891V149.922Z" fill="#292929"/>
<rect x="259" y="129" width="50" height="38" rx="19" fill="white"/>
<rect x="259" y="129" width="50" height="38" rx="19" fill="#283047" fill-opacity="0.05"/>
</g>
<defs>
<filter id="filter0_d_5_8186" x="0" y="0" width="281" height="257" filterUnits="userSpaceOnUse" color-interpolation-filters="sRGB">
<feFlood flood-opacity="0" result="BackgroundImageFix"/>
<feColorMatrix in="SourceAlpha" type="matrix" values="0 0 0 0 0 0 0 0 0 0 0 0 0 0 0 0 0 0 127 0" result="hardAlpha"/>
<feOffset dy="4"/>
<feGaussianBlur stdDeviation="4"/>
<feComposite in2="hardAlpha" operator="out"/>
<feColorMatrix type="matrix" values="0 0 0 0 0 0 0 0 0 0 0 0 0 0 0 0 0 0 0.15 0"/>
<feBlend mode="normal" in2="BackgroundImageFix" result="effect1_dropShadow_5_8186"/>
<feBlend mode="normal" in="SourceGraphic" in2="effect1_dropShadow_5_8186" result="shape"/>
</filter>
<clipPath id="clip0_5_8186">
<rect width="265" height="241" fill="white" transform="translate(8 4)"/>
</clipPath>
</defs>
</svg>
