<svg width="112" height="112" viewBox="0 0 112 112" fill="none" xmlns="http://www.w3.org/2000/svg">
<g clip-path="url(#clip0_5_8105)">
<path d="M12.8434 28.2601C-2.04793 41.3411 18.512 58.9562 29.0319 67.2402C35.5181 72.1748 42.213 76.8507 49.5794 80.4046C60.4538 85.6896 96.8477 102.062 93.8361 77.7851C92.7766 69.8097 89.3687 62.2556 85.8315 55.0728C78.8113 41.437 68.3082 26.1453 52.9289 21.6112C46.1673 19.6548 35.8894 21.2983 31.7182 27.38C26.2372 35.9644 32.982 49.4833 37.6872 57.3085C36.0145 55.1437 34.5296 52.8245 33.2031 50.4218C27.6262 40.6904 23.9889 26.5249 36.7654 20.8061C59.5278 10.9245 79.0491 35.9685 87.9004 54.03C92.0008 62.5267 98.7874 76.8633 95.1751 86.1484C88.2216 102.454 51.9319 84.2004 41.6207 77.8435C28.8859 69.597 -6.3735 44.1316 12.8434 28.2601Z" fill="url(#paint0_linear_5_8105)"/>
</g>
<defs>
<linearGradient id="paint0_linear_5_8105" x1="91.1973" y1="91.1966" x2="20.4856" y2="20.4849" gradientUnits="userSpaceOnUse">
<stop stop-color="#FF5E54"/>
<stop offset="1" stop-color="#F6A723"/>
</linearGradient>
<clipPath id="clip0_5_8105">
<rect width="57.9401" height="100" fill="white" transform="translate(111.681 70.7107) rotate(135)"/>
</clipPath>
</defs>
</svg>
