<svg width="100" height="100" viewBox="0 0 100 100" fill="none" xmlns="http://www.w3.org/2000/svg">
<g clip-path="url(#clip0_5_7954)">
<path d="M85.9408 98.9994C66.7526 98.9488 47.5581 99.5947 28.37 99.8797C25.5139 99.924 19.7195 99.981 16.8571 99.9873C15.9135 99.943 13.3994 100.063 12.4369 99.9493C9.82779 99.7087 7.3137 98.6955 5.25556 97.0869C1.91189 94.5412 -0.0322593 90.3553 -0.000595693 86.2073L0.347704 63.1816C0.746665 46.7292 0.59468 29.1749 0.645342 12.7668C1.1203 6.13008 7.02873 0.614279 13.7224 0.626944C29.0729 0.386301 44.4235 0.202652 59.7803 0.126659C62.934 0.132992 84.5602 -0.0886534 87.2453 0.038001C94.262 0.56995 100.082 6.94067 99.9614 13.9827C99.9044 29.3332 99.8348 44.69 99.4421 60.0405C99.3471 61.8074 98.9672 84.7635 98.9038 85.9477C99.0368 92.958 92.9638 99.1324 85.9471 98.9994H85.9408ZM85.9408 98.7461C92.8118 98.7904 98.6189 92.8124 98.3149 85.9477C98.2516 84.9091 97.84 61.725 97.7766 60.0405C97.3903 44.69 97.3143 29.3395 97.2573 13.9827C97.308 7.75126 91.9189 2.48243 85.6811 2.65341C84.6616 2.69141 61.4458 2.48876 59.774 2.50776C44.4234 2.43177 29.0729 2.25445 13.7161 2.00748C7.69366 1.83649 2.07654 6.79501 1.57625 12.8491C1.27228 29.2065 1.49393 46.7672 1.7599 63.1752L2.1082 86.201C2.1462 89.7283 3.85603 93.167 6.64243 95.2948C8.37126 96.6373 10.4737 97.4669 12.6458 97.6696C13.4248 97.7709 16.0022 97.7266 16.8571 97.7519C19.7385 97.7392 25.4949 97.8279 28.37 97.8595C47.5581 98.1445 66.7463 98.7905 85.9408 98.7398V98.7461Z" fill="url(#paint0_linear_5_7954)"/>
</g>
<defs>
<linearGradient id="paint0_linear_5_7954" x1="49.9811" y1="-0.00115967" x2="49.9811" y2="100" gradientUnits="userSpaceOnUse">
<stop stop-color="#FF5E54"/>
<stop offset="1" stop-color="#F6A723"/>
</linearGradient>
<clipPath id="clip0_5_7954">
<rect width="99.962" height="100" fill="white"/>
</clipPath>
</defs>
</svg>
