<svg width="376" height="376" viewBox="0 0 376 376" fill="none" xmlns="http://www.w3.org/2000/svg">
<g clip-path="url(#clip0_5_7876)">
<path d="M12.2502 125.137C33.7772 143.365 63.1053 161.721 92.3034 159.196C143.456 153.009 153.209 80.5114 157.085 38.9833C157.35 36.2628 161.358 35.8345 162 38.66C170.264 71.8512 184.12 123.317 217.145 139.275C245.516 151.711 274.156 130.358 294.492 111.876C301.828 105.141 308.632 97.9027 315.645 90.5755C318.494 87.6756 323.119 91.769 320.262 94.9522C252.259 165.752 252.506 228.416 334.593 286.505C335.677 287.275 335.927 288.764 335.158 289.848C334.471 290.81 333.196 291.119 332.167 290.616C301.341 276.371 262.271 258.307 227.831 264.57C199.156 269.786 184.919 297.68 177.825 323.427C175.269 332.243 173.329 341.258 171.697 350.307C174.383 332.149 178.145 313.869 186.127 297.058C199.634 267.986 223.981 256.627 255.18 260.521C282.903 263.923 309.029 274.841 334.213 286.259L331.811 290.397C245.708 231.413 245.533 163.58 315.583 90.592L320.2 94.9687C306.477 109.575 291.981 124.323 274.604 135.488C228.636 165.226 195.263 143.581 175.256 97.8377C166.933 79.1359 161.489 59.4971 157.121 39.7354L162.036 39.4122C159.997 59.367 156.984 79.3343 151.171 98.6775C142.977 126.872 125.296 159.398 92.5227 161.622C62.4397 163.439 33.6498 144.558 12.2502 125.137Z" fill="url(#paint0_linear_5_7876)"/>
</g>
<defs>
<linearGradient id="paint0_linear_5_7876" x1="39.6903" y1="226.953" x2="336.882" y2="147.321" gradientUnits="userSpaceOnUse">
<stop stop-color="#FF5E54"/>
<stop offset="1" stop-color="#F4B800"/>
</linearGradient>
<clipPath id="clip0_5_7876">
<rect width="306.849" height="306.113" fill="white" transform="translate(0 79.4182) rotate(-15)"/>
</clipPath>
</defs>
</svg>
